<svg width="124" height="37" viewBox="0 0 124 37" fill="none" xmlns="http://www.w3.org/2000/svg">
<g filter="url(#filter0_d_390_2066)">
<rect x="9" y="8" width="106.5" height="19.5" rx="9.75" fill="url(#paint0_linear_390_2066)"/>
<path d="M47.4552 18.39V19.125H44.3352V13.725H45.2127V18.39H47.4552ZM49.0497 15.3V19.125H48.2435V15.3H49.0497ZM49.1847 14.145C49.1847 14.2175 49.1697 14.2862 49.1397 14.3512C49.1122 14.4162 49.0735 14.4737 49.0235 14.5237C48.9735 14.5712 48.9147 14.61 48.8472 14.64C48.7822 14.6675 48.7122 14.6812 48.6372 14.6812C48.5647 14.6812 48.496 14.6675 48.431 14.64C48.3685 14.61 48.3135 14.5712 48.266 14.5237C48.2185 14.4737 48.1797 14.4162 48.1497 14.3512C48.1222 14.2862 48.1085 14.2175 48.1085 14.145C48.1085 14.07 48.1222 14 48.1497 13.935C48.1797 13.87 48.2185 13.8137 48.266 13.7662C48.3135 13.7162 48.3685 13.6775 48.431 13.65C48.496 13.62 48.5647 13.605 48.6372 13.605C48.7122 13.605 48.7822 13.62 48.8472 13.65C48.9147 13.6775 48.9735 13.7162 49.0235 13.7662C49.0735 13.8137 49.1122 13.87 49.1397 13.935C49.1697 14 49.1847 14.07 49.1847 14.145ZM53.5802 15.3L52.0427 19.125H51.3152L49.7777 15.3H50.4415C50.504 15.3 50.5552 15.3162 50.5952 15.3487C50.6377 15.3787 50.6652 15.415 50.6777 15.4575L51.5252 17.685C51.5602 17.79 51.5915 17.8937 51.619 17.9962C51.6465 18.0987 51.6702 18.2025 51.6902 18.3075C51.7102 18.2025 51.734 18.1 51.7615 18C51.7915 17.8975 51.824 17.7925 51.859 17.685L52.7215 15.4575C52.7365 15.4125 52.764 15.375 52.804 15.345C52.844 15.315 52.8927 15.3 52.9502 15.3H53.5802ZM56.6801 16.7812C56.6801 16.6462 56.6601 16.5212 56.6201 16.4062C56.5826 16.2887 56.5263 16.1875 56.4513 16.1025C56.3763 16.015 56.2826 15.9475 56.1701 15.9C56.0601 15.85 55.9326 15.825 55.7876 15.825C55.4951 15.825 55.2651 15.9087 55.0976 16.0762C54.9301 16.2437 54.8238 16.4787 54.7788 16.7812H56.6801ZM54.7563 17.2762C54.7663 17.4937 54.8001 17.6825 54.8576 17.8425C54.9151 18 54.9913 18.1312 55.0863 18.2362C55.1838 18.3412 55.2988 18.42 55.4313 18.4725C55.5663 18.5225 55.7163 18.5475 55.8813 18.5475C56.0388 18.5475 56.1751 18.53 56.2901 18.495C56.4051 18.4575 56.5051 18.4175 56.5901 18.375C56.6751 18.33 56.7476 18.29 56.8076 18.255C56.8676 18.2175 56.9226 18.1987 56.9726 18.1987C57.0376 18.1987 57.0876 18.2237 57.1226 18.2737L57.3513 18.57C57.2563 18.6825 57.1488 18.7775 57.0288 18.855C56.9088 18.9325 56.7813 18.9962 56.6463 19.0462C56.5113 19.0937 56.3726 19.1275 56.2301 19.1475C56.0876 19.17 55.9488 19.1813 55.8138 19.1813C55.5488 19.1813 55.3026 19.1375 55.0751 19.05C54.8501 18.96 54.6538 18.8287 54.4863 18.6562C54.3213 18.4837 54.1913 18.27 54.0963 18.015C54.0038 17.76 53.9576 17.4662 53.9576 17.1337C53.9576 16.8687 53.9988 16.6212 54.0813 16.3912C54.1663 16.1612 54.2863 15.9612 54.4413 15.7912C54.5988 15.6212 54.7888 15.4875 55.0113 15.39C55.2363 15.29 55.4901 15.24 55.7726 15.24C56.0076 15.24 56.2251 15.2787 56.4251 15.3563C56.6251 15.4312 56.7976 15.5425 56.9426 15.69C57.0876 15.8375 57.2001 16.0187 57.2801 16.2337C57.3626 16.4462 57.4038 16.6887 57.4038 16.9612C57.4038 17.0862 57.3901 17.17 57.3626 17.2125C57.3351 17.255 57.2851 17.2762 57.2126 17.2762H54.7563ZM63.2971 14.6475C63.2696 14.6925 63.2409 14.7262 63.2109 14.7487C63.1809 14.7687 63.1434 14.7787 63.0984 14.7787C63.0509 14.7787 62.9971 14.7587 62.9371 14.7187C62.8796 14.6787 62.8071 14.635 62.7196 14.5875C62.6346 14.5375 62.5334 14.4925 62.4159 14.4525C62.2984 14.41 62.1584 14.3887 61.9959 14.3887C61.8459 14.3887 61.7134 14.4075 61.5984 14.445C61.4859 14.4825 61.3909 14.535 61.3134 14.6025C61.2359 14.67 61.1771 14.75 61.1371 14.8425C61.0996 14.9325 61.0809 15.0312 61.0809 15.1387C61.0809 15.2762 61.1171 15.3912 61.1896 15.4837C61.2621 15.5737 61.3571 15.6512 61.4746 15.7162C61.5946 15.7812 61.7309 15.8387 61.8834 15.8887C62.0359 15.9362 62.1909 15.9875 62.3484 16.0425C62.5084 16.0975 62.6646 16.16 62.8171 16.23C62.9696 16.3 63.1046 16.3887 63.2221 16.4962C63.3421 16.6037 63.4384 16.735 63.5109 16.89C63.5834 17.045 63.6196 17.2337 63.6196 17.4562C63.6196 17.6962 63.5784 17.9212 63.4959 18.1312C63.4134 18.3412 63.2934 18.525 63.1359 18.6825C62.9809 18.8375 62.7884 18.96 62.5584 19.05C62.3309 19.14 62.0709 19.185 61.7784 19.185C61.6059 19.185 61.4371 19.1675 61.2721 19.1325C61.1096 19.1 60.9534 19.0537 60.8034 18.9937C60.6559 18.9312 60.5171 18.8562 60.3871 18.7687C60.2571 18.6812 60.1409 18.5837 60.0384 18.4762L60.2934 18.0562C60.3159 18.0212 60.3446 17.9937 60.3796 17.9737C60.4146 17.9537 60.4534 17.9437 60.4959 17.9437C60.5534 17.9437 60.6171 17.9712 60.6871 18.0262C60.7571 18.0787 60.8409 18.1375 60.9384 18.2025C61.0384 18.265 61.1584 18.3237 61.2984 18.3787C61.4384 18.4312 61.6059 18.4575 61.8009 18.4575C62.1184 18.4575 62.3634 18.38 62.5359 18.225C62.7109 18.07 62.7984 17.8562 62.7984 17.5837C62.7984 17.4312 62.7621 17.3075 62.6896 17.2125C62.6171 17.115 62.5209 17.0337 62.4009 16.9687C62.2834 16.9037 62.1484 16.8487 61.9959 16.8037C61.8434 16.7587 61.6884 16.7112 61.5309 16.6612C61.3734 16.6087 61.2184 16.5487 61.0659 16.4812C60.9134 16.4112 60.7771 16.3212 60.6571 16.2112C60.5396 16.0987 60.4446 15.9612 60.3721 15.7987C60.2996 15.6337 60.2634 15.4287 60.2634 15.1838C60.2634 14.9887 60.3009 14.8 60.3759 14.6175C60.4534 14.435 60.5646 14.2737 60.7096 14.1337C60.8571 13.9912 61.0384 13.8775 61.2534 13.7925C61.4684 13.7075 61.7134 13.665 61.9884 13.665C62.2984 13.665 62.5821 13.7137 62.8396 13.8112C63.0996 13.9087 63.3234 14.0475 63.5109 14.2275L63.2971 14.6475ZM65.6254 19.185C65.3079 19.185 65.0629 19.0962 64.8904 18.9187C64.7204 18.7387 64.6354 18.4862 64.6354 18.1613V15.9337H64.2154C64.1704 15.9337 64.1317 15.92 64.0992 15.8925C64.0667 15.8625 64.0504 15.8187 64.0504 15.7612V15.435L64.6692 15.345L64.8454 14.2387C64.8579 14.1962 64.8792 14.1625 64.9092 14.1375C64.9392 14.11 64.9792 14.0962 65.0292 14.0962H65.4417V15.3525H66.5029V15.9337H65.4417V18.105C65.4417 18.2425 65.4754 18.3475 65.5429 18.42C65.6104 18.4925 65.7004 18.5287 65.8129 18.5287C65.8754 18.5287 65.9292 18.5212 65.9742 18.5062C66.0192 18.4887 66.0579 18.4712 66.0904 18.4537C66.1229 18.4337 66.1504 18.4162 66.1729 18.4012C66.1979 18.3837 66.2217 18.375 66.2442 18.375C66.2892 18.375 66.3254 18.4 66.3529 18.45L66.5929 18.8437C66.4679 18.9537 66.3204 19.0387 66.1504 19.0987C65.9804 19.1563 65.8054 19.185 65.6254 19.185ZM68.0497 16.0087C68.1697 15.7662 68.3147 15.5762 68.4847 15.4387C68.6547 15.2987 68.8584 15.2287 69.0959 15.2287C69.1784 15.2287 69.2559 15.2387 69.3284 15.2587C69.4009 15.2762 69.4659 15.3037 69.5234 15.3412L69.4672 15.9487C69.4572 15.9912 69.4409 16.0212 69.4184 16.0387C69.3984 16.0537 69.3709 16.0612 69.3359 16.0612C69.2984 16.0612 69.2447 16.055 69.1747 16.0425C69.1047 16.0275 69.0309 16.02 68.9534 16.02C68.8409 16.02 68.7409 16.0362 68.6534 16.0687C68.5684 16.1012 68.4909 16.1487 68.4209 16.2112C68.3534 16.2737 68.2934 16.35 68.2409 16.44C68.1884 16.53 68.1397 16.6325 68.0947 16.7475V19.125H67.2884V15.3H67.7572C67.8422 15.3 67.9009 15.3162 67.9334 15.3487C67.9659 15.3787 67.9884 15.4325 68.0009 15.51L68.0497 16.0087ZM72.5839 16.7812C72.5839 16.6462 72.5639 16.5212 72.5239 16.4062C72.4864 16.2887 72.4301 16.1875 72.3551 16.1025C72.2801 16.015 72.1864 15.9475 72.0739 15.9C71.9639 15.85 71.8364 15.825 71.6914 15.825C71.3989 15.825 71.1689 15.9087 71.0014 16.0762C70.8339 16.2437 70.7276 16.4787 70.6826 16.7812H72.5839ZM70.6601 17.2762C70.6701 17.4937 70.7039 17.6825 70.7614 17.8425C70.8189 18 70.8951 18.1312 70.9901 18.2362C71.0876 18.3412 71.2026 18.42 71.3351 18.4725C71.4701 18.5225 71.6201 18.5475 71.7851 18.5475C71.9426 18.5475 72.0789 18.53 72.1939 18.495C72.3089 18.4575 72.4089 18.4175 72.4939 18.375C72.5789 18.33 72.6514 18.29 72.7114 18.255C72.7714 18.2175 72.8264 18.1987 72.8764 18.1987C72.9414 18.1987 72.9914 18.2237 73.0264 18.2737L73.2551 18.57C73.1601 18.6825 73.0526 18.7775 72.9326 18.855C72.8126 18.9325 72.6851 18.9962 72.5501 19.0462C72.4151 19.0937 72.2764 19.1275 72.1339 19.1475C71.9914 19.17 71.8526 19.1813 71.7176 19.1813C71.4526 19.1813 71.2064 19.1375 70.9789 19.05C70.7539 18.96 70.5576 18.8287 70.3901 18.6562C70.2251 18.4837 70.0951 18.27 70.0001 18.015C69.9076 17.76 69.8614 17.4662 69.8614 17.1337C69.8614 16.8687 69.9026 16.6212 69.9851 16.3912C70.0701 16.1612 70.1901 15.9612 70.3451 15.7912C70.5026 15.6212 70.6926 15.4875 70.9151 15.39C71.1401 15.29 71.3939 15.24 71.6764 15.24C71.9114 15.24 72.1289 15.2787 72.3289 15.3563C72.5289 15.4312 72.7014 15.5425 72.8464 15.69C72.9914 15.8375 73.1039 16.0187 73.1839 16.2337C73.2664 16.4462 73.3076 16.6887 73.3076 16.9612C73.3076 17.0862 73.2939 17.17 73.2664 17.2125C73.2389 17.255 73.1889 17.2762 73.1164 17.2762H70.6601ZM76.2533 17.4525C75.9658 17.4625 75.7233 17.4862 75.5258 17.5237C75.3283 17.5587 75.1683 17.605 75.0458 17.6625C74.9233 17.7175 74.8345 17.7837 74.7795 17.8612C74.727 17.9387 74.7008 18.0237 74.7008 18.1162C74.7008 18.2062 74.7145 18.2837 74.742 18.3487C74.772 18.4112 74.812 18.4637 74.862 18.5062C74.9145 18.5462 74.9745 18.5762 75.042 18.5962C75.112 18.6137 75.1883 18.6225 75.2708 18.6225C75.4808 18.6225 75.6608 18.5837 75.8108 18.5062C75.9633 18.4262 76.1108 18.3112 76.2533 18.1613V17.4525ZM74.1158 15.8325C74.5483 15.43 75.0633 15.2287 75.6608 15.2287C75.8808 15.2287 76.0758 15.265 76.2458 15.3375C76.4183 15.4075 76.562 15.5075 76.677 15.6375C76.7945 15.7675 76.8833 15.9225 76.9433 16.1025C77.0058 16.28 77.037 16.4775 77.037 16.695V19.125H76.677C76.5995 19.125 76.5408 19.1137 76.5008 19.0912C76.4608 19.0662 76.427 19.0175 76.3995 18.945L76.3208 18.6337C76.2233 18.7212 76.127 18.8 76.032 18.87C75.937 18.9375 75.8383 18.995 75.7358 19.0425C75.6358 19.09 75.527 19.125 75.4095 19.1475C75.2945 19.1725 75.167 19.185 75.027 19.185C74.872 19.185 74.727 19.1638 74.592 19.1212C74.4595 19.0787 74.3445 19.015 74.247 18.93C74.1495 18.8425 74.072 18.735 74.0145 18.6075C73.9595 18.48 73.932 18.33 73.932 18.1575C73.932 18.01 73.9708 17.8662 74.0483 17.7262C74.1283 17.5862 74.2583 17.4612 74.4383 17.3512C74.6208 17.2387 74.8595 17.1462 75.1545 17.0737C75.452 17.0012 75.8183 16.96 76.2533 16.95V16.695C76.2533 16.42 76.1945 16.215 76.077 16.08C75.9595 15.945 75.787 15.8775 75.5595 15.8775C75.4045 15.8775 75.2745 15.8975 75.1695 15.9375C75.0645 15.975 74.9733 16.0162 74.8958 16.0612C74.8183 16.1062 74.7495 16.1487 74.6895 16.1887C74.6295 16.2262 74.5658 16.245 74.4983 16.245C74.4433 16.245 74.3958 16.2312 74.3558 16.2037C74.3183 16.1737 74.287 16.1375 74.262 16.095L74.1158 15.8325ZM78.1315 19.125V15.3H78.619C78.729 15.3 78.799 15.3512 78.829 15.4537L78.8815 15.7875C78.9515 15.7075 79.024 15.635 79.099 15.57C79.174 15.5025 79.254 15.445 79.339 15.3975C79.4265 15.3475 79.519 15.3087 79.6165 15.2812C79.7165 15.2537 79.824 15.24 79.939 15.24C80.0615 15.24 80.174 15.2575 80.2765 15.2925C80.379 15.3275 80.469 15.3775 80.5465 15.4425C80.6265 15.5075 80.6952 15.5862 80.7527 15.6787C80.8102 15.7712 80.8577 15.875 80.8952 15.99C80.9527 15.8575 81.0252 15.7437 81.1127 15.6487C81.2002 15.5537 81.2977 15.4762 81.4052 15.4162C81.5127 15.3562 81.6265 15.3125 81.7465 15.285C81.869 15.255 81.9927 15.24 82.1177 15.24C82.3227 15.24 82.5052 15.2725 82.6652 15.3375C82.8277 15.4025 82.964 15.4975 83.074 15.6225C83.1865 15.745 83.2715 15.8962 83.329 16.0762C83.3865 16.2562 83.4152 16.4612 83.4152 16.6912V19.125H82.609V16.6912C82.609 16.4212 82.5502 16.2187 82.4327 16.0837C82.3177 15.9462 82.1465 15.8775 81.919 15.8775C81.8165 15.8775 81.7202 15.895 81.6302 15.93C81.5402 15.965 81.4615 16.0162 81.394 16.0837C81.3265 16.1512 81.2727 16.2362 81.2327 16.3387C81.1952 16.4387 81.1765 16.5562 81.1765 16.6912V19.125H80.3702V16.6912C80.3702 16.4112 80.314 16.2062 80.2015 16.0762C80.089 15.9437 79.924 15.8775 79.7065 15.8775C79.5565 15.8775 79.4177 15.9162 79.2902 15.9937C79.1627 16.0687 79.0452 16.1725 78.9377 16.305V19.125H78.1315ZM85.3471 15.3V19.125H84.5408V15.3H85.3471ZM85.4821 14.145C85.4821 14.2175 85.4671 14.2862 85.4371 14.3512C85.4096 14.4162 85.3708 14.4737 85.3208 14.5237C85.2708 14.5712 85.2121 14.61 85.1446 14.64C85.0796 14.6675 85.0096 14.6812 84.9346 14.6812C84.8621 14.6812 84.7933 14.6675 84.7283 14.64C84.6658 14.61 84.6108 14.5712 84.5633 14.5237C84.5158 14.4737 84.4771 14.4162 84.4471 14.3512C84.4196 14.2862 84.4058 14.2175 84.4058 14.145C84.4058 14.07 84.4196 14 84.4471 13.935C84.4771 13.87 84.5158 13.8137 84.5633 13.7662C84.6108 13.7162 84.6658 13.6775 84.7283 13.65C84.7933 13.62 84.8621 13.605 84.9346 13.605C85.0096 13.605 85.0796 13.62 85.1446 13.65C85.2121 13.6775 85.2708 13.7162 85.3208 13.7662C85.3708 13.8137 85.4096 13.87 85.4371 13.935C85.4671 14 85.4821 14.07 85.4821 14.145ZM87.2638 15.8062C87.3463 15.7212 87.4313 15.645 87.5188 15.5775C87.6088 15.5075 87.7038 15.4475 87.8038 15.3975C87.9038 15.3475 88.0101 15.3087 88.1226 15.2812C88.2351 15.2537 88.3576 15.24 88.4901 15.24C88.7001 15.24 88.8838 15.275 89.0413 15.345C89.2013 15.415 89.3351 15.5137 89.4426 15.6412C89.5526 15.7687 89.6351 15.9225 89.6901 16.1025C89.7451 16.28 89.7726 16.4762 89.7726 16.6912V19.125H88.9701V16.6912C88.9701 16.4337 88.9101 16.2337 88.7901 16.0912C88.6726 15.9487 88.4926 15.8775 88.2501 15.8775C88.0701 15.8775 87.9026 15.9187 87.7476 16.0012C87.5951 16.0837 87.4513 16.1962 87.3163 16.3387V19.125H86.5101V15.3H86.9976C87.1076 15.3 87.1776 15.3512 87.2076 15.4537L87.2638 15.8062ZM92.2292 17.1787C92.4792 17.1787 92.6667 17.115 92.7917 16.9875C92.9167 16.86 92.9792 16.6937 92.9792 16.4887C92.9792 16.2787 92.9167 16.1125 92.7917 15.99C92.6667 15.8675 92.4792 15.8062 92.2292 15.8062C91.9817 15.8062 91.7942 15.8675 91.6667 15.99C91.5417 16.1125 91.4792 16.2787 91.4792 16.4887C91.4792 16.5887 91.4954 16.6812 91.5279 16.7662C91.5604 16.8512 91.6079 16.925 91.6704 16.9875C91.7329 17.0475 91.8104 17.095 91.9029 17.13C91.9979 17.1625 92.1067 17.1787 92.2292 17.1787ZM93.3504 19.3125C93.3504 19.2275 93.3254 19.16 93.2754 19.11C93.2279 19.0575 93.1629 19.0175 93.0804 18.99C92.9979 18.96 92.9017 18.9387 92.7917 18.9262C92.6817 18.9112 92.5642 18.9012 92.4392 18.8962C92.3167 18.8887 92.1904 18.8825 92.0604 18.8775C91.9329 18.87 91.8092 18.8575 91.6892 18.84C91.5692 18.9025 91.4704 18.9775 91.3929 19.065C91.3179 19.1525 91.2804 19.2538 91.2804 19.3688C91.2804 19.4438 91.2992 19.5138 91.3367 19.5788C91.3767 19.6438 91.4367 19.7 91.5167 19.7475C91.5992 19.795 91.7029 19.8325 91.8279 19.86C91.9554 19.8875 92.1079 19.9013 92.2854 19.9013C92.6404 19.9013 92.9067 19.8463 93.0842 19.7363C93.2617 19.6263 93.3504 19.485 93.3504 19.3125ZM94.1604 15.4387V15.7387C94.1604 15.8387 94.1004 15.9 93.9804 15.9225L93.5979 15.9862C93.6629 16.1312 93.6954 16.2925 93.6954 16.47C93.6954 16.6575 93.6579 16.8275 93.5829 16.98C93.5104 17.1325 93.4092 17.2625 93.2792 17.37C93.1492 17.4775 92.9942 17.56 92.8142 17.6175C92.6342 17.675 92.4392 17.7037 92.2292 17.7037C92.1492 17.7037 92.0704 17.7 91.9929 17.6925C91.9179 17.6825 91.8442 17.67 91.7717 17.655C91.6992 17.6975 91.6454 17.7425 91.6104 17.79C91.5754 17.8375 91.5579 17.8862 91.5579 17.9362C91.5579 18.0187 91.5942 18.08 91.6667 18.12C91.7392 18.16 91.8342 18.1887 91.9517 18.2062C92.0717 18.2237 92.2079 18.235 92.3604 18.24C92.5129 18.245 92.6679 18.2537 92.8254 18.2662C92.9829 18.2787 93.1379 18.3 93.2904 18.33C93.4429 18.3575 93.5779 18.405 93.6954 18.4725C93.8154 18.5375 93.9117 18.6262 93.9842 18.7387C94.0567 18.8512 94.0929 18.9975 94.0929 19.1775C94.0929 19.3425 94.0517 19.5038 93.9692 19.6613C93.8867 19.8188 93.7667 19.9588 93.6092 20.0813C93.4542 20.2038 93.2642 20.3013 93.0392 20.3738C92.8142 20.4488 92.5579 20.4863 92.2704 20.4863C91.9854 20.4863 91.7367 20.4588 91.5242 20.4038C91.3142 20.3488 91.1379 20.2738 90.9954 20.1788C90.8554 20.0863 90.7504 19.9788 90.6804 19.8563C90.6129 19.7338 90.5792 19.6063 90.5792 19.4738C90.5792 19.2938 90.6354 19.14 90.7479 19.0125C90.8629 18.885 91.0179 18.785 91.2129 18.7125C91.1079 18.6625 91.0229 18.5937 90.9579 18.5062C90.8954 18.4187 90.8642 18.3037 90.8642 18.1613C90.8642 18.0487 90.9054 17.9312 90.9879 17.8087C91.0704 17.6862 91.1942 17.5825 91.3592 17.4975C91.1692 17.3925 91.0192 17.2537 90.9092 17.0812C90.7992 16.9062 90.7442 16.7025 90.7442 16.47C90.7442 16.28 90.7804 16.1087 90.8529 15.9562C90.9279 15.8037 91.0317 15.6737 91.1642 15.5662C91.2967 15.4587 91.4529 15.3762 91.6329 15.3187C91.8154 15.2612 92.0142 15.2325 92.2292 15.2325C92.5592 15.2325 92.8467 15.3012 93.0917 15.4387H94.1604Z" fill="white"/>
<rect x="10.5" y="9.5" width="16.5" height="16.5" rx="8.25" fill="white"/>
<path d="M16.1826 15.3624C16.1359 14.7869 16.7298 14.3768 17.2514 14.6241L21.9466 16.8503C22.4683 17.0976 22.5265 17.817 22.0515 18.1451L17.776 21.0981C17.301 21.4262 16.6489 21.117 16.6022 20.5416L16.1826 15.3624Z" fill="#1F54AE"/>
</g>
<defs>
<filter id="filter0_d_390_2066" x="0.75" y="0.5" width="123" height="36" filterUnits="userSpaceOnUse" color-interpolation-filters="sRGB">
<feFlood flood-opacity="0" result="BackgroundImageFix"/>
<feColorMatrix in="SourceAlpha" type="matrix" values="0 0 0 0 0 0 0 0 0 0 0 0 0 0 0 0 0 0 127 0" result="hardAlpha"/>
<feMorphology radius="0.75" operator="dilate" in="SourceAlpha" result="effect1_dropShadow_390_2066"/>
<feOffset dy="0.75"/>
<feGaussianBlur stdDeviation="3.75"/>
<feComposite in2="hardAlpha" operator="out"/>
<feColorMatrix type="matrix" values="0 0 0 0 0 0 0 0 0 0 0 0 0 0 0 0 0 0 0.25 0"/>
<feBlend mode="normal" in2="BackgroundImageFix" result="effect1_dropShadow_390_2066"/>
<feBlend mode="normal" in="SourceGraphic" in2="effect1_dropShadow_390_2066" result="shape"/>
</filter>
<linearGradient id="paint0_linear_390_2066" x1="9" y1="17.75" x2="115.5" y2="17.75" gradientUnits="userSpaceOnUse">
<stop stop-color="#2762BF"/>
<stop offset="1" stop-color="#0A2F82"/>
</linearGradient>
</defs>
</svg>
