<svg width="48" height="49" viewBox="0 0 48 49" fill="none" xmlns="http://www.w3.org/2000/svg">
<g clip-path="url(#clip0_384_1316)">
<path d="M34 20.578C26.282 20.578 20 26.858 20 34.578C20 42.254 26.282 48.5 34 48.5C41.718 48.5 48 42.22 48 34.5C48 26.824 41.718 20.578 34 20.578ZM34 44.5C28.486 44.5 24 40.048 24 34.578C24 29.064 28.486 24.578 34 24.578C39.514 24.578 44 29.03 44 34.5C44 40.014 39.514 44.5 34 44.5ZM37.414 35.086C38.196 35.868 38.196 37.132 37.414 37.914C37.024 38.304 36.512 38.5 36 38.5C35.488 38.5 34.976 38.304 34.586 37.914L32.586 35.914C32.21 35.538 32 35.03 32 34.5V30.5C32 29.396 32.894 28.5 34 28.5C35.106 28.5 36 29.396 36 30.5V33.672L37.414 35.086ZM48 14.5V18.5C48 19.604 47.106 20.5 46 20.5C44.894 20.5 44 19.604 44 18.5V14.5C44 11.192 41.308 8.5 38 8.5H10C6.692 8.5 4 11.192 4 14.5V16.5H22C23.104 16.5 24 17.396 24 18.5C24 19.604 23.104 20.5 22 20.5H4V38.5C4 41.808 6.692 44.5 10 44.5H18C19.104 44.5 20 45.396 20 46.5C20 47.604 19.104 48.5 18 48.5H10C4.486 48.5 0 44.014 0 38.5V14.5C0 8.986 4.486 4.5 10 4.5H12V2.5C12 1.396 12.896 0.5 14 0.5C15.104 0.5 16 1.396 16 2.5V4.5H32V2.5C32 1.396 32.894 0.5 34 0.5C35.106 0.5 36 1.396 36 2.5V4.5H38C43.514 4.5 48 8.986 48 14.5Z" fill="#235BB7"/>
</g>
<defs>
<clipPath id="clip0_384_1316">
<rect width="48" height="48" fill="white" transform="translate(0 0.5)"/>
</clipPath>
</defs>
</svg>
