<svg width="101" height="73" viewBox="0 0 101 73" fill="none" xmlns="http://www.w3.org/2000/svg">
<path d="M22.2129 33.0658H20.259V26.734H22.2995C22.9137 26.734 23.4393 26.8607 23.8763 27.1143C24.3132 27.3657 24.6482 27.7274 24.8811 28.1994C25.114 28.6694 25.2304 29.2321 25.2304 29.8875C25.2304 30.5471 25.113 31.1149 24.878 31.5911C24.643 32.0651 24.3009 32.4299 23.8515 32.6855C23.4022 32.939 22.856 33.0658 22.2129 33.0658ZM21.0257 32.3856H22.1635C22.687 32.3856 23.1209 32.2846 23.4651 32.0826C23.8093 31.8806 24.0659 31.5931 24.2349 31.22C24.4039 30.847 24.4884 30.4028 24.4884 29.8875C24.4884 29.3764 24.405 28.9363 24.238 28.5674C24.0711 28.1964 23.8217 27.9119 23.4898 27.714C23.158 27.5141 22.7447 27.4142 22.25 27.4142H21.0257V32.3856ZM26.5918 33.0658V28.3169H27.3214V33.0658H26.5918ZM26.9628 27.5255C26.8206 27.5255 26.6979 27.477 26.5949 27.3801C26.4939 27.2833 26.4434 27.1668 26.4434 27.0308C26.4434 26.8947 26.4939 26.7783 26.5949 26.6814C26.6979 26.5845 26.8206 26.5361 26.9628 26.5361C27.105 26.5361 27.2266 26.5845 27.3276 26.6814C27.4307 26.7783 27.4822 26.8947 27.4822 27.0308C27.4822 27.1668 27.4307 27.2833 27.3276 27.3801C27.2266 27.477 27.105 27.5255 26.9628 27.5255ZM30.7488 34.9456C30.3964 34.9456 30.0934 34.9002 29.8398 34.8095C29.5863 34.7209 29.3751 34.6034 29.206 34.4571C29.0391 34.3128 28.9061 34.1582 28.8072 33.9933L29.3885 33.5852C29.4544 33.6718 29.5379 33.7707 29.6389 33.882C29.7399 33.9954 29.878 34.0933 30.0532 34.1757C30.2304 34.2602 30.4623 34.3025 30.7488 34.3025C31.1322 34.3025 31.4486 34.2097 31.698 34.0242C31.9474 33.8387 32.0721 33.5481 32.0721 33.1524V32.1878H32.0102C31.9566 32.2743 31.8804 32.3815 31.7814 32.5093C31.6846 32.635 31.5444 32.7473 31.361 32.8463C31.1796 32.9432 30.9343 32.9916 30.6251 32.9916C30.2418 32.9916 29.8976 32.9009 29.5925 32.7195C29.2895 32.5381 29.0494 32.2743 28.8721 31.928C28.6969 31.5818 28.6093 31.1613 28.6093 30.6666C28.6093 30.1802 28.6949 29.7566 28.866 29.3959C29.037 29.0332 29.2751 28.7529 29.5801 28.555C29.8852 28.3551 30.2376 28.2551 30.6375 28.2551C30.9467 28.2551 31.1919 28.3066 31.3733 28.4097C31.5568 28.5107 31.6969 28.6261 31.7938 28.756C31.8927 28.8837 31.969 28.9889 32.0226 29.0713H32.0968V28.3169H32.8017V33.2018C32.8017 33.6099 32.7089 33.9418 32.5234 34.1974C32.34 34.455 32.0927 34.6436 31.7814 34.7631C31.4723 34.8848 31.1281 34.9456 30.7488 34.9456ZM30.7241 32.3362C31.0168 32.3362 31.2641 32.2692 31.4661 32.1352C31.6681 32.0012 31.8216 31.8085 31.9267 31.557C32.0319 31.3056 32.0844 31.0047 32.0844 30.6543C32.0844 30.3121 32.0329 30.0102 31.9298 29.7484C31.8268 29.4866 31.6743 29.2815 31.4723 29.1331C31.2703 28.9847 31.0209 28.9105 30.7241 28.9105C30.4149 28.9105 30.1573 28.9889 29.9511 29.1455C29.7471 29.3022 29.5935 29.5124 29.4905 29.7762C29.3895 30.04 29.339 30.3327 29.339 30.6543C29.339 30.984 29.3905 31.2757 29.4936 31.5292C29.5987 31.7807 29.7533 31.9785 29.9573 32.1228C30.1634 32.265 30.419 32.3362 30.7241 32.3362ZM34.3114 33.0658V28.3169H35.0411V33.0658H34.3114ZM34.6824 27.5255C34.5402 27.5255 34.4176 27.477 34.3145 27.3801C34.2135 27.2833 34.163 27.1668 34.163 27.0308C34.163 26.8947 34.2135 26.7783 34.3145 26.6814C34.4176 26.5845 34.5402 26.5361 34.6824 26.5361C34.8247 26.5361 34.9463 26.5845 35.0473 26.6814C35.1503 26.7783 35.2019 26.8947 35.2019 27.0308C35.2019 27.1668 35.1503 27.2833 35.0473 27.3801C34.9463 27.477 34.8247 27.5255 34.6824 27.5255ZM38.6169 28.3169V28.9353H36.1559V28.3169H38.6169ZM36.8731 27.1792H37.6028V31.7054C37.6028 31.9116 37.6327 32.0661 37.6924 32.1692C37.7543 32.2702 37.8326 32.3382 37.9274 32.3733C38.0243 32.4062 38.1263 32.4227 38.2335 32.4227C38.3139 32.4227 38.3798 32.4186 38.4314 32.4104C38.4829 32.4 38.5241 32.3918 38.555 32.3856L38.7034 33.0411C38.654 33.0596 38.5849 33.0782 38.4963 33.0967C38.4077 33.1173 38.2953 33.1276 38.1593 33.1276C37.9532 33.1276 37.7512 33.0833 37.5533 32.9947C37.3575 32.9061 37.1947 32.7711 37.0648 32.5897C36.937 32.4083 36.8731 32.1795 36.8731 31.9033V27.1792ZM41.286 33.1771C40.9851 33.1771 40.712 33.1204 40.4667 33.0071C40.2214 32.8916 40.0266 32.7257 39.8824 32.5093C39.7381 32.2908 39.6659 32.027 39.6659 31.7178C39.6659 31.4457 39.7195 31.2252 39.8267 31.0562C39.9339 30.8851 40.0771 30.7511 40.2565 30.6543C40.4358 30.5574 40.6336 30.4853 40.8501 30.4378C41.0685 30.3884 41.2881 30.3492 41.5086 30.3204C41.7972 30.2833 42.0311 30.2554 42.2104 30.2369C42.3918 30.2163 42.5237 30.1823 42.6062 30.1349C42.6907 30.0875 42.7329 30.005 42.7329 29.8875V29.8628C42.7329 29.5577 42.6494 29.3207 42.4825 29.1517C42.3176 28.9827 42.0672 28.8982 41.7312 28.8982C41.3829 28.8982 41.1098 28.9744 40.9119 29.127C40.714 29.2795 40.5749 29.4423 40.4945 29.6154L39.802 29.3681C39.9256 29.0796 40.0905 28.8549 40.2966 28.6941C40.5048 28.5313 40.7315 28.4179 40.9768 28.354C41.2242 28.2881 41.4674 28.2551 41.7065 28.2551C41.859 28.2551 42.0342 28.2736 42.2321 28.3107C42.432 28.3458 42.6247 28.419 42.8102 28.5303C42.9978 28.6416 43.1534 28.8095 43.2771 29.0342C43.4007 29.2589 43.4626 29.5598 43.4626 29.937V33.0658H42.7329V32.4227H42.6958C42.6463 32.5258 42.5639 32.636 42.4485 32.7535C42.3331 32.871 42.1795 32.971 41.9878 33.0534C41.7961 33.1359 41.5622 33.1771 41.286 33.1771ZM41.3973 32.5217C41.6859 32.5217 41.9291 32.465 42.1269 32.3516C42.3269 32.2382 42.4773 32.0919 42.5783 31.9126C42.6814 31.7333 42.7329 31.5447 42.7329 31.3468V30.679C42.702 30.7161 42.634 30.7501 42.5289 30.781C42.4258 30.8099 42.3063 30.8356 42.1702 30.8583C42.0362 30.8789 41.9054 30.8975 41.7776 30.914C41.6518 30.9284 41.5498 30.9408 41.4715 30.9511C41.2819 30.9758 41.1046 31.016 40.9397 31.0716C40.7769 31.1252 40.645 31.2066 40.544 31.3159C40.4451 31.4231 40.3956 31.5694 40.3956 31.7549C40.3956 32.0084 40.4894 32.2001 40.6769 32.33C40.8666 32.4578 41.1067 32.5217 41.3973 32.5217ZM45.6981 26.734V33.0658H44.9684V26.734H45.6981ZM55.0254 28.7127H54.2587C54.2133 28.4921 54.134 28.2984 54.0206 28.1314C53.9093 27.9645 53.7733 27.8243 53.6125 27.711C53.4538 27.5955 53.2776 27.509 53.0838 27.4513C52.8901 27.3935 52.6881 27.3647 52.4779 27.3647C52.0945 27.3647 51.7472 27.4616 51.4359 27.6553C51.1268 27.8491 50.8805 28.1345 50.697 28.5117C50.5157 28.8889 50.425 29.3516 50.425 29.8999C50.425 30.4481 50.5157 30.9109 50.697 31.2881C50.8805 31.6653 51.1268 31.9507 51.4359 32.1445C51.7472 32.3382 52.0945 32.4351 52.4779 32.4351C52.6881 32.4351 52.8901 32.4062 53.0838 32.3485C53.2776 32.2908 53.4538 32.2053 53.6125 32.0919C53.7733 31.9765 53.9093 31.8353 54.0206 31.6683C54.134 31.4993 54.2133 31.3056 54.2587 31.0871H55.0254C54.9677 31.4107 54.8626 31.7003 54.7101 31.9559C54.5575 32.2115 54.3679 32.4289 54.1412 32.6082C53.9145 32.7855 53.6599 32.9205 53.3775 33.0132C53.0972 33.106 52.7973 33.1524 52.4779 33.1524C51.9378 33.1524 51.4576 33.0205 51.0371 32.7566C50.6166 32.4928 50.2858 32.1177 50.0447 31.6312C49.8035 31.1448 49.683 30.5677 49.683 29.8999C49.683 29.2321 49.8035 28.655 50.0447 28.1685C50.2858 27.6821 50.6166 27.307 51.0371 27.0431C51.4576 26.7793 51.9378 26.6474 52.4779 26.6474C52.7973 26.6474 53.0972 26.6938 53.3775 26.7865C53.6599 26.8793 53.9145 27.0153 54.1412 27.1946C54.3679 27.3719 54.5575 27.5883 54.7101 27.8439C54.8626 28.0974 54.9677 28.387 55.0254 28.7127ZM57.7371 33.1771C57.4361 33.1771 57.163 33.1204 56.9178 33.0071C56.6725 32.8916 56.4777 32.7257 56.3334 32.5093C56.1892 32.2908 56.117 32.027 56.117 31.7178C56.117 31.4457 56.1706 31.2252 56.2778 31.0562C56.385 30.8851 56.5282 30.7511 56.7075 30.6543C56.8868 30.5574 57.0847 30.4853 57.3011 30.4378C57.5196 30.3884 57.7391 30.3492 57.9597 30.3204C58.2482 30.2833 58.4822 30.2554 58.6615 30.2369C58.8429 30.2163 58.9748 30.1823 59.0572 30.1349C59.1417 30.0875 59.184 30.005 59.184 29.8875V29.8628C59.184 29.5577 59.1005 29.3207 58.9336 29.1517C58.7687 28.9827 58.5182 28.8982 58.1823 28.8982C57.8339 28.8982 57.5608 28.9744 57.363 29.127C57.1651 29.2795 57.026 29.4423 56.9456 29.6154L56.253 29.3681C56.3767 29.0796 56.5416 28.8549 56.7477 28.6941C56.9559 28.5313 57.1826 28.4179 57.4279 28.354C57.6752 28.2881 57.9184 28.2551 58.1575 28.2551C58.3101 28.2551 58.4853 28.2736 58.6831 28.3107C58.8831 28.3458 59.0758 28.419 59.2613 28.5303C59.4488 28.6416 59.6045 28.8095 59.7281 29.0342C59.8518 29.2589 59.9136 29.5598 59.9136 29.937V33.0658H59.184V32.4227H59.1469C59.0974 32.5258 59.015 32.636 58.8995 32.7535C58.7841 32.871 58.6306 32.971 58.4389 33.0534C58.2472 33.1359 58.0133 33.1771 57.7371 33.1771ZM57.8484 32.5217C58.1369 32.5217 58.3801 32.465 58.578 32.3516C58.7779 32.2382 58.9284 32.0919 59.0294 31.9126C59.1325 31.7333 59.184 31.5447 59.184 31.3468V30.679C59.1531 30.7161 59.0851 30.7501 58.9799 30.781C58.8769 30.8099 58.7573 30.8356 58.6213 30.8583C58.4873 30.8789 58.3564 30.8975 58.2286 30.914C58.1029 30.9284 58.0009 30.9408 57.9226 30.9511C57.7329 30.9758 57.5557 31.016 57.3908 31.0716C57.228 31.1252 57.0961 31.2066 56.9951 31.3159C56.8961 31.4231 56.8467 31.5694 56.8467 31.7549C56.8467 32.0084 56.9404 32.2001 57.128 32.33C57.3176 32.4578 57.5577 32.5217 57.8484 32.5217ZM61.4195 33.0658V28.3169H62.1244V29.0342H62.1739C62.2605 28.7992 62.4171 28.6086 62.6438 28.4622C62.8706 28.3159 63.1261 28.2427 63.4106 28.2427C63.4642 28.2427 63.5311 28.2438 63.6115 28.2458C63.6919 28.2479 63.7527 28.251 63.7939 28.2551V28.9971C63.7692 28.9909 63.7125 28.9816 63.6239 28.9693C63.5373 28.9549 63.4456 28.9476 63.3487 28.9476C63.1179 28.9476 62.9118 28.9961 62.7304 29.093C62.5511 29.1878 62.4089 29.3197 62.3037 29.4887C62.2007 29.6556 62.1492 29.8463 62.1492 30.0607V33.0658H61.4195ZM66.6795 33.1647C66.2219 33.1647 65.8272 33.0637 65.4954 32.8617C65.1656 32.6577 64.911 32.3733 64.7317 32.0084C64.5545 31.6415 64.4658 31.2149 64.4658 30.7285C64.4658 30.242 64.5545 29.8133 64.7317 29.4423C64.911 29.0692 65.1604 28.7786 65.4799 28.5705C65.8014 28.3602 66.1766 28.2551 66.6053 28.2551C66.8526 28.2551 67.0969 28.2963 67.338 28.3788C67.5792 28.4612 67.7987 28.5952 67.9966 28.7807C68.1944 28.9641 68.3521 29.2073 68.4696 29.5103C68.5871 29.8133 68.6458 30.1864 68.6458 30.6295V30.9387H64.9852V30.308H67.9038C67.9038 30.04 67.8502 29.801 67.743 29.5907C67.6379 29.3805 67.4875 29.2146 67.2916 29.093C67.0979 28.9713 66.8691 28.9105 66.6053 28.9105C66.3147 28.9105 66.0632 28.9827 65.8509 29.127C65.6407 29.2692 65.4789 29.4547 65.3655 29.6835C65.2522 29.9123 65.1955 30.1575 65.1955 30.4193V30.8398C65.1955 31.1984 65.2573 31.5024 65.381 31.7518C65.5067 31.9992 65.6809 32.1878 65.9035 32.3176C66.1261 32.4454 66.3847 32.5093 66.6795 32.5093C66.8712 32.5093 67.0443 32.4825 67.1989 32.4289C67.3555 32.3733 67.4905 32.2908 67.6039 32.1816C67.7173 32.0703 67.8049 31.9322 67.8667 31.7673L68.5716 31.9651C68.4974 32.2042 68.3727 32.4145 68.1975 32.5959C68.0223 32.7752 67.8059 32.9153 67.5483 33.0163C67.2906 33.1153 67.001 33.1647 66.6795 33.1647ZM71.9209 33.1647C71.4634 33.1647 71.0687 33.0637 70.7368 32.8617C70.407 32.6577 70.1525 32.3733 69.9732 32.0084C69.7959 31.6415 69.7073 31.2149 69.7073 30.7285C69.7073 30.242 69.7959 29.8133 69.9732 29.4423C70.1525 29.0692 70.4019 28.7786 70.7213 28.5705C71.0429 28.3602 71.418 28.2551 71.8467 28.2551C72.0941 28.2551 72.3383 28.2963 72.5795 28.3788C72.8206 28.4612 73.0401 28.5952 73.238 28.7807C73.4359 28.9641 73.5935 29.2073 73.711 29.5103C73.8285 29.8133 73.8873 30.1864 73.8873 30.6295V30.9387H70.2267V30.308H73.1452C73.1452 30.04 73.0917 29.801 72.9845 29.5907C72.8794 29.3805 72.7289 29.2146 72.5331 29.093C72.3393 28.9713 72.1106 28.9105 71.8467 28.9105C71.5561 28.9105 71.3047 28.9827 71.0924 29.127C70.8821 29.2692 70.7203 29.4547 70.607 29.6835C70.4936 29.9123 70.4369 30.1575 70.4369 30.4193V30.8398C70.4369 31.1984 70.4987 31.5024 70.6224 31.7518C70.7481 31.9992 70.9223 32.1878 71.1449 32.3176C71.3675 32.4454 71.6262 32.5093 71.9209 32.5093C72.1126 32.5093 72.2858 32.4825 72.4403 32.4289C72.597 32.3733 72.732 32.2908 72.8454 32.1816C72.9587 32.0703 73.0463 31.9322 73.1081 31.7673L73.8131 31.9651C73.7389 32.2042 73.6142 32.4145 73.439 32.5959C73.2638 32.7752 73.0473 32.9153 72.7897 33.0163C72.5321 33.1153 72.2425 33.1647 71.9209 33.1647ZM75.1713 33.0658V28.3169H75.8762V29.0342H75.9257C76.0122 28.7992 76.1689 28.6086 76.3956 28.4622C76.6223 28.3159 76.8779 28.2427 77.1624 28.2427C77.216 28.2427 77.2829 28.2438 77.3633 28.2458C77.4437 28.2479 77.5045 28.251 77.5457 28.2551V28.9971C77.521 28.9909 77.4643 28.9816 77.3757 28.9693C77.2891 28.9549 77.1974 28.9476 77.1005 28.9476C76.8697 28.9476 76.6636 28.9961 76.4822 29.093C76.3029 29.1878 76.1606 29.3197 76.0555 29.4887C75.9525 29.6556 75.9009 29.8463 75.9009 30.0607V33.0658H75.1713ZM81.9485 29.3805L81.2931 29.566C81.2519 29.4567 81.1911 29.3506 81.1107 29.2475C81.0324 29.1424 80.9252 29.0559 80.7892 28.9878C80.6531 28.9198 80.4789 28.8858 80.2667 28.8858C79.976 28.8858 79.7338 28.9528 79.5401 29.0868C79.3484 29.2187 79.2526 29.3867 79.2526 29.5907C79.2526 29.7721 79.3185 29.9153 79.4504 30.0205C79.5824 30.1256 79.7885 30.2132 80.0688 30.2833L80.7737 30.4564C81.1983 30.5595 81.5147 30.7171 81.7228 30.9294C81.931 31.1397 82.0351 31.4107 82.0351 31.7425C82.0351 32.0146 81.9568 32.2578 81.8001 32.4722C81.6456 32.6865 81.4291 32.8556 81.1509 32.9792C80.8726 33.1029 80.549 33.1647 80.1801 33.1647C79.6957 33.1647 79.2948 33.0596 78.9774 32.8494C78.66 32.6391 78.459 32.332 78.3745 31.928L79.0671 31.7549C79.133 32.0105 79.2577 32.2022 79.4412 32.33C79.6267 32.4578 79.8689 32.5217 80.1677 32.5217C80.5078 32.5217 80.7778 32.4495 80.9777 32.3052C81.1797 32.1589 81.2807 31.9837 81.2807 31.7796C81.2807 31.6148 81.223 31.4767 81.1076 31.3654C80.9922 31.252 80.8149 31.1675 80.5758 31.1118L79.7843 30.9263C79.3494 30.8233 79.03 30.6635 78.8259 30.4471C78.6239 30.2286 78.5229 29.9555 78.5229 29.6278C78.5229 29.3599 78.5982 29.1228 78.7486 28.9167C78.9011 28.7106 79.1083 28.5488 79.3701 28.4313C79.6339 28.3138 79.9327 28.2551 80.2667 28.2551C80.7366 28.2551 81.1055 28.3582 81.3735 28.5643C81.6435 28.7704 81.8352 29.0425 81.9485 29.3805ZM32.2978 44.0658H31.494L33.8189 37.734H34.6104L36.9354 44.0658H36.1315L34.2394 38.7357H34.1899L32.2978 44.0658ZM32.5946 41.5924H35.8347V42.2726H32.5946V41.5924ZM39.926 44.1647C39.4808 44.1647 39.0975 44.0596 38.7759 43.8494C38.4544 43.6391 38.207 43.3496 38.0339 42.9806C37.8608 42.6117 37.7742 42.1902 37.7742 41.7161C37.7742 41.2338 37.8628 40.8082 38.0401 40.4392C38.2194 40.0682 38.4688 39.7786 38.7883 39.5705C39.1098 39.3602 39.4849 39.2551 39.9137 39.2551C40.2476 39.2551 40.5485 39.3169 40.8164 39.4406C41.0844 39.5643 41.3039 39.7374 41.475 39.96C41.646 40.1826 41.7522 40.4423 41.7934 40.7391H41.0638C41.0081 40.5227 40.8845 40.331 40.6928 40.1641C40.5031 39.995 40.2476 39.9105 39.926 39.9105C39.6416 39.9105 39.3922 39.9847 39.1778 40.1331C38.9655 40.2795 38.7996 40.4866 38.6801 40.7546C38.5626 41.0205 38.5038 41.3327 38.5038 41.6914C38.5038 42.0582 38.5616 42.3777 38.677 42.6498C38.7945 42.9219 38.9594 43.1331 39.1717 43.2836C39.386 43.4341 39.6375 43.5093 39.926 43.5093C40.1157 43.5093 40.2878 43.4763 40.4423 43.4104C40.5969 43.3444 40.7278 43.2496 40.835 43.1259C40.9422 43.0022 41.0184 42.8538 41.0638 42.6807H41.7934C41.7522 42.961 41.6502 43.2135 41.4873 43.4382C41.3266 43.6608 41.1132 43.838 40.8474 43.97C40.5835 44.0998 40.2764 44.1647 39.926 44.1647ZM44.4316 44.1771C44.1307 44.1771 43.8576 44.1204 43.6123 44.0071C43.3671 43.8916 43.1723 43.7257 43.028 43.5093C42.8837 43.2908 42.8116 43.027 42.8116 42.7178C42.8116 42.4457 42.8652 42.2252 42.9724 42.0562C43.0795 41.8851 43.2228 41.7511 43.4021 41.6543C43.5814 41.5574 43.7793 41.4853 43.9957 41.4378C44.2142 41.3884 44.4337 41.3492 44.6542 41.3204C44.9428 41.2833 45.1767 41.2554 45.3561 41.2369C45.5374 41.2163 45.6694 41.1823 45.7518 41.1349C45.8363 41.0875 45.8786 41.005 45.8786 40.8875V40.8628C45.8786 40.5577 45.7951 40.3207 45.6281 40.1517C45.4632 39.9827 45.2128 39.8982 44.8768 39.8982C44.5285 39.8982 44.2554 39.9744 44.0575 40.127C43.8597 40.2795 43.7205 40.4423 43.6402 40.6154L42.9476 40.3681C43.0713 40.0796 43.2362 39.8549 43.4423 39.6941C43.6505 39.5313 43.8772 39.4179 44.1225 39.354C44.3698 39.2881 44.613 39.2551 44.8521 39.2551C45.0046 39.2551 45.1798 39.2736 45.3777 39.3107C45.5776 39.3458 45.7703 39.419 45.9559 39.5303C46.1434 39.6416 46.299 39.8095 46.4227 40.0342C46.5464 40.2589 46.6082 40.5598 46.6082 40.937V44.0658H45.8786V43.4227H45.8415C45.792 43.5258 45.7095 43.636 45.5941 43.7535C45.4787 43.871 45.3251 43.971 45.1335 44.0534C44.9418 44.1359 44.7078 44.1771 44.4316 44.1771ZM44.5429 43.5217C44.8315 43.5217 45.0747 43.465 45.2726 43.3516C45.4725 43.2382 45.623 43.0919 45.724 42.9126C45.827 42.7333 45.8786 42.5447 45.8786 42.3468V41.679C45.8476 41.7161 45.7796 41.7501 45.6745 41.781C45.5714 41.8099 45.4519 41.8356 45.3159 41.8583C45.1819 41.8789 45.051 41.8975 44.9232 41.914C44.7975 41.9284 44.6955 41.9408 44.6171 41.9511C44.4275 41.9758 44.2503 42.016 44.0854 42.0716C43.9225 42.1252 43.7906 42.2066 43.6896 42.3159C43.5907 42.4231 43.5412 42.5694 43.5412 42.7549C43.5412 43.0084 43.635 43.2001 43.8226 43.33C44.0122 43.4578 44.2523 43.5217 44.5429 43.5217ZM49.9073 44.1647C49.5115 44.1647 49.1622 44.0648 48.8592 43.8648C48.5562 43.6628 48.3192 43.3784 48.1481 43.0115C47.977 42.6426 47.8915 42.2066 47.8915 41.7037C47.8915 41.2049 47.977 40.7721 48.1481 40.4052C48.3192 40.0383 48.5572 39.7549 48.8623 39.555C49.1673 39.3551 49.5198 39.2551 49.9196 39.2551C50.2288 39.2551 50.4731 39.3066 50.6524 39.4097C50.8338 39.5107 50.9718 39.6261 51.0667 39.756C51.1635 39.8837 51.2388 39.9889 51.2924 40.0713H51.3542V37.734H52.0838V44.0658H51.3789V43.3362H51.2924C51.2388 43.4227 51.1625 43.532 51.0636 43.6639C50.9646 43.7937 50.8234 43.9102 50.64 44.0132C50.4566 44.1142 50.2123 44.1647 49.9073 44.1647ZM50.0062 43.5093C50.2989 43.5093 50.5462 43.433 50.7482 43.2805C50.9502 43.1259 51.1038 42.9126 51.2089 42.6405C51.314 42.3664 51.3666 42.05 51.3666 41.6914C51.3666 41.3368 51.315 41.0266 51.212 40.7608C51.1089 40.4928 50.9564 40.2846 50.7544 40.1362C50.5524 39.9858 50.303 39.9105 50.0062 39.9105C49.697 39.9105 49.4394 39.9899 49.2333 40.1486C49.0292 40.3052 48.8757 40.5186 48.7726 40.7886C48.6716 41.0565 48.6211 41.3575 48.6211 41.6914C48.6211 42.0294 48.6726 42.3365 48.7757 42.6127C48.8808 42.8868 49.0354 43.1053 49.2395 43.2681C49.4456 43.4289 49.7012 43.5093 50.0062 43.5093ZM55.6867 44.1647C55.2291 44.1647 54.8344 44.0637 54.5025 43.8617C54.1728 43.6577 53.9182 43.3733 53.7389 43.0084C53.5616 42.6415 53.473 42.2149 53.473 41.7285C53.473 41.242 53.5616 40.8133 53.7389 40.4423C53.9182 40.0692 54.1676 39.7786 54.4871 39.5705C54.8086 39.3602 55.1837 39.2551 55.6125 39.2551C55.8598 39.2551 56.104 39.2963 56.3452 39.3788C56.5864 39.4612 56.8059 39.5952 57.0037 39.7807C57.2016 39.9641 57.3593 40.2073 57.4768 40.5103C57.5942 40.8133 57.653 41.1864 57.653 41.6295V41.9387H53.9924V41.308H56.911C56.911 41.04 56.8574 40.801 56.7502 40.5907C56.6451 40.3805 56.4946 40.2146 56.2988 40.093C56.1051 39.9713 55.8763 39.9105 55.6125 39.9105C55.3218 39.9105 55.0704 39.9827 54.8581 40.127C54.6478 40.2692 54.486 40.4547 54.3727 40.6835C54.2593 40.9123 54.2026 41.1575 54.2026 41.4193V41.8398C54.2026 42.1984 54.2645 42.5024 54.3881 42.7518C54.5139 42.9992 54.688 43.1878 54.9106 43.3176C55.1332 43.4454 55.3919 43.5093 55.6867 43.5093C55.8783 43.5093 56.0515 43.4825 56.2061 43.4289C56.3627 43.3733 56.4977 43.2908 56.6111 43.1816C56.7244 43.0703 56.812 42.9322 56.8739 42.7673L57.5788 42.9651C57.5046 43.2042 57.3799 43.4145 57.2047 43.5959C57.0295 43.7752 56.8131 43.9153 56.5554 44.0163C56.2978 44.1153 56.0082 44.1647 55.6867 44.1647ZM58.937 44.0658V39.3169H59.6419V40.0589H59.7038C59.8027 39.8054 59.9625 39.6086 60.183 39.4684C60.4035 39.3262 60.6684 39.2551 60.9776 39.2551C61.2909 39.2551 61.5516 39.3262 61.7598 39.4684C61.97 39.6086 62.1339 39.8054 62.2513 40.0589H62.3008C62.4224 39.8137 62.6048 39.6189 62.848 39.4746C63.0913 39.3283 63.3829 39.2551 63.723 39.2551C64.1476 39.2551 64.4949 39.388 64.7649 39.6539C65.0349 39.9178 65.1699 40.329 65.1699 40.8875V44.0658H64.4403V40.8875C64.4403 40.5371 64.3444 40.2867 64.1527 40.1362C63.9611 39.9858 63.7354 39.9105 63.4757 39.9105C63.1418 39.9105 62.8831 40.0115 62.6996 40.2135C62.5162 40.4135 62.4245 40.667 62.4245 40.9741V44.0658H61.6825V40.8133C61.6825 40.5433 61.5949 40.3259 61.4197 40.161C61.2445 39.994 61.0188 39.9105 60.7426 39.9105C60.553 39.9105 60.3757 39.961 60.2108 40.062C60.048 40.163 59.9161 40.3032 59.8151 40.4825C59.7161 40.6598 59.6667 40.8648 59.6667 41.0978V44.0658H58.937ZM66.978 45.8466C66.8543 45.8466 66.7441 45.8363 66.6472 45.8157C66.5503 45.7972 66.4833 45.7786 66.4462 45.7601L66.6317 45.117C66.809 45.1623 66.9656 45.1788 67.1017 45.1664C67.2377 45.1541 67.3583 45.0933 67.4634 44.984C67.5706 44.8769 67.6685 44.7027 67.7571 44.4615L67.8932 44.0905L66.1371 39.3169H66.9285L68.2394 43.1012H68.2889L69.5998 39.3169H70.3913L68.3755 44.7583C68.2848 45.0036 68.1724 45.2066 68.0385 45.3674C67.9045 45.5302 67.7489 45.6508 67.5716 45.7291C67.3964 45.8075 67.1986 45.8466 66.978 45.8466Z" fill="#101D3D"/>
<path d="M21.4573 51.6498C21.2117 51.6498 20.9999 51.5956 20.8219 51.4872C20.6449 51.3777 20.5083 51.2251 20.4121 51.0293C20.317 50.8324 20.2694 50.6035 20.2694 50.3425C20.2694 50.0815 20.317 49.8514 20.4121 49.6524C20.5083 49.4522 20.6422 49.2962 20.8136 49.1845C20.9861 49.0717 21.1874 49.0153 21.4175 49.0153C21.5502 49.0153 21.6812 49.0374 21.8106 49.0817C21.94 49.1259 22.0578 49.1978 22.164 49.2974C22.2702 49.3958 22.3548 49.5263 22.4178 49.6889C22.4808 49.8514 22.5124 50.0516 22.5124 50.2894V50.4553H20.5482V50.1169H22.1142C22.1142 49.9731 22.0855 49.8448 22.0279 49.732C21.9715 49.6192 21.8908 49.5302 21.7857 49.4649C21.6818 49.3997 21.559 49.367 21.4175 49.367C21.2615 49.367 21.1266 49.4057 21.0127 49.4832C20.8999 49.5595 20.813 49.659 20.7522 49.7818C20.6914 49.9045 20.661 50.0361 20.661 50.1766V50.4022C20.661 50.5947 20.6941 50.7578 20.7605 50.8916C20.828 51.0243 20.9214 51.1255 21.0409 51.1952C21.1603 51.2638 21.2991 51.2981 21.4573 51.2981C21.5601 51.2981 21.653 51.2837 21.736 51.2549C21.82 51.2251 21.8925 51.1808 21.9533 51.1222C22.0141 51.0625 22.0611 50.9884 22.0943 50.8999L22.4726 51.0061C22.4327 51.1344 22.3658 51.2472 22.2718 51.3445C22.1778 51.4407 22.0617 51.5159 21.9234 51.5701C21.7852 51.6232 21.6298 51.6498 21.4573 51.6498ZM24.94 52.5522V51.2052H24.9068C24.878 51.2516 24.8371 51.3102 24.784 51.381C24.7309 51.4507 24.6552 51.5132 24.5567 51.5685C24.4583 51.6227 24.3273 51.6498 24.1636 51.6498C23.9512 51.6498 23.7638 51.5961 23.6012 51.4888C23.4386 51.3805 23.3114 51.2278 23.2196 51.031C23.1278 50.833 23.0819 50.5991 23.0819 50.3292C23.0819 50.0616 23.1278 49.8293 23.2196 49.6325C23.3114 49.4356 23.4392 49.2835 23.6028 49.1762C23.7665 49.069 23.9556 49.0153 24.1702 49.0153C24.3361 49.0153 24.4672 49.043 24.5634 49.0983C24.6607 49.1525 24.7348 49.2144 24.7857 49.2841C24.8377 49.3527 24.878 49.4091 24.9068 49.4533H24.9532V49.0485H25.3315V52.5522H24.94ZM24.2167 51.2981C24.3737 51.2981 24.5064 51.2571 24.6148 51.1753C24.7232 51.0924 24.8056 50.9779 24.862 50.8319C24.9184 50.6848 24.9466 50.515 24.9466 50.3226C24.9466 50.1324 24.919 49.9659 24.8637 49.8232C24.8084 49.6795 24.7265 49.5678 24.6181 49.4881C24.5097 49.4074 24.3759 49.367 24.2167 49.367C24.0508 49.367 23.9125 49.4096 23.8019 49.4948C23.6924 49.5788 23.61 49.6933 23.5547 49.8382C23.5005 49.982 23.4734 50.1434 23.4734 50.3226C23.4734 50.504 23.5011 50.6688 23.5564 50.817C23.6128 50.9641 23.6957 51.0813 23.8052 51.1687C23.9158 51.2549 24.053 51.2981 24.2167 51.2981ZM27.7475 50.5548V49.0485H28.139V51.5967H27.7475V51.1653H27.7209C27.6612 51.2947 27.5683 51.4048 27.4422 51.4955C27.3161 51.5851 27.1569 51.6299 26.9644 51.6299C26.8052 51.6299 26.6636 51.595 26.5397 51.5253C26.4159 51.4546 26.3185 51.3484 26.2478 51.2068C26.177 51.0642 26.1416 50.8844 26.1416 50.6677V49.0485H26.5331V50.6411C26.5331 50.8269 26.5851 50.9751 26.689 51.0857C26.7941 51.1963 26.9279 51.2516 27.0905 51.2516C27.1878 51.2516 27.2868 51.2267 27.3875 51.177C27.4892 51.1272 27.5744 51.0509 27.6429 50.948C27.7126 50.8452 27.7475 50.7141 27.7475 50.5548ZM28.9495 51.5967V49.0485H29.341V51.5967H28.9495ZM29.1486 48.6238C29.0723 48.6238 29.0065 48.5978 28.9512 48.5458C28.897 48.4939 28.8699 48.4314 28.8699 48.3584C28.8699 48.2854 28.897 48.2229 28.9512 48.1709C29.0065 48.1189 29.0723 48.0929 29.1486 48.0929C29.2249 48.0929 29.2901 48.1189 29.3443 48.1709C29.3996 48.2229 29.4273 48.2854 29.4273 48.3584C29.4273 48.4314 29.3996 48.4939 29.3443 48.5458C29.2901 48.5978 29.2249 48.6238 29.1486 48.6238ZM30.1515 52.5522V49.0485H30.5298V49.4533H30.5762C30.605 49.4091 30.6448 49.3527 30.6957 49.2841C30.7477 49.2144 30.8218 49.1525 30.918 49.0983C31.0153 49.043 31.1469 49.0153 31.3128 49.0153C31.5274 49.0153 31.7165 49.069 31.8802 49.1762C32.0439 49.2835 32.1716 49.4356 32.2634 49.6325C32.3552 49.8293 32.4011 50.0616 32.4011 50.3292C32.4011 50.5991 32.3552 50.833 32.2634 51.031C32.1716 51.2278 32.0444 51.3805 31.8818 51.4888C31.7193 51.5961 31.5318 51.6498 31.3194 51.6498C31.1558 51.6498 31.0247 51.6227 30.9263 51.5685C30.8278 51.5132 30.7521 51.4507 30.699 51.381C30.6459 51.3102 30.605 51.2516 30.5762 51.2052H30.5431V52.5522H30.1515ZM30.5364 50.3226C30.5364 50.515 30.5646 50.6848 30.621 50.8319C30.6774 50.9779 30.7598 51.0924 30.8682 51.1753C30.9766 51.2571 31.1093 51.2981 31.2664 51.2981C31.43 51.2981 31.5666 51.2549 31.6761 51.1687C31.7867 51.0813 31.8697 50.9641 31.925 50.817C31.9814 50.6688 32.0096 50.504 32.0096 50.3226C32.0096 50.1434 31.9819 49.982 31.9266 49.8382C31.8724 49.6933 31.79 49.5788 31.6794 49.4948C31.57 49.4096 31.4323 49.367 31.2664 49.367C31.1071 49.367 30.9733 49.4074 30.8649 49.4881C30.7565 49.5678 30.6747 49.6795 30.6194 49.8232C30.5641 49.9659 30.5364 50.1324 30.5364 50.3226ZM33.0918 52.5522V49.0485H33.47V49.4533H33.5165C33.5452 49.4091 33.585 49.3527 33.6359 49.2841C33.6879 49.2144 33.762 49.1525 33.8582 49.0983C33.9555 49.043 34.0871 49.0153 34.253 49.0153C34.4676 49.0153 34.6567 49.069 34.8204 49.1762C34.9841 49.2835 35.1118 49.4356 35.2036 49.6325C35.2954 49.8293 35.3413 50.0616 35.3413 50.3292C35.3413 50.5991 35.2954 50.833 35.2036 51.031C35.1118 51.2278 34.9846 51.3805 34.8221 51.4888C34.6595 51.5961 34.472 51.6498 34.2597 51.6498C34.096 51.6498 33.9649 51.6227 33.8665 51.5685C33.7681 51.5132 33.6923 51.4507 33.6392 51.381C33.5861 51.3102 33.5452 51.2516 33.5165 51.2052H33.4833V52.5522H33.0918ZM33.4766 50.3226C33.4766 50.515 33.5048 50.6848 33.5612 50.8319C33.6176 50.9779 33.7 51.0924 33.8084 51.1753C33.9168 51.2571 34.0495 51.2981 34.2066 51.2981C34.3703 51.2981 34.5069 51.2549 34.6163 51.1687C34.7269 51.0813 34.8099 50.9641 34.8652 50.817C34.9216 50.6688 34.9498 50.504 34.9498 50.3226C34.9498 50.1434 34.9221 49.982 34.8668 49.8382C34.8127 49.6933 34.7303 49.5788 34.6197 49.4948C34.5102 49.4096 34.3725 49.367 34.2066 49.367C34.0473 49.367 33.9135 49.4074 33.8051 49.4881C33.6967 49.5678 33.6149 49.6795 33.5596 49.8232C33.5043 49.9659 33.4766 50.1324 33.4766 50.3226ZM36.032 51.5967V49.0485H36.4235V51.5967H36.032ZM36.231 48.6238C36.1547 48.6238 36.0889 48.5978 36.0336 48.5458C35.9794 48.4939 35.9523 48.4314 35.9523 48.3584C35.9523 48.2854 35.9794 48.2229 36.0336 48.1709C36.0889 48.1189 36.1547 48.0929 36.231 48.0929C36.3074 48.0929 36.3726 48.1189 36.4268 48.1709C36.4821 48.2229 36.5098 48.2854 36.5098 48.3584C36.5098 48.4314 36.4821 48.4939 36.4268 48.5458C36.3726 48.5978 36.3074 48.6238 36.231 48.6238ZM37.6255 50.0638V51.5967H37.234V49.0485H37.6123V49.4467H37.6454C37.7052 49.3173 37.7958 49.2133 37.9175 49.1348C38.0392 49.0551 38.1962 49.0153 38.3886 49.0153C38.5612 49.0153 38.7121 49.0507 38.8415 49.1215C38.9709 49.1912 39.0716 49.2974 39.1435 49.44C39.2154 49.5816 39.2513 49.7608 39.2513 49.9775V51.5967H38.8598V50.0041C38.8598 49.8039 38.8078 49.6479 38.7039 49.5362C38.5999 49.4234 38.4572 49.367 38.2758 49.367C38.1509 49.367 38.0392 49.3941 37.9407 49.4483C37.8434 49.5025 37.7665 49.5816 37.7101 49.6856C37.6537 49.7895 37.6255 49.9156 37.6255 50.0638ZM41.0887 52.6053C40.8996 52.6053 40.737 52.581 40.601 52.5323C40.465 52.4848 40.3516 52.4217 40.2609 52.3432C40.1713 52.2658 40.1 52.1828 40.0469 52.0944L40.3588 51.8754C40.3942 51.9218 40.439 51.9749 40.4932 52.0346C40.5474 52.0955 40.6215 52.148 40.7155 52.1922C40.8106 52.2376 40.935 52.2603 41.0887 52.2603C41.2944 52.2603 41.4642 52.2105 41.598 52.111C41.7319 52.0114 41.7988 51.8555 41.7988 51.6431V51.1255H41.7656C41.7368 51.172 41.6959 51.2295 41.6428 51.2981C41.5908 51.3655 41.5156 51.4258 41.4172 51.4789C41.3199 51.5309 41.1883 51.5569 41.0224 51.5569C40.8167 51.5569 40.632 51.5082 40.4683 51.4109C40.3057 51.3135 40.1769 51.172 40.0817 50.9862C39.9877 50.8004 39.9407 50.5748 39.9407 50.3093C39.9407 50.0483 39.9866 49.821 40.0784 49.6275C40.1702 49.4328 40.298 49.2824 40.4616 49.1762C40.6253 49.069 40.8144 49.0153 41.029 49.0153C41.1949 49.0153 41.3265 49.043 41.4238 49.0983C41.5223 49.1525 41.5975 49.2144 41.6495 49.2841C41.7025 49.3527 41.7435 49.4091 41.7722 49.4533H41.812V49.0485H42.1903V51.6697C42.1903 51.8887 42.1405 52.0667 42.041 52.2039C41.9425 52.3421 41.8098 52.4433 41.6428 52.5075C41.4769 52.5727 41.2922 52.6053 41.0887 52.6053ZM41.0755 51.2052C41.2325 51.2052 41.3652 51.1692 41.4736 51.0973C41.582 51.0254 41.6644 50.922 41.7208 50.7871C41.7772 50.6522 41.8054 50.4907 41.8054 50.3027C41.8054 50.1191 41.7778 49.9571 41.7225 49.8166C41.6672 49.6762 41.5853 49.5661 41.4769 49.4865C41.3685 49.4068 41.2347 49.367 41.0755 49.367C40.9096 49.367 40.7713 49.4091 40.6607 49.4931C40.5512 49.5772 40.4688 49.69 40.4135 49.8315C40.3593 49.9731 40.3322 50.1302 40.3322 50.3027C40.3322 50.4796 40.3599 50.6361 40.4152 50.7722C40.4716 50.9071 40.5545 51.0133 40.664 51.0907C40.7746 51.167 40.9118 51.2052 41.0755 51.2052ZM44.985 51.5967L44.2086 49.0485H44.6201L45.1708 50.9995H45.1974L45.7415 49.0485H46.1596L46.6971 50.9928H46.7236L47.2744 49.0485H47.6858L46.9094 51.5967H46.5246L45.9671 49.6391H45.9273L45.3699 51.5967H44.985ZM48.2969 51.5967V49.0485H48.6884V51.5967H48.2969ZM48.4959 48.6238C48.4196 48.6238 48.3538 48.5978 48.2985 48.5458C48.2443 48.4939 48.2172 48.4314 48.2172 48.3584C48.2172 48.2854 48.2443 48.2229 48.2985 48.1709C48.3538 48.1189 48.4196 48.0929 48.4959 48.0929C48.5723 48.0929 48.6375 48.1189 48.6917 48.1709C48.747 48.2229 48.7747 48.2854 48.7747 48.3584C48.7747 48.4314 48.747 48.4939 48.6917 48.5458C48.6375 48.5978 48.5723 48.6238 48.4959 48.6238ZM50.6071 49.0485V49.3803H49.2866V49.0485H50.6071ZM49.6714 48.438H50.063V50.8667C50.063 50.9773 50.079 51.0603 50.1111 51.1156C50.1442 51.1698 50.1863 51.2063 50.2371 51.2251C50.2891 51.2428 50.3439 51.2516 50.4014 51.2516C50.4445 51.2516 50.4799 51.2494 50.5076 51.245C50.5352 51.2394 50.5573 51.235 50.5739 51.2317L50.6535 51.5834C50.627 51.5934 50.59 51.6033 50.5424 51.6133C50.4948 51.6243 50.4346 51.6299 50.3616 51.6299C50.251 51.6299 50.1426 51.6061 50.0364 51.5585C49.9313 51.511 49.844 51.4385 49.7743 51.3412C49.7057 51.2439 49.6714 51.1211 49.6714 50.9729V48.438ZM51.7357 50.0638V51.5967H51.3442V48.1991H51.7357V49.4467H51.7689C51.8286 49.315 51.9182 49.2105 52.0377 49.1331C52.1582 49.0546 52.3186 49.0153 52.5188 49.0153C52.6924 49.0153 52.8445 49.0502 52.975 49.1198C53.1055 49.1884 53.2067 49.294 53.2786 49.4367C53.3516 49.5783 53.3881 49.7585 53.3881 49.9775V51.5967H52.9965V50.0041C52.9965 49.8017 52.944 49.6452 52.8389 49.5346C52.735 49.4229 52.5906 49.367 52.4059 49.367C52.2776 49.367 52.1626 49.3941 52.0609 49.4483C51.9602 49.5025 51.8806 49.5816 51.822 49.6856C51.7645 49.7895 51.7357 49.9156 51.7357 50.0638ZM56.5673 51.6498C56.3549 51.6498 56.1675 51.5961 56.0049 51.4888C55.8423 51.3805 55.7151 51.2278 55.6233 51.031C55.5315 50.833 55.4856 50.5991 55.4856 50.3292C55.4856 50.0616 55.5315 49.8293 55.6233 49.6325C55.7151 49.4356 55.8429 49.2835 56.0065 49.1762C56.1702 49.069 56.3594 49.0153 56.5739 49.0153C56.7398 49.0153 56.8709 49.043 56.9671 49.0983C57.0644 49.1525 57.1385 49.2144 57.1894 49.2841C57.2414 49.3527 57.2817 49.4091 57.3105 49.4533H57.3437V48.1991H57.7352V51.5967H57.3569V51.2052H57.3105C57.2817 51.2516 57.2408 51.3102 57.1877 51.381C57.1346 51.4507 57.0589 51.5132 56.9604 51.5685C56.862 51.6227 56.731 51.6498 56.5673 51.6498ZM56.6204 51.2981C56.7774 51.2981 56.9101 51.2571 57.0185 51.1753C57.1269 51.0924 57.2093 50.9779 57.2657 50.8319C57.3221 50.6848 57.3503 50.515 57.3503 50.3226C57.3503 50.1324 57.3227 49.9659 57.2674 49.8232C57.2121 49.6795 57.1302 49.5678 57.0218 49.4881C56.9134 49.4074 56.7796 49.367 56.6204 49.367C56.4545 49.367 56.3162 49.4096 56.2056 49.4948C56.0961 49.5788 56.0137 49.6933 55.9584 49.8382C55.9042 49.982 55.8771 50.1434 55.8771 50.3226C55.8771 50.504 55.9048 50.6688 55.9601 50.817C56.0165 50.9641 56.0994 51.0813 56.2089 51.1687C56.3195 51.2549 56.4567 51.2981 56.6204 51.2981ZM58.6 51.5967V49.0485H58.9916V51.5967H58.6ZM58.7991 48.6238C58.7228 48.6238 58.657 48.5978 58.6017 48.5458C58.5475 48.4939 58.5204 48.4314 58.5204 48.3584C58.5204 48.2854 58.5475 48.2229 58.6017 48.1709C58.657 48.1189 58.7228 48.0929 58.7991 48.0929C58.8754 48.0929 58.9407 48.1189 58.9949 48.1709C59.0502 48.2229 59.0778 48.2854 59.0778 48.3584C59.0778 48.4314 59.0502 48.4939 58.9949 48.5458C58.9407 48.5978 58.8754 48.6238 58.7991 48.6238ZM60.8306 52.6053C60.6415 52.6053 60.4789 52.581 60.3429 52.5323C60.2069 52.4848 60.0935 52.4217 60.0028 52.3432C59.9132 52.2658 59.8419 52.1828 59.7888 52.0944L60.1007 51.8754C60.1361 51.9218 60.1809 51.9749 60.2351 52.0346C60.2893 52.0955 60.3634 52.148 60.4574 52.1922C60.5525 52.2376 60.6769 52.2603 60.8306 52.2603C61.0363 52.2603 61.2061 52.2105 61.3399 52.111C61.4738 52.0114 61.5407 51.8555 61.5407 51.6431V51.1255H61.5075C61.4787 51.172 61.4378 51.2295 61.3847 51.2981C61.3327 51.3655 61.2575 51.4258 61.1591 51.4789C61.0618 51.5309 60.9302 51.5569 60.7643 51.5569C60.5586 51.5569 60.3739 51.5082 60.2102 51.4109C60.0476 51.3135 59.9188 51.172 59.8236 50.9862C59.7296 50.8004 59.6826 50.5748 59.6826 50.3093C59.6826 50.0483 59.7285 49.821 59.8203 49.6275C59.9121 49.4328 60.0399 49.2824 60.2035 49.1762C60.3672 49.069 60.5563 49.0153 60.7709 49.0153C60.9368 49.0153 61.0684 49.043 61.1657 49.0983C61.2642 49.1525 61.3394 49.2144 61.3914 49.2841C61.4444 49.3527 61.4854 49.4091 61.5141 49.4533H61.5539V49.0485H61.9322V51.6697C61.9322 51.8887 61.8824 52.0667 61.7829 52.2039C61.6844 52.3421 61.5517 52.4433 61.3847 52.5075C61.2188 52.5727 61.0341 52.6053 60.8306 52.6053ZM60.8174 51.2052C60.9744 51.2052 61.1071 51.1692 61.2155 51.0973C61.3239 51.0254 61.4063 50.922 61.4627 50.7871C61.5191 50.6522 61.5473 50.4907 61.5473 50.3027C61.5473 50.1191 61.5197 49.9571 61.4644 49.8166C61.4091 49.6762 61.3272 49.5661 61.2188 49.4865C61.1104 49.4068 60.9766 49.367 60.8174 49.367C60.6515 49.367 60.5132 49.4091 60.4026 49.4931C60.2931 49.5772 60.2107 49.69 60.1554 49.8315C60.1012 49.9731 60.0741 50.1302 60.0741 50.3027C60.0741 50.4796 60.1018 50.6361 60.1571 50.7722C60.2135 50.9071 60.2964 51.0133 60.4059 51.0907C60.5165 51.167 60.6537 51.2052 60.8174 51.2052ZM62.7423 51.5967V49.0485H63.1338V51.5967H62.7423ZM62.9414 48.6238C62.8651 48.6238 62.7992 48.5978 62.7439 48.5458C62.6898 48.4939 62.6627 48.4314 62.6627 48.3584C62.6627 48.2854 62.6898 48.2229 62.7439 48.1709C62.7992 48.1189 62.8651 48.0929 62.9414 48.0929C63.0177 48.0929 63.0829 48.1189 63.1371 48.1709C63.1924 48.2229 63.2201 48.2854 63.2201 48.3584C63.2201 48.4314 63.1924 48.4939 63.1371 48.5458C63.0829 48.5978 63.0177 48.6238 62.9414 48.6238ZM65.0525 49.0485V49.3803H63.732V49.0485H65.0525ZM64.1169 48.438H64.5084V50.8667C64.5084 50.9773 64.5244 51.0603 64.5565 51.1156C64.5897 51.1698 64.6317 51.2063 64.6826 51.2251C64.7345 51.2428 64.7893 51.2516 64.8468 51.2516C64.8899 51.2516 64.9253 51.2494 64.953 51.245C64.9806 51.2394 65.0027 51.235 65.0193 51.2317L65.099 51.5834C65.0724 51.5934 65.0354 51.6033 64.9878 51.6133C64.9403 51.6243 64.88 51.6299 64.807 51.6299C64.6964 51.6299 64.588 51.6061 64.4818 51.5585C64.3768 51.511 64.2894 51.4385 64.2197 51.3412C64.1511 51.2439 64.1169 51.1211 64.1169 50.9729V48.438ZM66.4847 51.6564C66.3233 51.6564 66.1767 51.626 66.0451 51.5652C65.9135 51.5032 65.809 51.4142 65.7316 51.2981C65.6541 51.1808 65.6154 51.0393 65.6154 50.8734C65.6154 50.7274 65.6442 50.609 65.7017 50.5184C65.7592 50.4266 65.8361 50.3547 65.9323 50.3027C66.0285 50.2507 66.1347 50.212 66.2508 50.1866C66.3681 50.16 66.4858 50.139 66.6042 50.1235C66.759 50.1036 66.8845 50.0887 66.9808 50.0787C67.0781 50.0677 67.1489 50.0494 67.1931 50.024C67.2385 49.9985 67.2611 49.9543 67.2611 49.8913V49.878C67.2611 49.7143 67.2163 49.5871 67.1268 49.4964C67.0383 49.4057 66.9039 49.3604 66.7236 49.3604C66.5367 49.3604 66.3902 49.4013 66.284 49.4832C66.1778 49.565 66.1032 49.6524 66.06 49.7453L65.6884 49.6126C65.7548 49.4577 65.8433 49.3372 65.9539 49.2509C66.0656 49.1635 66.1872 49.1027 66.3188 49.0684C66.4516 49.033 66.5821 49.0153 66.7104 49.0153C66.7922 49.0153 66.8862 49.0253 66.9924 49.0452C67.0997 49.064 67.2031 49.1033 67.3026 49.163C67.4032 49.2227 67.4867 49.3128 67.5531 49.4334C67.6195 49.5539 67.6526 49.7154 67.6526 49.9178V51.5967H67.2611V51.2516H67.2412C67.2147 51.3069 67.1704 51.3661 67.1085 51.4291C67.0466 51.4922 66.9642 51.5458 66.8613 51.59C66.7585 51.6343 66.6329 51.6564 66.4847 51.6564ZM66.5445 51.3047C66.6993 51.3047 66.8298 51.2743 66.936 51.2135C67.0433 51.1526 67.124 51.0741 67.1782 50.9779C67.2335 50.8817 67.2611 50.7805 67.2611 50.6743V50.316C67.2445 50.3359 67.208 50.3541 67.1516 50.3707C67.0963 50.3862 67.0322 50.4 66.9592 50.4122C66.8873 50.4232 66.8171 50.4332 66.7485 50.442C66.681 50.4498 66.6263 50.4564 66.5843 50.4619C66.4825 50.4752 66.3874 50.4968 66.2989 50.5266C66.2116 50.5554 66.1408 50.5991 66.0866 50.6577C66.0335 50.7152 66.007 50.7937 66.007 50.8933C66.007 51.0293 66.0573 51.1322 66.1579 51.2018C66.2597 51.2704 66.3885 51.3047 66.5445 51.3047ZM68.8522 48.1991V51.5967H68.4607V48.1991H68.8522ZM72.875 49.6192L72.5233 49.7187C72.5012 49.6601 72.4686 49.6032 72.4254 49.5479C72.3834 49.4915 72.3259 49.445 72.2529 49.4085C72.1799 49.372 72.0864 49.3538 71.9725 49.3538C71.8166 49.3538 71.6866 49.3897 71.5827 49.4616C71.4798 49.5324 71.4284 49.6225 71.4284 49.732C71.4284 49.8293 71.4638 49.9062 71.5346 49.9626C71.6053 50.019 71.7159 50.066 71.8664 50.1036L72.2446 50.1965C72.4724 50.2518 72.6422 50.3364 72.7539 50.4503C72.8656 50.5631 72.9215 50.7086 72.9215 50.8866C72.9215 51.0326 72.8794 51.1631 72.7954 51.2782C72.7124 51.3932 72.5963 51.4839 72.447 51.5502C72.2977 51.6166 72.124 51.6498 71.9261 51.6498C71.6662 51.6498 71.4511 51.5934 71.2807 51.4806C71.1104 51.3677 71.0026 51.203 70.9572 50.9862L71.3288 50.8933C71.3642 51.0304 71.4311 51.1333 71.5296 51.2018C71.6291 51.2704 71.7591 51.3047 71.9194 51.3047C72.1019 51.3047 72.2468 51.266 72.3541 51.1886C72.4625 51.11 72.5167 51.016 72.5167 50.9066C72.5167 50.8181 72.4857 50.744 72.4238 50.6842C72.3618 50.6234 72.2667 50.5781 72.1384 50.5482L71.7137 50.4487C71.4804 50.3934 71.3089 50.3077 71.1994 50.1915C71.0911 50.0743 71.0369 49.9278 71.0369 49.7519C71.0369 49.6081 71.0772 49.4809 71.158 49.3703C71.2398 49.2598 71.351 49.1729 71.4914 49.1099C71.633 49.0469 71.7934 49.0153 71.9725 49.0153C72.2247 49.0153 72.4227 49.0706 72.5664 49.1812C72.7113 49.2918 72.8142 49.4378 72.875 49.6192ZM73.9692 50.6677L73.9626 50.1832H74.0422L75.157 49.0485H75.6414L74.4536 50.2496H74.4204L73.9692 50.6677ZM73.6042 51.5967V48.1991H73.9957V51.5967H73.6042ZM75.2234 51.5967L74.228 50.3359L74.5067 50.0638L75.7211 51.5967H75.2234ZM76.2388 51.5967V49.0485H76.6303V51.5967H76.2388ZM76.4379 48.6238C76.3616 48.6238 76.2957 48.5978 76.2404 48.5458C76.1863 48.4939 76.1592 48.4314 76.1592 48.3584C76.1592 48.2854 76.1863 48.2229 76.2404 48.1709C76.2957 48.1189 76.3616 48.0929 76.4379 48.0929C76.5142 48.0929 76.5794 48.1189 76.6336 48.1709C76.6889 48.2229 76.7166 48.2854 76.7166 48.3584C76.7166 48.4314 76.6889 48.4939 76.6336 48.5458C76.5794 48.5978 76.5142 48.6238 76.4379 48.6238ZM77.8323 48.1991V51.5967H77.4408V48.1991H77.8323ZM79.0344 48.1991V51.5967H78.6429V48.1991H79.0344ZM81.6498 49.6192L81.2981 49.7187C81.276 49.6601 81.2434 49.6032 81.2003 49.5479C81.1582 49.4915 81.1007 49.445 81.0277 49.4085C80.9547 49.372 80.8613 49.3538 80.7474 49.3538C80.5914 49.3538 80.4615 49.3897 80.3575 49.4616C80.2547 49.5324 80.2032 49.6225 80.2032 49.732C80.2032 49.8293 80.2386 49.9062 80.3094 49.9626C80.3802 50.019 80.4908 50.066 80.6412 50.1036L81.0194 50.1965C81.2473 50.2518 81.417 50.3364 81.5287 50.4503C81.6404 50.5631 81.6963 50.7086 81.6963 50.8866C81.6963 51.0326 81.6543 51.1631 81.5702 51.2782C81.4873 51.3932 81.3711 51.4839 81.2218 51.5502C81.0725 51.6166 80.8989 51.6498 80.7009 51.6498C80.441 51.6498 80.2259 51.5934 80.0556 51.4806C79.8853 51.3677 79.7774 51.203 79.7321 50.9862L80.1037 50.8933C80.1391 51.0304 80.206 51.1333 80.3044 51.2018C80.404 51.2704 80.5339 51.3047 80.6943 51.3047C80.8768 51.3047 81.0217 51.266 81.1289 51.1886C81.2373 51.11 81.2915 51.016 81.2915 50.9066C81.2915 50.8181 81.2605 50.744 81.1986 50.6842C81.1367 50.6234 81.0416 50.5781 80.9133 50.5482L80.4886 50.4487C80.2552 50.3934 80.0838 50.3077 79.9743 50.1915C79.8659 50.0743 79.8117 49.9278 79.8117 49.7519C79.8117 49.6081 79.8521 49.4809 79.9328 49.3703C80.0147 49.2598 80.1258 49.1729 80.2663 49.1099C80.4078 49.0469 80.5682 49.0153 80.7474 49.0153C80.9995 49.0153 81.1975 49.0706 81.3413 49.1812C81.4862 49.2918 81.589 49.4378 81.6498 49.6192Z" fill="#101D3D"/>
<path d="M95.8906 42.0091H92.2807C90.4757 45.4598 84.7954 51.087 82.4596 52.7858C72.32 61.3858 60.5878 64.2525 58.889 64.8365C46.5198 68.5526 37.1234 66.5883 34.2036 66.2698C18.9146 63.8278 13.9775 56.5018 12.8627 55.3339C4.42187 45.6721 9.99599 32.9843 10.7392 31.2325C14.6146 23.3225 20.0294 19.1817 20.5072 18.757C22.5882 16.5486 26.3291 14.4393 27.9394 13.6607C17.2158 16.5805 8.56264 25.1806 5.32434 29.9053C2.08604 34.63 -4.07204 46.7869 3.94408 58.7315C11.9602 70.676 27.3023 71.844 33.0357 72.2156C38.7691 72.5872 48.484 72.3217 59.5792 68.7118C70.6743 65.1019 78.1065 59.8463 83.7868 55.6524C88.331 52.2974 93.7494 45.1589 95.8906 42.0091Z" fill="#101D3D"/>
<path d="M72.1605 10.2632C59.8868 8.13969 45.2455 13.0591 39.459 15.7842V4.52981C39.459 4.44487 39.5652 4.38822 39.6182 4.37052C54.748 -1.52213 69.984 -0.0356929 74.0186 0.813698C99.3941 5.43226 100.668 23.1633 100.668 25.446C100.711 31.5192 98.3854 37.3198 97.2175 39.461H93.6076C96.7928 32.6128 95.4126 26.7732 94.8817 25.446C90.2101 12.599 74.9741 10.9533 72.1605 10.2632Z" fill="#359ED6"/>
</svg>
