<svg width="38" height="72" viewBox="0 0 38 72" fill="none" xmlns="http://www.w3.org/2000/svg">
<path d="M35.3108 66.2847L30.5785 66.2619M32.9327 68.6394L32.9566 63.9071" stroke="#9B9C9E" stroke-width="1.5" stroke-linecap="round" stroke-linejoin="round"/>
<path d="M31.8792 50.8582L27.1469 50.8353M29.5011 53.2129L29.525 48.4806" stroke="#9B9C9E" stroke-width="1.5" stroke-linecap="round" stroke-linejoin="round"/>
<path d="M21.2151 50.814L16.4828 50.7912M18.837 53.1687L18.8609 48.4364" stroke="#9B9C9E" stroke-width="1.5" stroke-linecap="round" stroke-linejoin="round"/>
<path d="M28.4456 35.4324L23.7133 35.4096M26.0675 37.7871L26.0914 33.0548" stroke="#9B9C9E" stroke-width="1.5" stroke-linecap="round" stroke-linejoin="round"/>
<path d="M17.7835 35.3875L13.0512 35.3646M15.4053 37.7422L15.4293 33.0099" stroke="#9B9C9E" stroke-width="1.5" stroke-linecap="round" stroke-linejoin="round"/>
<path d="M7.1233 35.3435L2.39103 35.3207M4.74519 37.6982L4.76914 32.966" stroke="#9B9C9E" stroke-width="1.5" stroke-linecap="round" stroke-linejoin="round"/>
<path d="M35.7053 4.7665L30.9731 4.74367M33.3272 7.12122L33.3512 2.38895" stroke="#9B9C9E" stroke-width="1.5" stroke-linecap="round" stroke-linejoin="round"/>
<path d="M31.8674 20.0976L27.1352 20.0747M29.4893 22.4523L29.5133 17.72" stroke="#9B9C9E" stroke-width="1.5" stroke-linecap="round" stroke-linejoin="round"/>
<path d="M21.2053 20.0535L16.4731 20.0307M18.8272 22.4082L18.8512 17.6759" stroke="#9B9C9E" stroke-width="1.5" stroke-linecap="round" stroke-linejoin="round"/>
</svg>
