<svg width="81" height="80" viewBox="0 0 81 80" fill="none" xmlns="http://www.w3.org/2000/svg">
<g clip-path="url(#clip0_28_2387)">
<path d="M80.5 40C80.5 62.0914 62.5914 80 40.5 80C18.4086 80 0.5 62.0914 0.5 40C0.5 17.9086 18.4086 0 40.5 0C62.5914 0 80.5 17.9086 80.5 40Z" fill="#1D2633"/>
<path d="M70.2136 50.2133C71.5644 50.2133 72.5252 51.5261 72.0172 52.7777C66.9666 65.2233 54.7582 74 40.4999 74C26.2417 74 14.0333 65.2233 8.98264 52.7777C8.47467 51.5261 9.43549 50.2133 10.7863 50.2133H70.2136Z" fill="#EDEBDE"/>
<path d="M72.0172 27.2222C72.5252 28.4739 71.5644 29.7867 70.2136 29.7867H10.7863C9.43549 29.7867 8.47468 28.4739 8.98264 27.2222C14.0333 14.7767 26.2417 6 40.4999 6C54.7582 6 66.9665 14.7767 72.0172 27.2222Z" fill="#EDEBDE"/>
<path d="M70.337 37.1499C72.5842 37.1499 73.6686 38.7177 73.6686 40.5337V43.9437H71.3169V40.9388C71.3169 40.1157 71.0164 39.4363 70.1541 39.4363C69.2918 39.4363 69.0044 40.1157 69.0044 40.9388V43.9437H66.6527V40.9388C66.6527 40.1157 66.3653 39.4363 65.503 39.4363C64.6407 39.4363 64.3402 40.1157 64.3402 40.9388V43.9437H61.9885V40.5337C61.9885 38.7177 63.0729 37.1499 65.3201 37.1499C66.5482 37.1499 67.4366 37.6333 67.8416 38.4303C68.2728 37.6333 69.2135 37.1499 70.337 37.1499Z" fill="#EDEBDE"/>
<path d="M57.7627 41.8533C58.5205 41.8533 58.8471 41.1609 58.8471 40.3378V37.4112H61.1988V40.6252C61.1988 42.5457 60.0752 44.1397 57.7627 44.1397C55.4502 44.1397 54.3267 42.5457 54.3267 40.6252V37.4112H56.6783V40.3378C56.6783 41.1609 57.005 41.8533 57.7627 41.8533Z" fill="#EDEBDE"/>
<path d="M50.8687 44.1527C49.3924 44.1527 48.4386 43.6432 47.8769 42.6503L49.5753 41.6965C49.8105 42.1146 50.1632 42.3236 50.7511 42.3236C51.2345 42.3236 51.4566 42.1538 51.4566 41.9448C51.4566 41.1478 48.0075 41.9578 48.0075 39.4232C48.0075 38.1951 49.0527 37.2022 50.8295 37.2022C52.3843 37.2022 53.2335 37.9599 53.6124 38.6916L51.9139 39.6584C51.7702 39.2664 51.326 39.0313 50.8818 39.0313C50.5421 39.0313 50.3592 39.175 50.3592 39.371C50.3592 40.181 53.8083 39.4363 53.8083 41.8925C53.8083 43.2643 52.4627 44.1527 50.8687 44.1527Z" fill="#EDEBDE"/>
<path d="M42.6524 46.9486H40.3007V40.6644C40.3007 38.6655 41.8032 37.2152 43.8936 37.2152C45.9317 37.2152 47.4864 38.77 47.4864 40.6644C47.4864 42.7548 46.1016 44.1397 44.0242 44.1397C43.5408 44.1397 43.0574 43.996 42.6524 43.7738V46.9486ZM43.8936 41.9317C44.6383 41.9317 45.1347 41.3568 45.1347 40.6775C45.1347 39.985 44.6383 39.4232 43.8936 39.4232C43.1489 39.4232 42.6524 39.985 42.6524 40.6775C42.6524 41.3568 43.1489 41.9317 43.8936 41.9317Z" fill="#EDEBDE"/>
<path d="M37.9449 36.7188C37.1741 36.7188 36.5339 36.0786 36.5339 35.3078C36.5339 34.5369 37.1741 33.8967 37.9449 33.8967C38.7158 33.8967 39.356 34.5369 39.356 35.3078C39.356 36.0786 38.7158 36.7188 37.9449 36.7188ZM36.7691 37.4112H39.1208V43.9437H36.7691V37.4112Z" fill="#EDEBDE"/>
<path d="M32.2571 44.1397C30.219 44.1397 28.6642 42.5719 28.6642 40.6644C28.6642 38.77 30.219 37.2022 32.2571 37.2022C34.2952 37.2022 35.85 38.77 35.85 40.6644C35.85 42.5719 34.2952 44.1397 32.2571 44.1397ZM32.2571 41.9317C33.0018 41.9317 33.4983 41.3568 33.4983 40.6775C33.4983 39.985 33.0018 39.4102 32.2571 39.4102C31.5124 39.4102 31.0159 39.985 31.0159 40.6775C31.0159 41.3568 31.5124 41.9317 32.2571 41.9317Z" fill="#EDEBDE"/>
<path d="M24.2237 47.1446C22.6036 47.1446 21.4278 46.426 20.8268 45.1457L22.7735 44.1005C22.9825 44.5447 23.3745 45.002 24.1845 45.002C25.0337 45.002 25.5955 44.4663 25.6608 43.5256C25.3473 43.8 24.8508 44.009 24.1061 44.009C22.2901 44.009 20.8268 42.6111 20.8268 40.6513C20.8268 38.7569 22.3815 37.2152 24.4197 37.2152C26.51 37.2152 28.0125 38.6655 28.0125 40.6644V43.2513C28.0125 45.6029 26.3794 47.1446 24.2237 47.1446ZM24.3805 41.801C25.086 41.801 25.6216 41.3176 25.6216 40.5991C25.6216 39.8936 25.086 39.4232 24.3805 39.4232C23.688 39.4232 23.1393 39.8936 23.1393 40.5991C23.1393 41.3176 23.688 41.801 24.3805 41.801Z" fill="#EDEBDE"/>
<path d="M16.8374 44.1397C14.7993 44.1397 13.2445 42.5719 13.2445 40.6644C13.2445 38.77 14.7993 37.2022 16.8374 37.2022C18.8755 37.2022 20.4303 38.77 20.4303 40.6644C20.4303 42.5719 18.8755 44.1397 16.8374 44.1397ZM16.8374 41.9317C17.5821 41.9317 18.0786 41.3568 18.0786 40.6775C18.0786 39.985 17.5821 39.4102 16.8374 39.4102C16.0927 39.4102 15.5962 39.985 15.5962 40.6775C15.5962 41.3568 16.0927 41.9317 16.8374 41.9317Z" fill="#EDEBDE"/>
<path d="M8.96218 35.1249V41.7227H12.8555V43.9437H8.63556C7.14615 43.9437 6.54517 43.1598 6.54517 41.9186V35.1249H8.96218Z" fill="#EDEBDE"/>
<path d="M34.4999 6.52774C36.4476 6.18095 38.4526 6 40.5 6C42.5473 6 44.5523 6.18095 46.4999 6.52773V29.7867H34.4999V6.52774Z" fill="#AC2828"/>
<path d="M46.5004 50.2133H34.4993C34.4741 55.4312 33.5234 60.6038 31.6909 65.4906L29.2185 72.0836C32.7486 73.3249 36.5454 74 40.4999 74C44.4543 74 48.2511 73.3249 51.7812 72.0836L49.3088 65.4906C47.4763 60.6038 46.5256 55.4312 46.5004 50.2133Z" fill="#AC2828"/>
<path d="M46.5 6.52771C50.8408 7.3006 54.8967 8.89722 58.5 11.1502V29.7867H46.5V6.52771Z" fill="#306A9F"/>
<path d="M51.7813 72.0836C57.2387 70.1647 62.0589 66.8928 65.8391 62.6704L65.2492 62.295C61.1056 59.6581 58.573 55.1147 58.5015 50.2133H46.5005C46.5257 55.4312 47.4764 60.6038 49.309 65.4906L51.7813 72.0836Z" fill="#306A9F"/>
<path d="M22.4999 11.1502C26.1032 8.89723 30.159 7.3006 34.4999 6.52771V29.7867H22.4999V11.1502Z" fill="#DEB038"/>
<path d="M22.4983 50.2133H34.4993C34.4742 55.4089 33.5315 60.5596 31.7143 65.428L29.2185 72.0836C23.761 70.1647 18.9409 66.8928 15.1606 62.6704L15.7505 62.295C19.8941 59.6581 22.4268 55.1147 22.4983 50.2133Z" fill="#DEB038"/>
</g>
<defs>
<clipPath id="clip0_28_2387">
<rect width="80" height="80" fill="white" transform="translate(0.5)"/>
</clipPath>
</defs>
</svg>
