<svg width="175" height="40" viewBox="0 0 175 40" fill="none" xmlns="http://www.w3.org/2000/svg">
<g clip-path="url(#clip0_28_2406)">
<path d="M50.703 20.782C50.7376 20.1158 50.7376 19.4482 50.703 18.782H12.754C12.746 18.948 12.739 19.115 12.735 19.282H4.785L4.781 19.532H0.5V20.032H4.78L4.786 20.282H12.735C12.739 20.45 12.745 20.616 12.755 20.782H23.65C23.6086 20.4503 23.5879 20.1163 23.588 19.782H39.588C39.588 20.121 39.568 20.455 39.526 20.782H50.703ZM50.624 17.782H39.337C39.2492 17.4417 39.139 17.1077 39.007 16.782H24.172C24.041 17.106 23.93 17.439 23.842 17.782H12.832C12.85 17.615 12.87 17.448 12.892 17.282H4.942L4.976 17.038H0.5V16.538H5.055L5.101 16.282H13.051C13.081 16.115 13.115 15.948 13.151 15.782H50.307C50.447 16.437 50.554 17.104 50.624 17.782ZM50.064 14.782H37.834C37.5456 14.422 37.2267 14.0874 36.881 13.782H26.297C25.952 14.088 25.632 14.422 25.344 14.782H13.394C13.439 14.615 13.487 14.448 13.537 14.282H5.587L5.675 14.001H0.5V13.5H5.842L5.92 13.281H13.87C13.93 13.113 13.994 12.947 14.06 12.781H49.397C49.655 13.431 49.878 14.1 50.064 14.782ZM48.967 11.782H14.49C14.568 11.614 14.648 11.448 14.731 11.282H6.782L6.923 11.006H0.5V10.506H7.194L7.321 10.282H15.271C15.368 10.114 15.468 9.947 15.57 9.782H47.887C48.285 10.424 48.647 11.092 48.967 11.782ZM12.832 21.782H50.625C50.554 22.46 50.447 23.128 50.307 23.782H38.519C38.704 23.462 38.868 23.128 39.008 22.782H24.17C24.31 23.128 24.473 23.462 24.658 23.782H13.15C13.1144 23.6158 13.0811 23.4491 13.05 23.282H5.101C5.08471 23.1941 5.06905 23.1061 5.054 23.018H0.5V22.518H4.975C4.96352 22.4394 4.95252 22.3607 4.942 22.282H12.892C12.8698 22.1156 12.8498 21.9489 12.832 21.782ZM13.393 24.782H50.063C49.878 25.465 49.655 26.132 49.397 26.782H35.465C35.9717 26.5007 36.4465 26.1655 36.881 25.782H26.297C26.7315 26.1655 27.2063 26.5007 27.713 26.782H14.06C13.9944 26.6162 13.931 26.4495 13.87 26.282H5.92L5.834 26.041H0.5V25.541H5.668C5.64072 25.4549 5.61406 25.3685 5.588 25.282H13.537C13.487 25.116 13.439 24.95 13.393 24.782ZM14.49 27.782H48.967C48.6473 28.4697 48.2867 29.1375 47.887 29.782H15.57C15.4674 29.6169 15.3674 29.4502 15.27 29.282H7.321C7.271 29.196 7.222 29.11 7.174 29.023H0.5V28.523H6.905L6.782 28.283H14.732C14.6489 28.1175 14.5682 27.9508 14.49 27.783V27.782ZM17.42 32.282C17.567 32.452 17.718 32.618 17.872 32.782H45.585C46.1752 32.1531 46.7221 31.4849 47.222 30.782H16.235C16.355 30.951 16.477 31.118 16.603 31.282H8.653L8.851 31.537H0.5V32.037H9.26C9.329 32.12 9.399 32.201 9.47 32.282H17.42ZM20.737 35.282C20.98 35.455 21.227 35.622 21.477 35.782H41.98C42.9004 35.1909 43.7683 34.5218 44.574 33.782H18.884C19.069 33.952 19.258 34.119 19.45 34.282H11.5C11.608 34.374 11.717 34.464 11.827 34.552H0.5V35.052H12.472C12.576 35.13 12.682 35.207 12.788 35.282H20.738H20.737ZM27.754 38.366C29.036 38.639 30.365 38.782 31.728 38.782C34.782 38.782 37.667 38.062 40.223 36.782H23.233C23.589 36.96 23.95 37.127 24.317 37.282H16.367C16.509 37.342 16.652 37.401 16.795 37.458H0.5V37.958H18.225C19.982 38.494 21.847 38.782 23.779 38.782C25.142 38.782 26.472 38.639 27.754 38.366ZM16.235 8.782H47.222C46.7221 8.07912 46.1752 7.41092 45.585 6.782H17.872C17.718 6.946 17.567 7.112 17.419 7.282H9.47L9.294 7.488H0.5V7.988H8.882C8.805 8.085 8.729 8.183 8.654 8.282H16.603C16.477 8.447 16.355 8.614 16.235 8.782ZM18.883 5.782H44.573C43.7676 5.04225 42.9001 4.37312 41.98 3.782H21.477C21.227 3.943 20.98 4.11 20.737 4.282H12.788C12.678 4.361 12.568 4.44 12.46 4.521H0.5V5.021H11.816C11.71 5.107 11.605 5.194 11.501 5.282H19.45C19.258 5.445 19.069 5.612 18.883 5.782ZM23.234 2.782H40.224C37.5869 1.46244 34.6778 0.77755 31.729 0.782C30.365 0.782 29.036 0.926 27.754 1.199C26.4473 0.921201 25.1149 0.781434 23.779 0.782C21.645 0.782 19.594 1.134 17.679 1.782H0.5V2.282H24.317C23.9508 2.43722 23.5896 2.60397 23.234 2.782ZM111.748 0.5C112.405 0.5 112.921 0.664 113.296 0.992C113.687 1.305 113.882 1.742 113.882 2.306C113.882 2.869 113.687 3.314 113.296 3.642C112.921 3.955 112.405 4.112 111.748 4.112C111.092 4.112 110.568 3.955 110.177 3.642C109.802 3.314 109.614 2.869 109.614 2.306C109.614 1.743 109.802 1.306 110.177 0.992C110.568 0.664 111.092 0.5 111.748 0.5ZM113.577 6.292V16.493C113.577 17.15 113.687 17.596 113.906 17.83C114.14 18.065 114.531 18.182 115.078 18.182V18.674C114.641 18.6526 114.203 18.637 113.765 18.627C113.164 18.5955 112.561 18.5799 111.959 18.58C111.35 18.58 110.732 18.596 110.107 18.627C109.638 18.6373 109.169 18.653 108.7 18.674V18.182C109.247 18.182 109.63 18.065 109.849 17.83C110.083 17.596 110.201 17.15 110.201 16.493V9.106C110.201 8.403 110.091 7.886 109.872 7.559C109.669 7.215 109.278 7.043 108.7 7.043V6.55C109.2 6.597 109.685 6.62 110.154 6.62C110.81 6.62 111.42 6.597 111.983 6.55C112.561 6.488 113.093 6.402 113.577 6.292Z" fill="#2F2352"/>
<path fill-rule="evenodd" clip-rule="evenodd" d="M120.177 8.44397V6.29197C119.693 6.40197 119.161 6.48797 118.583 6.54997C118.004 6.59697 117.394 6.61997 116.753 6.61997C116.284 6.61997 115.8 6.59697 115.299 6.54997V7.04297C115.862 7.04297 116.253 7.21497 116.472 7.55897C116.691 7.88697 116.8 8.40297 116.8 9.10597V20.832C116.8 21.457 116.691 21.879 116.472 22.098C116.269 22.317 115.909 22.426 115.393 22.426V22.919L116.636 22.849C117.207 22.8331 117.777 22.8251 118.348 22.825C119.145 22.825 119.896 22.833 120.599 22.848C121.318 22.88 121.881 22.903 122.288 22.918V22.426C121.631 22.426 121.115 22.301 120.74 22.051C120.365 21.817 120.177 21.332 120.177 20.597V18.247C120.383 18.419 120.625 18.561 120.904 18.674C121.404 18.894 121.959 19.003 122.569 19.003C123.398 19.003 124.14 18.854 124.797 18.557C125.465 18.2632 126.052 17.8128 126.509 17.244C126.993 16.65 127.361 15.923 127.611 15.063C127.877 14.203 128.01 13.203 128.01 12.061C128.01 10.764 127.822 9.68497 127.447 8.82497C127.072 7.94897 126.571 7.30097 125.946 6.87897C125.321 6.4412 124.575 6.21133 123.812 6.22197C122.905 6.22197 122.108 6.45597 121.42 6.92497C120.879 7.28997 120.465 7.79597 120.177 8.44497V8.44397ZM120.177 9.24997V17.751C120.307 17.905 120.464 18.033 120.646 18.135C120.943 18.291 121.279 18.369 121.655 18.369C122.358 18.369 122.913 18.135 123.32 17.666C123.726 17.181 124.015 16.509 124.187 15.649C124.375 14.774 124.469 13.734 124.469 12.53C124.469 11.186 124.383 10.13 124.211 9.36397C124.039 8.59797 123.804 8.05097 123.507 7.72297C123.21 7.39397 122.851 7.22997 122.428 7.22997C121.866 7.22997 121.35 7.44997 120.881 7.88697C120.528 8.22697 120.293 8.68197 120.177 9.24997Z" fill="#2F2352"/>
<path d="M133.394 6.22203C134.051 6.22203 134.621 6.30803 135.106 6.48003C135.606 6.63603 135.966 6.79303 136.185 6.94903C136.716 7.30903 137.045 7.07403 137.17 6.24503H137.662C137.631 6.68303 137.607 7.22303 137.592 7.86303C137.576 8.48903 137.568 9.32503 137.568 10.373H137.076C136.996 9.78669 136.846 9.21198 136.63 8.66103C136.431 8.12633 136.1 7.65037 135.669 7.27703C135.262 6.91703 134.731 6.73703 134.074 6.73703C133.621 6.73703 133.238 6.87103 132.925 7.13703C132.612 7.38703 132.456 7.75403 132.456 8.23903C132.456 8.70803 132.597 9.12203 132.878 9.48203C133.16 9.82603 133.519 10.162 133.957 10.49C134.41 10.803 134.879 11.139 135.364 11.498C135.88 11.889 136.349 12.28 136.771 12.671C137.176 13.0247 137.517 13.4451 137.779 13.914C138.03 14.367 138.155 14.906 138.155 15.532C138.155 16.235 137.951 16.852 137.545 17.384C137.138 17.9 136.599 18.299 135.927 18.58C135.27 18.862 134.535 19.003 133.723 19.003C133.296 19.0079 132.871 18.9605 132.456 18.862C132.131 18.781 131.816 18.6629 131.518 18.51C131.315 18.416 131.119 18.33 130.932 18.252C130.772 18.1643 130.608 18.0861 130.439 18.018C130.283 17.971 130.142 18.025 130.017 18.182C129.908 18.338 129.822 18.557 129.759 18.838H129.267C129.298 18.338 129.322 17.728 129.337 17.009C129.353 16.29 129.361 15.336 129.361 14.149H129.853C129.947 14.993 130.119 15.743 130.369 16.399C130.619 17.041 130.955 17.549 131.377 17.924C131.815 18.284 132.362 18.464 133.019 18.464C133.285 18.464 133.543 18.409 133.793 18.299C134.043 18.189 134.246 18.009 134.403 17.759C134.575 17.509 134.661 17.189 134.661 16.799C134.661 16.11 134.434 15.539 133.98 15.086C133.543 14.633 132.98 14.14 132.292 13.609C131.792 13.202 131.315 12.804 130.862 12.413C130.442 12.0287 130.079 11.5866 129.783 11.1C129.497 10.6005 129.352 10.0333 129.361 9.45803C129.361 8.75503 129.548 8.16103 129.923 7.67603C130.306 7.18597 130.818 6.81232 131.401 6.59703C132.035 6.3453 132.712 6.21798 133.394 6.22203ZM162.505 6.48003C162.098 6.30803 161.567 6.22203 160.91 6.22203C160.175 6.21456 159.449 6.39199 158.8 6.73803C158.159 7.06603 157.651 7.62103 157.275 8.40303V6.29303C156.791 6.40203 156.259 6.48803 155.681 6.55003C155.118 6.59703 154.508 6.62003 153.852 6.62003C153.383 6.62003 152.898 6.59703 152.398 6.55003V7.04303C152.976 7.04303 153.367 7.21503 153.57 7.55903C153.789 7.88703 153.898 8.40303 153.898 9.10603V16.493C153.898 17.15 153.781 17.596 153.547 17.83C153.328 18.065 152.945 18.182 152.398 18.182V18.674C152.867 18.653 153.336 18.6374 153.805 18.627C154.414 18.5962 155.024 18.5805 155.634 18.58C156.181 18.58 156.713 18.596 157.228 18.627C157.76 18.643 158.151 18.659 158.401 18.674V18.182C157.995 18.182 157.705 18.065 157.533 17.83C157.361 17.596 157.275 17.15 157.275 16.493V9.97403C157.275 9.45803 157.377 8.99703 157.58 8.59003C157.799 8.16803 158.08 7.84003 158.424 7.60603C158.754 7.37584 159.147 7.25294 159.55 7.25403C159.91 7.25403 160.175 7.34003 160.347 7.51203C160.535 7.66803 160.66 7.89503 160.723 8.19203C160.785 8.47303 160.816 8.80903 160.816 9.20003V16.493C160.816 17.15 160.73 17.596 160.558 17.83C160.402 18.065 160.113 18.182 159.691 18.182V18.674C159.972 18.659 160.386 18.643 160.934 18.627C162.043 18.5638 163.155 18.5638 164.264 18.627C164.842 18.643 165.272 18.659 165.553 18.674V18.182C165.053 18.182 164.701 18.065 164.498 17.83C164.295 17.596 164.193 17.15 164.193 16.493V10.078L164.192 10.005L164.188 9.76803C164.224 9.37604 164.329 8.99348 164.498 8.63803C164.717 8.21503 164.998 7.87903 165.342 7.62903C165.686 7.37903 166.062 7.25403 166.468 7.25403C166.874 7.25403 167.172 7.34003 167.359 7.51203C167.562 7.66803 167.695 7.89503 167.758 8.19203C167.836 8.47303 167.875 8.80903 167.875 9.20003V16.493C167.875 17.15 167.789 17.596 167.617 17.83C167.461 18.065 167.172 18.182 166.749 18.182V18.674C167.031 18.659 167.445 18.643 167.992 18.627C168.546 18.5956 169.102 18.5799 169.657 18.58C170.236 18.58 170.822 18.596 171.416 18.627C172.01 18.643 172.456 18.659 172.753 18.674V18.182C172.206 18.182 171.815 18.065 171.58 17.83C171.361 17.596 171.252 17.15 171.252 16.493V10.185C171.252 9.40303 171.197 8.77803 171.088 8.30903C170.978 7.82403 170.799 7.43403 170.548 7.13703C170.298 6.85503 169.97 6.63703 169.563 6.48003C169.157 6.30803 168.625 6.22203 167.969 6.22203C167.172 6.22203 166.421 6.38603 165.718 6.71403C165.044 7.03603 164.498 7.65003 164.079 8.55603C164.065 8.47325 164.048 8.39088 164.029 8.30903C163.92 7.82403 163.74 7.43403 163.49 7.13703C163.24 6.85503 162.911 6.63703 162.505 6.48003ZM150.558 16.118V6.29203C150.073 6.40203 149.542 6.48803 148.963 6.55003C148.401 6.59703 147.791 6.62003 147.134 6.62003C146.665 6.62003 146.181 6.59703 145.68 6.55003V7.04303C146.259 7.04303 146.65 7.21503 146.853 7.55903C147.072 7.88703 147.181 8.40303 147.181 9.10603V15.25C147.181 15.766 147.072 16.235 146.853 16.657C146.667 17.0434 146.384 17.3749 146.032 17.619C145.704 17.8538 145.309 17.9771 144.906 17.971C144.516 17.971 144.219 17.892 144.015 17.736C143.804 17.5516 143.657 17.3057 143.593 17.033C143.527 16.6931 143.495 16.3473 143.499 16.001V6.29203C143.015 6.40203 142.483 6.48803 141.905 6.55003C141.342 6.59703 140.732 6.62003 140.076 6.62003C139.607 6.62003 139.122 6.59703 138.622 6.55003V7.04303C139.2 7.04303 139.591 7.21503 139.794 7.55903C140.013 7.88703 140.122 8.40303 140.122 9.10603V15.039C140.122 15.805 140.177 16.431 140.287 16.915C140.396 17.4 140.584 17.791 140.849 18.088C141.084 18.354 141.404 18.573 141.811 18.745C142.217 18.916 142.749 19.003 143.406 19.003C144.219 19.003 144.953 18.838 145.61 18.51C146.282 18.166 146.806 17.603 147.181 16.822V18.932C147.705 18.8031 148.238 18.7168 148.776 18.674C149.339 18.627 149.948 18.604 150.605 18.604C151.09 18.604 151.574 18.627 152.059 18.674V18.182C151.496 18.182 151.105 18.018 150.886 17.689C150.667 17.345 150.558 16.822 150.558 16.119V16.118Z" fill="#2F2352"/>
<path fill-rule="evenodd" clip-rule="evenodd" d="M105.196 6.855C104.336 6.433 103.335 6.222 102.194 6.222C101.084 6.222 100.091 6.433 99.216 6.855C98.356 7.277 97.676 7.957 97.176 8.895C96.691 9.833 96.448 11.076 96.448 12.624C96.448 14.172 96.691 15.414 97.175 16.353C97.675 17.275 98.355 17.947 99.215 18.369C100.091 18.791 101.084 19.003 102.194 19.003C103.335 19.003 104.336 18.791 105.196 18.369C106.055 17.947 106.728 17.275 107.212 16.353C107.697 15.415 107.939 14.172 107.939 12.624C107.939 11.076 107.697 9.834 107.212 8.895C106.728 7.957 106.055 7.277 105.196 6.855ZM100.623 8.098C101.045 7.16 101.569 6.691 102.194 6.691C102.835 6.691 103.359 7.16 103.765 8.098C104.187 9.02 104.398 10.529 104.398 12.624C104.398 14.719 104.187 16.228 103.765 17.15C103.359 18.072 102.835 18.534 102.194 18.534C101.569 18.534 101.045 18.072 100.623 17.15C100.201 16.228 99.99 14.719 99.99 12.624C99.99 10.529 100.2 9.02 100.623 8.098ZM88.801 23.083C87.831 23.083 86.964 22.997 86.198 22.825C85.448 22.669 84.854 22.419 84.416 22.075C83.994 21.746 83.783 21.34 83.783 20.855C83.783 20.37 84.001 19.933 84.439 19.542C84.877 19.167 85.526 18.87 86.386 18.651L86.596 19.026C86.3275 19.2276 86.1041 19.4831 85.94 19.776C85.815 20.058 85.752 20.347 85.752 20.644C85.752 21.301 86.049 21.801 86.644 22.144C87.254 22.504 88.074 22.684 89.106 22.684C89.809 22.684 90.435 22.59 90.982 22.403C91.545 22.215 91.982 21.933 92.295 21.559C92.624 21.183 92.788 20.722 92.788 20.175C92.788 19.706 92.616 19.307 92.272 18.979C91.928 18.666 91.24 18.51 90.208 18.51H88.754C88.114 18.51 87.55 18.44 87.066 18.299C86.596 18.159 86.229 17.939 85.963 17.642C85.698 17.33 85.565 16.939 85.565 16.47C85.565 15.813 85.823 15.235 86.339 14.734C86.743 14.342 87.301 13.969 88.013 13.616C87.5449 13.5578 87.0851 13.4454 86.643 13.281C85.94 13.015 85.385 12.608 84.979 12.061C84.572 11.514 84.369 10.811 84.369 9.951C84.369 9.091 84.572 8.387 84.979 7.84C85.385 7.277 85.94 6.87 86.644 6.62C87.347 6.355 88.144 6.222 89.035 6.222C89.927 6.222 90.724 6.355 91.427 6.621C91.891 6.785 92.289 7.018 92.624 7.318C92.823 7.031 93.065 6.775 93.35 6.55C93.882 6.144 94.453 5.94 95.062 5.94C95.562 5.94 95.938 6.081 96.188 6.363C96.454 6.628 96.587 6.98 96.587 7.418C96.587 7.887 96.461 8.238 96.211 8.473C95.961 8.693 95.68 8.802 95.367 8.802C95.0918 8.79836 94.8265 8.6986 94.617 8.52C94.397 8.332 94.273 8.051 94.242 7.676C94.215 7.34 94.309 6.924 94.524 6.426C94.068 6.62 93.716 6.841 93.468 7.09C93.281 7.27026 93.1177 7.47356 92.982 7.695C93.02 7.742 93.057 7.791 93.092 7.84C93.499 8.387 93.702 9.09 93.702 9.95C93.702 10.81 93.499 11.514 93.092 12.061C92.686 12.608 92.131 13.015 91.427 13.281C90.724 13.546 89.927 13.679 89.035 13.679C88.9016 13.6791 88.7682 13.6761 88.635 13.67C88.424 13.813 88.221 13.965 88.027 14.125C87.9065 14.2193 87.8098 14.3405 87.7447 14.4789C87.6796 14.6173 87.6478 14.7691 87.652 14.922C87.652 15.422 87.965 15.672 88.59 15.672H91.146C92.006 15.672 92.772 15.774 93.444 15.977C94.132 16.181 94.671 16.517 95.062 16.986C95.469 17.439 95.672 18.033 95.672 18.768C95.672 19.534 95.422 20.245 94.922 20.902C94.437 21.559 93.687 22.082 92.67 22.473C91.654 22.88 90.364 23.083 88.801 23.083ZM89.035 13.257C89.458 13.257 89.785 13.023 90.02 12.554C90.255 12.069 90.372 11.201 90.372 9.951C90.372 8.7 90.255 7.84 90.02 7.371C89.786 6.886 89.458 6.644 89.036 6.644C88.629 6.644 88.301 6.886 88.051 7.371C87.816 7.84 87.699 8.7 87.699 9.951C87.699 11.201 87.816 12.069 88.051 12.554C88.301 13.023 88.629 13.257 89.035 13.257ZM80.747 6.855C79.887 6.433 78.887 6.222 77.746 6.222C76.636 6.222 75.643 6.433 74.768 6.855C73.908 7.277 73.228 7.957 72.728 8.895C72.243 9.833 72 11.076 72 12.624C72 14.172 72.243 15.414 72.727 16.353C73.227 17.275 73.907 17.947 74.767 18.369C75.643 18.791 76.636 19.003 77.746 19.003C78.887 19.003 79.888 18.791 80.747 18.369C81.607 17.947 82.279 17.275 82.764 16.353C83.249 15.415 83.491 14.172 83.491 12.624C83.491 11.076 83.249 9.834 82.764 8.895C82.28 7.957 81.607 7.277 80.747 6.855ZM76.174 8.098C76.597 7.16 77.12 6.691 77.746 6.691C78.386 6.691 78.91 7.16 79.316 8.098C79.739 9.02 79.95 10.529 79.95 12.624C79.95 14.719 79.739 16.228 79.317 17.15C78.91 18.072 78.387 18.534 77.746 18.534C77.12 18.534 76.596 18.072 76.174 17.15C75.752 16.228 75.541 14.719 75.541 12.624C75.541 10.529 75.752 9.02 76.174 8.098Z" fill="#2F2352"/>
<path d="M65.684 2.07098V2.54098C65.153 2.55598 64.746 2.61798 64.465 2.72798C64.3363 2.77153 64.2201 2.84544 64.1261 2.94344C64.0321 3.04144 63.9631 3.16066 63.925 3.29098C63.832 3.55598 63.785 3.97898 63.785 4.55698V16.47C63.785 16.954 63.816 17.314 63.879 17.549C63.957 17.783 64.098 17.939 64.301 18.018C64.52 18.096 64.841 18.135 65.262 18.135H66.412C66.942 18.135 67.443 18.01 67.912 17.76C68.382 17.51 68.803 17.158 69.178 16.704C69.5735 16.1998 69.8901 15.6383 70.117 15.039C70.367 14.399 70.554 13.687 70.679 12.905H71.219C71.172 13.437 71.149 14.125 71.149 14.969C71.149 15.329 71.156 15.852 71.172 16.54C71.188 17.228 71.234 17.94 71.312 18.674C70.4137 18.6409 69.5149 18.6252 68.616 18.627C67.616 18.612 66.724 18.604 65.942 18.604H64.442C63.832 18.604 63.175 18.612 62.472 18.627C61.768 18.627 61.057 18.635 60.338 18.651C59.618 18.651 58.938 18.659 58.298 18.674V18.205C58.798 18.174 59.173 18.111 59.423 18.018C59.673 17.924 59.837 17.736 59.916 17.455C60.009 17.173 60.056 16.751 60.056 16.188V4.55698C60.056 3.97798 60.009 3.55698 59.916 3.29098C59.8852 3.1609 59.8216 3.04086 59.7313 2.94231C59.6409 2.84376 59.5269 2.76997 59.4 2.72798C59.15 2.61798 58.782 2.55598 58.298 2.53998V2.07098C59.5324 2.11672 60.7676 2.14006 62.003 2.14098C62.691 2.14098 63.363 2.13398 64.019 2.11798C64.692 2.10198 65.247 2.08698 65.684 2.07098Z" fill="#2F2352"/>
<path fill-rule="evenodd" clip-rule="evenodd" d="M170.371 38.053C170.338 37.885 170.36 37.666 170.439 37.396L173.742 25.429C173.213 25.6459 172.666 25.8149 172.107 25.934C171.534 26.047 170.877 26.108 170.135 26.12L170.017 26.474C170.568 26.474 170.911 26.564 171.046 26.744C171.18 26.924 171.197 27.204 171.096 27.586L170.314 30.535C170.265 30.3927 170.18 30.2654 170.068 30.165C169.877 29.985 169.613 29.895 169.276 29.895C168.602 29.895 167.978 30.047 167.405 30.35C166.829 30.6649 166.31 31.0754 165.871 31.564C165.41 32.0591 165.019 32.6149 164.708 33.216C164.402 33.8009 164.159 34.4167 163.983 35.053C163.823 35.6011 163.738 36.1682 163.73 36.739C163.73 37.278 163.815 37.722 163.983 38.07C164.152 38.407 164.382 38.66 164.674 38.828C164.966 38.986 165.292 39.064 165.652 39.064C166.202 39.064 166.697 38.902 167.135 38.576C167.573 38.239 167.983 37.722 168.366 37.025C168.526 36.741 168.687 36.422 168.847 36.068L168.736 36.486C168.634 36.8153 168.567 37.154 168.534 37.497C168.512 37.789 168.534 38.037 168.602 38.239C168.736 38.789 169.152 39.065 169.849 39.065C170.107 39.065 170.371 39.014 170.641 38.913C170.911 38.812 171.163 38.638 171.399 38.39C171.647 38.143 171.843 37.79 171.989 37.328L172.394 36.098H172.074L171.804 36.856C171.602 37.43 171.411 37.817 171.231 38.019C171.062 38.211 170.888 38.306 170.708 38.306C170.517 38.306 170.405 38.222 170.371 38.053ZM169.472 33.713C169.345 34.124 169.207 34.515 169.057 34.884C168.776 35.604 168.478 36.222 168.163 36.739C167.86 37.244 167.562 37.637 167.27 37.919C166.978 38.188 166.719 38.323 166.495 38.323C166.281 38.323 166.124 38.222 166.023 38.02C165.933 37.806 165.888 37.486 165.888 37.059C165.888 36.452 165.955 35.834 166.09 35.205C166.225 34.565 166.41 33.952 166.646 33.368C166.863 32.8199 167.134 32.2947 167.455 31.8C167.759 31.328 168.079 30.957 168.416 30.687C168.764 30.417 169.107 30.283 169.444 30.283C169.669 30.283 169.849 30.362 169.984 30.519C170.078 30.621 170.15 30.769 170.2 30.965L169.472 33.713Z" fill="#2F2352"/>
<path d="M159.155 38.828H157.082L159.104 31.564C159.206 31.227 159.239 30.991 159.206 30.856C159.172 30.721 159.071 30.654 158.902 30.654C158.689 30.654 158.492 30.761 158.312 30.974C158.132 31.187 157.947 31.564 157.756 32.104L157.469 32.895H157.149L157.587 31.631C157.745 31.181 157.941 30.834 158.177 30.586C158.413 30.328 158.672 30.148 158.953 30.047C159.234 29.946 159.52 29.895 159.812 29.895C160.172 29.895 160.436 29.968 160.604 30.115C160.784 30.261 160.897 30.452 160.942 30.688C160.999 30.9423 161.01 31.2047 160.975 31.463C160.953 31.733 160.908 31.997 160.84 32.255L160.569 33.312L160.638 33.132C160.953 32.334 161.256 31.699 161.548 31.227C161.852 30.744 162.172 30.401 162.509 30.199C162.839 29.9983 163.219 29.8931 163.605 29.895C164.009 29.895 164.318 30.013 164.532 30.249C164.757 30.485 164.869 30.777 164.869 31.126C164.869 31.406 164.801 31.671 164.667 31.918C164.536 32.1498 164.351 32.3464 164.127 32.491C163.914 32.626 163.667 32.693 163.386 32.693C163.105 32.693 162.88 32.62 162.711 32.474C162.554 32.328 162.475 32.114 162.475 31.834C162.475 31.586 162.532 31.362 162.644 31.159C162.752 30.9613 162.902 30.7892 163.082 30.654C163.262 30.508 163.459 30.407 163.672 30.35C163.648 30.3268 163.62 30.3097 163.588 30.3C163.55 30.2881 163.51 30.2823 163.47 30.283C163.223 30.283 162.97 30.373 162.711 30.553C162.453 30.721 162.183 30.997 161.902 31.379C161.621 31.761 161.335 32.266 161.043 32.895C160.713 33.6388 160.421 34.3984 160.166 35.171C160.039 35.545 159.911 35.947 159.783 36.378L159.155 38.828Z" fill="#2F2352"/>
<path fill-rule="evenodd" clip-rule="evenodd" d="M152.857 36.224L152.786 36.486C152.68 36.8666 152.606 37.2557 152.567 37.649C152.533 38.009 152.589 38.312 152.735 38.559C152.96 38.896 153.342 39.065 153.881 39.065C154.14 39.065 154.398 39.014 154.657 38.913C154.926 38.812 155.179 38.638 155.415 38.39C155.651 38.132 155.848 37.772 156.005 37.312L156.427 36.082H156.106L155.853 36.84C155.651 37.424 155.455 37.812 155.264 38.003C155.073 38.193 154.887 38.289 154.707 38.289C154.561 38.289 154.466 38.244 154.421 38.154C154.386 38.0395 154.374 37.9191 154.387 37.8C154.409 37.6571 154.443 37.5163 154.488 37.379L156.663 29.895C156.324 29.9759 155.981 30.0324 155.634 30.064C155.286 30.098 154.91 30.12 154.505 30.131L154.261 31.033C154.251 30.804 154.184 30.5811 154.067 30.384C153.979 30.2304 153.851 30.1037 153.697 30.0175C153.542 29.9313 153.367 29.889 153.19 29.895C152.696 29.895 152.202 30.047 151.707 30.35C151.181 30.6806 150.709 31.09 150.308 31.564C149.854 32.0809 149.459 32.6459 149.128 33.249C148.797 33.8538 148.531 34.4925 148.336 35.154C148.152 35.7492 148.056 36.3681 148.05 36.991C148.05 37.621 148.196 38.126 148.488 38.508C148.78 38.879 149.229 39.064 149.836 39.064C150.263 39.064 150.673 38.941 151.067 38.694C151.471 38.446 151.853 38.036 152.213 37.464C152.436 37.119 152.65 36.706 152.857 36.224ZM151.404 37.935C151.145 38.171 150.915 38.289 150.713 38.289C150.544 38.289 150.415 38.205 150.325 38.036C150.246 37.856 150.207 37.559 150.207 37.143C150.207 36.547 150.274 35.935 150.409 35.306C150.544 34.676 150.724 34.07 150.949 33.486C151.185 32.901 151.443 32.379 151.724 31.918C152.005 31.458 152.286 31.092 152.567 30.822C152.859 30.552 153.134 30.418 153.393 30.418C153.662 30.418 153.853 30.553 153.966 30.822C154.078 31.066 154.107 31.393 154.053 31.802L153.555 33.644L153.612 33.351C153.432 34.07 153.218 34.733 152.971 35.34C152.756 35.8827 152.497 36.4068 152.196 36.907C151.926 37.345 151.662 37.688 151.404 37.935ZM145.784 37.396C145.705 37.666 145.683 37.885 145.717 38.053C145.75 38.222 145.863 38.306 146.054 38.306C146.234 38.306 146.408 38.211 146.576 38.02C146.756 37.817 146.947 37.43 147.149 36.856L147.419 36.098H147.739L147.335 37.328C147.189 37.789 146.992 38.143 146.745 38.39C146.535 38.6197 146.275 38.7986 145.986 38.913C145.733 39.0111 145.465 39.0626 145.194 39.065C144.498 39.065 144.082 38.789 143.947 38.239C143.876 37.9985 143.853 37.7463 143.88 37.497C143.902 37.205 143.969 36.867 144.082 36.486L144.193 36.068C144.032 36.422 143.871 36.741 143.711 37.025C143.329 37.722 142.919 38.239 142.481 38.575C142.054 38.8976 141.532 39.0698 140.997 39.065C140.638 39.065 140.312 38.985 140.02 38.829C139.719 38.6509 139.478 38.3865 139.329 38.07C139.16 37.722 139.076 37.278 139.076 36.739C139.076 36.222 139.16 35.659 139.329 35.053C139.497 34.435 139.739 33.823 140.053 33.216C140.364 32.6151 140.755 32.0594 141.216 31.564C141.677 31.058 142.188 30.654 142.75 30.35C143.326 30.0459 143.969 29.8895 144.621 29.895C144.958 29.895 145.222 29.985 145.413 30.165C145.523 30.262 145.606 30.385 145.66 30.535L146.441 27.586C146.543 27.204 146.526 26.923 146.391 26.743C146.256 26.563 145.913 26.473 145.363 26.473L145.481 26.12C146.143 26.1162 146.802 26.054 147.453 25.934C148.012 25.8149 148.559 25.6459 149.088 25.429L145.784 37.396ZM144.402 34.884C144.552 34.514 144.691 34.124 144.817 33.713L145.546 30.965C145.511 30.801 145.436 30.6479 145.329 30.519C145.263 30.4415 145.18 30.3801 145.087 30.3392C144.993 30.2983 144.892 30.2791 144.79 30.283C144.453 30.283 144.11 30.418 143.762 30.687C143.424 30.957 143.104 31.328 142.801 31.8C142.48 32.2942 142.209 32.8191 141.992 33.367C141.752 33.962 141.566 34.5771 141.436 35.205C141.303 35.8141 141.235 36.4356 141.233 37.059C141.233 37.486 141.278 37.806 141.368 38.019C141.469 38.222 141.627 38.323 141.84 38.323C142.065 38.323 142.323 38.188 142.615 37.918C142.908 37.638 143.205 37.244 143.509 36.738C143.859 36.1467 144.158 35.5265 144.402 34.884Z" fill="#2F2352"/>
<path d="M129.794 38.828H131.867L132.062 38.066L132.052 38.121C132.266 37.334 132.507 36.576 132.777 35.845C133.039 35.1474 133.332 34.4614 133.653 33.789C133.957 33.159 134.26 32.609 134.564 32.137C134.867 31.665 135.159 31.3 135.44 31.041C135.721 30.771 135.979 30.637 136.215 30.637C136.406 30.637 136.524 30.704 136.569 30.839C136.616 30.9922 136.622 31.1549 136.586 31.311C136.552 31.4937 136.507 31.674 136.451 31.851L134.918 36.486C134.76 36.958 134.67 37.362 134.648 37.699C134.625 38.036 134.687 38.312 134.833 38.525C134.946 38.694 135.103 38.823 135.305 38.913C135.519 39.013 135.772 39.065 136.064 39.065C136.333 39.065 136.603 39.014 136.873 38.913C137.154 38.823 137.412 38.654 137.648 38.407C137.895 38.16 138.098 37.8 138.255 37.328L138.676 36.098H138.356L138.086 36.856C137.873 37.441 137.671 37.828 137.48 38.019C137.3 38.211 137.126 38.306 136.957 38.306C136.777 38.306 136.665 38.233 136.62 38.086C136.575 37.93 136.603 37.699 136.704 37.396L138.356 32.44C138.502 32.002 138.575 31.592 138.575 31.21C138.586 30.817 138.48 30.502 138.255 30.266C138.041 30.019 137.659 29.896 137.109 29.896C136.693 29.896 136.294 29.986 135.912 30.165C135.53 30.345 135.159 30.659 134.8 31.109C134.44 31.547 134.069 32.143 133.687 32.895C133.434 33.4023 133.201 33.9197 132.99 34.446L133.552 32.255C133.62 31.985 133.67 31.715 133.704 31.446C133.738 31.166 133.726 30.912 133.67 30.687C133.616 30.4547 133.478 30.2505 133.283 30.114C133.092 29.968 132.811 29.895 132.44 29.895C131.99 29.895 131.58 30.019 131.209 30.266C130.839 30.513 130.535 30.968 130.299 31.631L129.861 32.895H130.181L130.468 32.103C130.67 31.553 130.855 31.176 131.024 30.974C131.204 30.761 131.4 30.654 131.614 30.654C131.771 30.654 131.867 30.699 131.901 30.789C131.945 30.879 131.957 30.991 131.934 31.126C131.909 31.2738 131.875 31.4201 131.833 31.564L129.794 38.828Z" fill="#2F2352"/>
<path fill-rule="evenodd" clip-rule="evenodd" d="M125.498 36.486L125.569 36.224C125.389 36.6544 125.174 37.0692 124.925 37.464C124.565 38.036 124.183 38.447 123.778 38.694C123.385 38.941 122.975 39.064 122.548 39.064C121.941 39.064 121.492 38.879 121.2 38.508C120.907 38.126 120.761 37.621 120.761 36.991C120.761 36.407 120.857 35.795 121.048 35.154C121.243 34.4925 121.508 33.8538 121.84 33.249C122.17 32.6457 122.566 32.0806 123.02 31.564C123.421 31.0901 123.893 30.6806 124.419 30.35C124.913 30.047 125.408 29.895 125.902 29.895C126.284 29.895 126.576 30.058 126.779 30.385C126.887 30.552 126.952 30.768 126.973 31.033L127.217 30.131C127.621 30.12 127.998 30.098 128.346 30.064C128.706 30.03 129.048 29.974 129.374 29.895L127.2 37.38C127.154 37.5172 127.12 37.658 127.099 37.801C127.086 37.9201 127.098 38.0405 127.133 38.155C127.178 38.245 127.273 38.29 127.419 38.29C127.599 38.29 127.784 38.195 127.975 38.004C128.166 37.813 128.363 37.424 128.565 36.841L128.818 36.082H129.138L128.717 37.312C128.56 37.773 128.363 38.132 128.127 38.392C127.917 38.6211 127.658 38.7996 127.369 38.914C127.122 39.013 126.859 39.0645 126.593 39.066C126.054 39.066 125.672 38.897 125.447 38.56C125.301 38.313 125.245 38.01 125.279 37.65C125.318 37.2568 125.392 36.8666 125.498 36.486ZM123.424 38.289C123.627 38.289 123.857 38.171 124.116 37.935C124.374 37.688 124.638 37.345 124.908 36.907C125.177 36.469 125.436 35.947 125.683 35.34C125.93 34.733 126.144 34.07 126.324 33.35L126.267 33.644L126.765 31.803C126.818 31.393 126.789 31.066 126.678 30.823C126.565 30.553 126.374 30.418 126.104 30.418C125.846 30.418 125.571 30.553 125.279 30.822C124.998 31.092 124.717 31.457 124.436 31.918C124.155 32.378 123.896 32.901 123.66 33.485C123.434 34.0769 123.253 34.6853 123.121 35.305C122.989 35.9088 122.921 36.5249 122.919 37.143C122.919 37.559 122.958 37.857 123.037 38.036C123.127 38.205 123.256 38.289 123.424 38.289Z" fill="#2F2352"/>
<path d="M121.93 30.468L121.981 30.131H119.973L120.767 27.367C120.435 27.4488 120.097 27.5053 119.756 27.536C119.408 27.569 119.031 27.592 118.627 27.603L117.902 30.131H116.368L116.284 30.468H117.806L116.081 36.486C115.935 36.98 115.885 37.424 115.93 37.817C115.986 38.199 116.143 38.503 116.402 38.727C116.671 38.952 117.059 39.065 117.565 39.065C118.138 39.065 118.632 38.913 119.048 38.609C119.464 38.306 119.79 37.806 120.026 37.109L120.363 36.098H120.042L119.79 36.789C119.587 37.351 119.363 37.744 119.115 37.969C118.879 38.194 118.643 38.306 118.407 38.306C118.314 38.3091 118.222 38.2908 118.137 38.2527C118.053 38.2146 117.978 38.1575 117.919 38.086C117.806 37.941 117.795 37.711 117.885 37.396L119.876 30.468H121.93ZM116.348 26.777C116.236 27.069 116.084 27.497 115.893 28.058C115.713 28.608 115.534 29.328 115.354 30.215H115.017C115.05 30.058 115.073 29.895 115.084 29.727C115.106 29.5763 115.117 29.4243 115.118 29.272C115.118 28.833 115.028 28.452 114.848 28.126C114.675 27.7841 114.398 27.5063 114.056 27.333C113.708 27.131 113.258 27.03 112.708 27.03C112.112 27.03 111.606 27.187 111.191 27.502C110.775 27.805 110.567 28.294 110.567 28.968C110.567 29.384 110.662 29.778 110.853 30.148C111.056 30.508 111.309 30.862 111.612 31.21C111.927 31.547 112.258 31.89 112.606 32.238C112.955 32.575 113.281 32.924 113.584 33.283C113.887 33.643 114.135 34.025 114.326 34.429C114.528 34.823 114.629 35.255 114.629 35.727C114.629 36.323 114.483 36.834 114.191 37.261C113.906 37.6805 113.532 38.0316 113.095 38.289C112.637 38.5508 112.143 38.7439 111.629 38.862C111.134 38.9942 110.624 39.0624 110.112 39.065C109.606 39.065 109.185 39.025 108.848 38.947C108.56 38.8927 108.282 38.796 108.022 38.66C107.801 38.539 107.582 38.4157 107.364 38.29C107.265 38.2067 107.15 38.1436 107.027 38.104C106.948 38.0645 106.863 38.0414 106.775 38.036C106.628 38.036 106.505 38.109 106.404 38.256C106.271 38.4755 106.159 38.7064 106.067 38.946H105.729C106.007 38.2606 106.239 37.5569 106.421 36.84C106.555 36.323 106.707 35.677 106.876 34.901H107.213C107.166 35.1242 107.127 35.349 107.095 35.575C107.061 35.8 107.05 36.025 107.061 36.25C107.095 37.036 107.336 37.643 107.786 38.07C108.247 38.497 108.921 38.71 109.808 38.71C110.561 38.71 111.129 38.553 111.511 38.239C111.893 37.913 112.084 37.441 112.084 36.823C112.084 36.351 111.994 35.923 111.814 35.542C111.644 35.1457 111.417 34.7764 111.14 34.446C110.854 34.1041 110.556 33.7725 110.247 33.452C109.937 33.1314 109.639 32.7995 109.353 32.457C109.077 32.1167 108.845 31.7431 108.662 31.345C108.478 30.9194 108.386 30.4596 108.393 29.996C108.393 29.435 108.511 28.946 108.747 28.53C108.985 28.1242 109.306 27.7738 109.69 27.502C110.084 27.221 110.523 27.0099 110.988 26.878C111.441 26.7351 111.912 26.6612 112.387 26.659C112.994 26.659 113.494 26.732 113.887 26.879C114.281 27.024 114.618 27.199 114.899 27.401L115.219 27.603C115.32 27.648 115.399 27.67 115.455 27.67C115.612 27.67 115.798 27.373 116.011 26.777H116.348Z" fill="#2F2352"/>
<path fill-rule="evenodd" clip-rule="evenodd" d="M100.078 38.053C100.044 37.885 100.067 37.666 100.146 37.396L103.449 25.429C102.92 25.6459 102.373 25.8149 101.814 25.934C101.241 26.047 100.584 26.108 99.842 26.12L99.724 26.474C100.274 26.474 100.618 26.564 100.752 26.744C100.887 26.924 100.904 27.204 100.803 27.586L100.021 30.535C99.9719 30.3927 99.8872 30.2654 99.775 30.165C99.584 29.985 99.32 29.895 98.983 29.895C98.308 29.895 97.685 30.047 97.112 30.35C96.5356 30.6649 96.0169 31.0754 95.578 31.564C95.1169 32.0591 94.7256 32.6149 94.415 33.216C94.1089 33.8009 93.8659 34.4167 93.69 35.053C93.53 35.601 93.4449 36.1682 93.437 36.739C93.437 37.278 93.522 37.722 93.69 38.07C93.859 38.407 94.089 38.66 94.381 38.828C94.673 38.986 94.999 39.064 95.359 39.064C95.909 39.064 96.404 38.902 96.842 38.576C97.28 38.239 97.69 37.722 98.072 37.025C98.232 36.741 98.393 36.422 98.554 36.068L98.444 36.486C98.3418 36.8151 98.2737 37.1539 98.241 37.497C98.2142 37.7463 98.2369 37.9985 98.308 38.239C98.443 38.789 98.858 39.065 99.556 39.065C99.814 39.065 100.078 39.014 100.348 38.913C100.618 38.812 100.87 38.638 101.106 38.39C101.354 38.143 101.55 37.79 101.696 37.328L102.101 36.098H101.781L101.511 36.856C101.309 37.43 101.118 37.817 100.938 38.019C100.769 38.211 100.595 38.306 100.415 38.306C100.225 38.306 100.112 38.222 100.078 38.053ZM99.178 33.713C99.052 34.124 98.914 34.515 98.763 34.884C98.483 35.604 98.185 36.222 97.87 36.739C97.567 37.244 97.269 37.637 96.977 37.919C96.685 38.188 96.427 38.323 96.201 38.323C95.988 38.323 95.831 38.222 95.73 38.02C95.64 37.806 95.595 37.486 95.595 37.059C95.595 36.452 95.662 35.834 95.797 35.205C95.932 34.565 96.117 33.952 96.353 33.368C96.5705 32.8198 96.8418 32.2946 97.163 31.8C97.466 31.328 97.786 30.957 98.123 30.687C98.471 30.417 98.814 30.283 99.151 30.283C99.376 30.283 99.556 30.362 99.691 30.519C99.785 30.621 99.857 30.769 99.907 30.965L99.178 33.713Z" fill="#2F2352"/>
<path d="M86.228 38.828H84.155L86.195 31.564C86.24 31.407 86.273 31.261 86.295 31.126C86.3201 31.013 86.3085 30.895 86.262 30.789C86.228 30.699 86.132 30.654 85.975 30.654C85.762 30.654 85.565 30.761 85.385 30.974C85.217 31.176 85.031 31.553 84.829 32.104L84.543 32.895H84.223L84.661 31.631C84.897 30.968 85.201 30.513 85.571 30.266C85.941 30.019 86.351 29.896 86.801 29.896C87.172 29.896 87.453 29.968 87.644 30.114C87.8399 30.2503 87.9782 30.4545 88.032 30.687C88.088 30.912 88.099 31.165 88.066 31.446C88.0317 31.7185 87.9809 31.9886 87.914 32.255L87.352 34.447C87.59 33.858 87.822 33.342 88.049 32.895C88.431 32.143 88.801 31.547 89.161 31.109C89.521 30.659 89.891 30.345 90.273 30.165C90.656 29.985 91.054 29.895 91.47 29.895C92.02 29.895 92.403 30.019 92.616 30.266C92.841 30.502 92.948 30.816 92.936 31.21C92.936 31.592 92.864 32.002 92.717 32.44L91.066 37.396C90.964 37.699 90.936 37.93 90.981 38.086C91.026 38.233 91.139 38.306 91.319 38.306C91.487 38.306 91.661 38.211 91.841 38.02C92.032 37.828 92.234 37.44 92.448 36.856L92.718 36.098H93.038L92.616 37.328C92.459 37.8 92.256 38.16 92.01 38.408C91.7982 38.6393 91.5312 38.813 91.234 38.913C90.9758 39.0121 90.7017 39.0636 90.425 39.065C90.133 39.065 89.88 39.014 89.667 38.913C89.464 38.823 89.307 38.693 89.195 38.525C89.049 38.312 88.987 38.036 89.009 37.699C89.032 37.362 89.122 36.958 89.279 36.486L90.813 31.851C90.869 31.671 90.914 31.491 90.948 31.311C90.9834 31.1549 90.9775 30.9922 90.931 30.839C90.886 30.704 90.768 30.637 90.577 30.637C90.341 30.637 90.082 30.772 89.802 31.041C89.521 31.3 89.228 31.665 88.925 32.137C88.5887 32.6688 88.2848 33.2205 88.015 33.789C87.712 34.419 87.419 35.103 87.138 35.845C86.868 36.575 86.628 37.334 86.414 38.121L86.424 38.066L86.228 38.828Z" fill="#2F2352"/>
<path fill-rule="evenodd" clip-rule="evenodd" d="M79.93 36.224L79.86 36.486C79.7538 36.8667 79.6802 37.2558 79.64 37.649C79.606 38.009 79.662 38.312 79.808 38.559C80.033 38.896 80.415 39.065 80.955 39.065C81.2432 39.0629 81.5279 39.002 81.7917 38.8859C82.0555 38.7699 82.2928 38.6011 82.489 38.39C82.725 38.132 82.921 37.772 83.079 37.312L83.499 36.082H83.179L82.927 36.84C82.724 37.424 82.527 37.812 82.337 38.003C82.146 38.193 81.96 38.289 81.781 38.289C81.634 38.289 81.539 38.244 81.494 38.154C81.4588 38.0395 81.4472 37.9191 81.46 37.8C81.483 37.654 81.516 37.514 81.562 37.379L83.736 29.895C83.3978 29.9759 83.0543 30.0323 82.708 30.064C82.359 30.098 81.983 30.12 81.578 30.131L81.334 31.033C81.3236 30.804 81.257 30.5811 81.14 30.384C81.0522 30.2305 80.9243 30.1039 80.77 30.0178C80.6156 29.9316 80.4407 29.8891 80.264 29.895C79.769 29.895 79.274 30.047 78.78 30.35C78.286 30.654 77.82 31.058 77.381 31.564C76.927 32.0806 76.5313 32.6457 76.201 33.249C75.8695 33.8538 75.604 34.4925 75.409 35.154C75.2251 35.7492 75.1288 36.368 75.123 36.991C75.123 37.621 75.269 38.126 75.561 38.508C75.853 38.879 76.303 39.064 76.909 39.064C77.336 39.064 77.747 38.941 78.139 38.694C78.544 38.446 78.927 38.036 79.286 37.464C79.509 37.119 79.723 36.706 79.93 36.224ZM78.477 37.935C78.219 38.171 77.988 38.289 77.786 38.289C77.617 38.289 77.488 38.205 77.398 38.036C77.32 37.856 77.28 37.559 77.28 37.143C77.28 36.547 77.348 35.935 77.483 35.306C77.617 34.676 77.797 34.07 78.022 33.486C78.258 32.901 78.516 32.379 78.797 31.918C79.078 31.458 79.359 31.092 79.64 30.822C79.932 30.552 80.207 30.418 80.466 30.418C80.736 30.418 80.926 30.553 81.039 30.822C81.151 31.066 81.179 31.393 81.126 31.802L80.628 33.644L80.685 33.351C80.505 34.07 80.292 34.733 80.045 35.34C79.797 35.946 79.539 36.469 79.269 36.907C78.999 37.345 78.735 37.688 78.477 37.935Z" fill="#2F2352"/>
<path d="M70.615 38.828H68.542L70.564 31.564C70.665 31.227 70.699 30.991 70.665 30.856C70.632 30.721 70.531 30.654 70.362 30.654C70.149 30.654 69.952 30.761 69.772 30.974C69.592 31.187 69.407 31.564 69.216 32.104L68.929 32.895H68.609L69.047 31.631C69.205 31.181 69.401 30.834 69.637 30.586C69.873 30.328 70.132 30.148 70.413 30.047C70.693 29.946 70.98 29.895 71.273 29.895C71.632 29.895 71.896 29.968 72.064 30.115C72.2427 30.2584 72.3629 30.4622 72.402 30.688C72.458 30.924 72.469 31.182 72.435 31.463C72.413 31.733 72.368 31.997 72.3 32.255L72.03 33.312L72.057 33.239L72.098 33.132C72.413 32.334 72.716 31.699 73.008 31.227C73.312 30.744 73.632 30.401 73.969 30.199C74.2992 29.9983 74.6786 29.8931 75.065 29.895C75.469 29.895 75.778 30.013 75.992 30.249C76.216 30.485 76.329 30.777 76.329 31.126C76.329 31.406 76.261 31.671 76.126 31.918C75.9952 32.1497 75.8103 32.3463 75.587 32.491C75.3642 32.6283 75.1066 32.6984 74.845 32.693C74.565 32.693 74.34 32.62 74.171 32.474C74.014 32.328 73.935 32.114 73.935 31.834C73.935 31.586 73.991 31.362 74.104 31.159C74.216 30.957 74.362 30.789 74.542 30.654C74.722 30.508 74.918 30.407 75.132 30.35C75.1083 30.327 75.0795 30.3098 75.048 30.3C75.0256 30.2924 75.0025 30.2874 74.979 30.285C74.9624 30.2834 74.9457 30.2827 74.929 30.283C74.683 30.283 74.429 30.373 74.171 30.553C73.913 30.721 73.643 30.997 73.362 31.379C73.082 31.761 72.795 32.266 72.502 32.895C72.1725 33.6387 71.8802 34.3983 71.626 35.171C71.499 35.544 71.371 35.947 71.243 36.378L70.615 38.828Z" fill="#2F2352"/>
<path fill-rule="evenodd" clip-rule="evenodd" d="M67.462 27.519C66.9 27.114 66.001 26.912 64.765 26.912C64.383 26.912 64.001 26.918 63.618 26.929C63.248 26.94 62.821 26.946 62.338 26.946H61.495C61.191 26.934 60.905 26.929 60.635 26.929C60.4103 26.9191 60.1856 26.9078 59.961 26.895L59.877 27.232C60.315 27.232 60.613 27.288 60.77 27.401C60.939 27.501 61.017 27.659 61.006 27.873C60.9833 28.1459 60.9382 28.4165 60.871 28.682L58.646 37.042C58.546 37.446 58.433 37.75 58.309 37.952C58.197 38.1452 58.0169 38.2897 57.804 38.357C57.59 38.424 57.292 38.469 56.91 38.491L56.843 38.828C57.033 38.818 57.264 38.812 57.533 38.812C57.803 38.8 58.09 38.795 58.393 38.795C59.2413 38.7692 60.0902 38.7749 60.938 38.812C61.399 38.822 61.821 38.829 62.203 38.829C62.933 38.829 63.624 38.755 64.276 38.609C64.877 38.4727 65.4518 38.2397 65.978 37.919C66.4488 37.6386 66.8472 37.2515 67.141 36.789C67.433 36.339 67.579 35.812 67.579 35.205C67.579 34.519 67.299 33.929 66.737 33.435C66.187 32.94 65.315 32.648 64.124 32.558C64.8671 32.4513 65.5891 32.2297 66.264 31.901C66.894 31.575 67.388 31.176 67.748 30.704C68.1104 30.2559 68.3068 29.6963 68.304 29.12C68.304 28.446 68.025 27.912 67.462 27.519ZM62.082 32.778L60.955 37.042C60.888 37.322 60.843 37.57 60.821 37.783C60.809 37.997 60.865 38.16 60.989 38.273C61.113 38.385 61.343 38.441 61.68 38.441C62.478 38.441 63.13 38.289 63.635 37.986C64.1298 37.695 64.524 37.26 64.765 36.739C65.012 36.199 65.135 35.592 65.135 34.919C65.135 34.502 65.062 34.137 64.916 33.823C64.7875 33.504 64.5563 33.237 64.259 33.064C63.956 32.873 63.551 32.778 63.045 32.778H62.082ZM62.158 32.491H62.928C63.568 32.491 64.113 32.328 64.562 32.002C65.023 31.665 65.372 31.227 65.608 30.688C65.8538 30.154 65.98 29.5728 65.978 28.985C65.978 28.423 65.866 27.991 65.641 27.687C65.428 27.384 65.051 27.232 64.511 27.232C64.119 27.232 63.838 27.311 63.669 27.468C63.501 27.614 63.355 27.934 63.231 28.428L62.158 32.491Z" fill="#2F2352"/>
</g>
<defs>
<clipPath id="clip0_28_2406">
<rect width="174" height="39" fill="white" transform="translate(0.5 0.5)"/>
</clipPath>
</defs>
</svg>
