<svg width="169" height="42" viewBox="0 0 169 42" fill="none" xmlns="http://www.w3.org/2000/svg">
<g clip-path="url(#clip0_28_2534)">
<path d="M49.7775 29.4524H61.7295V25.8524H54.0255V12.2924H49.7775V29.4524Z" fill="#3C2B1F"/>
<path d="M68.8107 27.0524C67.1067 27.0524 66.2187 25.5644 66.2187 23.3324C66.2187 21.1004 67.1067 19.5884 68.8107 19.5884C70.5147 19.5884 71.4267 21.1004 71.4267 23.3324C71.4267 25.5644 70.5147 27.0524 68.8107 27.0524ZM68.8347 29.8364C72.7947 29.8364 75.3867 27.0284 75.3867 23.3324C75.3867 19.6364 72.7947 16.8284 68.8347 16.8284C64.8987 16.8284 62.2587 19.6364 62.2587 23.3324C62.2587 27.0284 64.8987 29.8364 68.8347 29.8364Z" fill="#3C2B1F"/>
<path d="M82.2411 33.7004C84.0651 33.7004 85.6731 33.2924 86.7531 32.3324C87.7371 31.4444 88.3851 30.1004 88.3851 28.2524V17.1644H84.6411V18.4844H84.5931C83.8731 17.4524 82.7691 16.8044 81.1371 16.8044C78.0891 16.8044 75.9771 19.3484 75.9771 22.9484C75.9771 26.7164 78.5451 28.7804 81.3051 28.7804C82.7931 28.7804 83.7291 28.1804 84.4491 27.3644H84.5451V28.5884C84.5451 30.0764 83.8491 30.9404 82.1931 30.9404C80.8971 30.9404 80.2491 30.3884 80.0331 29.7404H76.2411C76.6251 32.3084 78.8571 33.7004 82.2411 33.7004ZM82.2171 25.8764C80.7531 25.8764 79.7931 24.6764 79.7931 22.8284C79.7931 20.9564 80.7531 19.7564 82.2171 19.7564C83.8491 19.7564 84.7131 21.1484 84.7131 22.8044C84.7131 24.5324 83.9211 25.8764 82.2171 25.8764Z" fill="#3C2B1F"/>
<path d="M96.0835 27.0524C94.3795 27.0524 93.4915 25.5644 93.4915 23.3324C93.4915 21.1004 94.3795 19.5884 96.0835 19.5884C97.7875 19.5884 98.6995 21.1004 98.6995 23.3324C98.6995 25.5644 97.7875 27.0524 96.0835 27.0524ZM96.1075 29.8364C100.067 29.8364 102.659 27.0284 102.659 23.3324C102.659 19.6364 100.067 16.8284 96.1075 16.8284C92.1715 16.8284 89.5315 19.6364 89.5315 23.3324C89.5315 27.0284 92.1715 29.8364 96.1075 29.8364Z" fill="#3C2B1F"/>
<path d="M103.802 29.4524H107.714V17.1644H103.802V29.4524ZM103.802 15.4604H107.714V12.2924H103.802V15.4604Z" fill="#3C2B1F"/>
<path d="M109.411 33.5084H113.323V28.1804H113.371C114.139 29.2124 115.267 29.8364 116.851 29.8364C120.067 29.8364 122.203 27.2924 122.203 23.3084C122.203 19.6124 120.211 16.8044 116.947 16.8044C115.267 16.8044 114.067 17.5484 113.227 18.6524H113.155V17.1644H109.411V33.5084ZM115.843 26.8124C114.163 26.8124 113.203 25.4444 113.203 23.4524C113.203 21.4604 114.067 19.9484 115.771 19.9484C117.451 19.9484 118.243 21.3404 118.243 23.4524C118.243 25.5404 117.331 26.8124 115.843 26.8124Z" fill="#3C2B1F"/>
<path d="M128.572 29.8364C131.788 29.8364 134.164 28.4444 134.164 25.7564C134.164 22.6124 131.62 22.0604 129.46 21.7004C127.9 21.4124 126.508 21.2924 126.508 20.4284C126.508 19.6604 127.252 19.3004 128.212 19.3004C129.292 19.3004 130.036 19.6364 130.18 20.7404H133.78C133.588 18.3164 131.716 16.8044 128.236 16.8044C125.332 16.8044 122.932 18.1484 122.932 20.7404C122.932 23.6204 125.212 24.1964 127.348 24.5564C128.98 24.8444 130.468 24.9644 130.468 26.0684C130.468 26.8604 129.724 27.2924 128.548 27.2924C127.252 27.2924 126.436 26.6924 126.292 25.4684H122.596C122.716 28.1804 124.972 29.8364 128.572 29.8364Z" fill="#3C2B1F"/>
<path d="M139.478 29.8124C141.182 29.8124 142.262 29.1404 143.15 27.9404H143.222V29.4524H146.966V17.1644H143.054V24.0284C143.054 25.4924 142.238 26.5004 140.894 26.5004C139.646 26.5004 139.046 25.7564 139.046 24.4124V17.1644H135.158V25.2284C135.158 27.9644 136.646 29.8124 139.478 29.8124Z" fill="#3C2B1F"/>
<path d="M148.668 29.4524H152.58V22.5644C152.58 21.1004 153.3 20.0684 154.524 20.0684C155.7 20.0684 156.252 20.8364 156.252 22.1564V29.4524H160.164V22.5644C160.164 21.1004 160.86 20.0684 162.108 20.0684C163.284 20.0684 163.836 20.8364 163.836 22.1564V29.4524H167.748V21.4604C167.748 18.7004 166.356 16.8044 163.572 16.8044C161.988 16.8044 160.668 17.4764 159.708 18.9644H159.66C159.036 17.6444 157.812 16.8044 156.204 16.8044C154.428 16.8044 153.252 17.6444 152.484 18.9164H152.412V17.1644H148.668V29.4524Z" fill="#3C2B1F"/>
<path d="M25.9099 2.47689L21.9769 1.42303L18.6625 13.7926L15.6702 2.62527L11.7371 3.67913L14.9701 15.7446L6.91746 7.69201L4.03827 10.5712L12.871 19.404L1.87124 16.4566L0.817383 20.3896L12.836 23.61C12.6984 23.0165 12.6256 22.3981 12.6256 21.7627C12.6256 17.2651 16.2716 13.6191 20.7692 13.6191C25.2668 13.6191 28.9128 17.2651 28.9128 21.7627C28.9128 22.394 28.8409 23.0086 28.705 23.5986L39.6277 26.5253L40.6815 22.5923L28.6151 19.3591L39.6156 16.4115L38.5617 12.4785L26.4958 15.7115L34.5484 7.65895L31.6692 4.77976L22.959 13.49L25.9099 2.47689Z" fill="#F97316"/>
<path d="M28.6943 23.6444C28.3571 25.07 27.6452 26.3507 26.6684 27.3768L34.5814 35.2899L37.4606 32.4107L28.6943 23.6444Z" fill="#F97316"/>
<path d="M26.5884 27.4596C25.5998 28.4693 24.3505 29.2228 22.9495 29.6111L25.8289 40.3571L29.7619 39.3032L26.5884 27.4596Z" fill="#F97316"/>
<path d="M22.8026 29.6504C22.1526 29.8175 21.4713 29.9063 20.7692 29.9063C20.017 29.9063 19.2886 29.8043 18.5971 29.6134L15.7151 40.3692L19.6481 41.423L22.8026 29.6504Z" fill="#F97316"/>
<path d="M18.4581 29.5737C17.0785 29.1661 15.8514 28.403 14.883 27.3904L6.9505 35.3229L9.82969 38.2021L18.4581 29.5737Z" fill="#F97316"/>
<path d="M14.8168 27.3203C13.865 26.3013 13.1717 25.0377 12.8417 23.6341L1.88336 26.5704L2.93721 30.5034L14.8168 27.3203Z" fill="#F97316"/>
</g>
<defs>
<clipPath id="clip0_28_2534">
<rect width="168" height="41" fill="white" transform="translate(0.5 0.5)"/>
</clipPath>
</defs>
</svg>
