<svg width="187" height="42" viewBox="0 0 187 42" fill="none" xmlns="http://www.w3.org/2000/svg">
<g clip-path="url(#clip0_28_2482)">
<path fill-rule="evenodd" clip-rule="evenodd" d="M59.5372 3.22867C59.5372 1.83928 60.6758 0.712952 62.0805 0.712952H66.5111C67.5108 0.712952 68.4797 1.05565 69.2527 1.68271L70.6005 2.77599L70.6342 2.8064C70.6653 2.79602 70.6964 2.78588 70.7276 2.77599C73.1592 2.0056 76.1094 1.85909 79.1205 1.85909C82.1316 1.85909 85.0818 2.0056 87.5134 2.77599C87.5446 2.78588 87.5757 2.79602 87.6068 2.8064L87.6405 2.77599L88.9883 1.68271C89.7613 1.05565 90.7302 0.712952 91.7299 0.712952H96.1605C97.5652 0.712952 98.7038 1.83928 98.7038 3.22867V4.78385C98.7038 5.9871 98.1914 7.13469 97.2922 7.94509L96.2049 8.92508C95.6741 9.4035 95.037 9.75168 94.345 9.9415L94.0878 10.0121C95.0953 12.39 95.6519 14.9318 95.6519 16.988C95.6519 25.2594 90.478 28.8317 85.9192 31.9793C82.3291 34.4581 79.1205 36.6734 79.1205 40.713C79.1205 36.6734 75.9119 34.4581 72.3218 31.9793C67.763 28.8317 62.5891 25.2594 62.5891 16.988C62.5891 14.9318 63.1457 12.39 64.1532 10.0121L63.896 9.9415C63.204 9.75168 62.5669 9.4035 62.0361 8.92508L60.9488 7.94509C60.0496 7.13469 59.5372 5.9871 59.5372 4.78385V3.22867ZM82.4268 23.7502C82.4268 24.1454 82.2526 24.5243 81.9426 24.8038C81.6326 25.0832 81.2121 25.2402 80.7736 25.2402C80.3951 25.2402 80.0299 25.1231 79.7377 24.9113C80.2351 26.2283 81.508 27.4762 83.4441 25.4694C85.1533 23.6047 83.3681 19.6718 81.6289 17.338C81.0492 16.5601 80.0975 16.1857 79.1205 16.1857C78.1435 16.1857 77.1918 16.5601 76.6121 17.338C74.8729 19.6718 73.0877 23.6047 74.7969 25.4694C76.733 27.4762 78.0059 26.2283 78.5033 24.9113C78.2111 25.1231 77.8459 25.2402 77.4674 25.2402C77.0289 25.2402 76.6084 25.0832 76.2984 24.8038C75.9884 24.5243 75.8142 24.1454 75.8142 23.7502H82.4268ZM72.7898 12.1081H68.1844L71.8139 14.9828C72.6126 15.6153 73.78 15.4131 74.2742 14.5566C74.8982 13.4752 74.0694 12.1081 72.7898 12.1081ZM85.4512 12.1081H90.0566L86.4271 14.9828C85.6284 15.6153 84.461 15.4131 83.9668 14.5566C83.3428 13.4752 84.1716 12.1081 85.4512 12.1081Z" fill="#72B800"/>
<path d="M104.19 29.0463H108.27V13.6563H104.19V29.0463ZM104.19 11.2563H108.27V7.59631H104.19V11.2563Z" fill="#355030"/>
<path d="M110.899 34.0863H114.979V27.3063H115.039C115.909 28.6263 117.319 29.4963 119.479 29.4963C123.439 29.4963 126.139 26.3463 126.139 21.3663C126.139 16.5663 123.529 13.2363 119.449 13.2363C117.349 13.2363 115.909 14.2263 114.919 15.5763H114.829V13.6563H110.899V34.0863ZM118.609 26.1063C116.179 26.1063 114.889 24.2763 114.889 21.4863C114.889 18.7263 115.909 16.5363 118.459 16.5363C120.979 16.5363 121.999 18.5763 121.999 21.4863C121.999 24.3963 120.679 26.1063 118.609 26.1063Z" fill="#355030"/>
<path d="M134.278 29.4963C138.118 29.4963 140.758 27.6363 140.758 24.5463C140.758 20.9463 137.908 20.2263 135.328 19.6863C133.138 19.2363 131.098 19.1163 131.098 17.7963C131.098 16.6863 132.148 16.0863 133.738 16.0863C135.478 16.0863 136.528 16.6863 136.708 18.3363H140.398C140.098 15.2463 137.848 13.2363 133.798 13.2363C130.288 13.2363 127.528 14.8263 127.528 18.1563C127.528 21.5163 130.228 22.2663 132.988 22.8063C135.088 23.2263 137.038 23.3763 137.038 24.8463C137.038 25.9263 136.018 26.6163 134.218 26.6163C132.388 26.6163 131.128 25.8363 130.858 24.0663H127.078C127.318 27.3363 129.808 29.4963 134.278 29.4963Z" fill="#355030"/>
<path d="M156.249 29.0463V13.6563H152.169V22.5363C152.169 24.5763 150.999 26.0163 149.079 26.0163C147.339 26.0163 146.529 25.0263 146.529 23.2263V13.6563H142.479V23.9163C142.479 27.2763 144.399 29.4663 147.819 29.4663C149.979 29.4663 151.179 28.6563 152.229 27.2463H152.319V29.0463H156.249Z" fill="#355030"/>
<path d="M158.888 29.0463H162.968V20.1063C162.968 18.0663 164.078 16.7463 165.728 16.7463C167.228 16.7463 168.098 17.6463 168.098 19.3863V29.0463H172.178V20.1063C172.178 18.0663 173.228 16.7463 174.938 16.7463C176.438 16.7463 177.308 17.6463 177.308 19.3863V29.0463H181.388V18.6963C181.388 15.3363 179.558 13.2363 176.318 13.2363C174.368 13.2363 172.748 14.2563 171.698 15.9363H171.638C170.888 14.3163 169.328 13.2363 167.378 13.2363C165.248 13.2363 163.748 14.3163 162.908 15.7263H162.818V13.6563H158.888V29.0463Z" fill="#355030"/>
<path d="M1.18408 29.0463H5.26408V7.59631H1.18408V29.0463Z" fill="#355030"/>
<path d="M15.2402 29.4963C20.0102 29.4963 23.2802 25.9563 23.2802 21.3663C23.2802 16.7763 20.0102 13.2363 15.2402 13.2363C10.4702 13.2363 7.2002 16.7763 7.2002 21.3663C7.2002 25.9563 10.4702 29.4963 15.2402 29.4963ZM15.2402 26.3763C12.7202 26.3763 11.3402 24.3663 11.3402 21.3663C11.3402 18.3663 12.7202 16.3263 15.2402 16.3263C17.7302 16.3263 19.1402 18.3663 19.1402 21.3663C19.1402 24.3663 17.7302 26.3763 15.2402 26.3763Z" fill="#355030"/>
<path d="M31.9568 34.2963C34.2368 34.2963 36.2168 33.7563 37.5068 32.5563C38.6468 31.5063 39.3368 30.0363 39.3368 27.8763V13.6563H35.4068V15.2763H35.3468C34.4168 13.9863 33.0068 13.2363 31.0868 13.2363C27.1868 13.2363 24.4268 16.1763 24.4268 20.7663C24.4268 25.4163 27.7868 28.1163 31.2068 28.1163C33.1568 28.1163 34.3268 27.3363 35.2268 26.3163H35.3168V27.9963C35.3168 30.0963 34.2068 31.2063 31.8968 31.2063C30.0068 31.2063 29.1368 30.4563 28.8068 29.4963H24.7568C25.1768 32.4963 27.7568 34.2963 31.9568 34.2963ZM31.8968 24.8463C29.7968 24.8463 28.4168 23.3163 28.4168 20.7063C28.4168 18.1263 29.7968 16.5063 31.8668 16.5063C34.3268 16.5063 35.5268 18.4263 35.5268 20.6763C35.5268 22.9563 34.4768 24.8463 31.8968 24.8463Z" fill="#355030"/>
<path d="M49.2539 29.4963C54.0239 29.4963 57.2939 25.9563 57.2939 21.3663C57.2939 16.7763 54.0239 13.2363 49.2539 13.2363C44.4839 13.2363 41.2139 16.7763 41.2139 21.3663C41.2139 25.9563 44.4839 29.4963 49.2539 29.4963ZM49.2539 26.3763C46.7339 26.3763 45.3539 24.3663 45.3539 21.3663C45.3539 18.3663 46.7339 16.3263 49.2539 16.3263C51.7439 16.3263 53.1539 18.3663 53.1539 21.3663C53.1539 24.3663 51.7439 26.3763 49.2539 26.3763Z" fill="#355030"/>
<path d="M181.204 10.2963C181.204 9.6059 181.763 9.04626 182.454 9.04626H184.954C185.644 9.04626 186.204 9.6059 186.204 10.2963C186.204 10.9866 185.644 11.5463 184.954 11.5463H182.454C181.763 11.5463 181.204 10.9866 181.204 10.2963Z" fill="#355030"/>
</g>
<defs>
<clipPath id="clip0_28_2482">
<rect width="186" height="41" fill="white" transform="translate(0.5 0.5)"/>
</clipPath>
</defs>
</svg>
