<svg width="48" height="49" viewBox="0 0 48 49" fill="none" xmlns="http://www.w3.org/2000/svg">
<path d="M0 24.5215C0 37.7763 10.7452 48.5215 24 48.5215C37.2548 48.5215 48 37.7763 48 24.5215C48 11.2667 37.2548 0.521484 24 0.521484C10.7452 0.521484 0 11.2667 0 24.5215Z" fill="white"/>
<path d="M36 24.5215C36 17.9215 30.6 12.5215 24 12.5215C17.4 12.5215 12 17.9215 12 24.5215C12 30.5215 16.35 35.4715 22.05 36.3715V27.9715H19.05V24.5215H22.05V21.8215C22.05 18.8215 23.85 17.1715 26.55 17.1715C27.9 17.1715 29.25 17.4715 29.25 17.4715V20.4715H27.75C26.25 20.4715 25.8 21.3715 25.8 22.2715V24.5215H29.1L28.5 27.9715H25.65V36.5215C31.65 35.6215 36 30.5215 36 24.5215Z" fill="#05274C"/>
</svg>
