<svg width="28" height="29" viewBox="0 0 28 29" fill="none" xmlns="http://www.w3.org/2000/svg">
<path d="M26.7663 11.8319C26.7663 13.2713 25.5128 13.7547 24.9419 13.7547L20.6588 13.746C20.556 13.746 20.4575 13.7941 20.3941 13.8772C20.3503 13.9341 20.3285 14.0041 20.3285 14.0741C20.3285 14.1047 20.3328 14.1376 20.3416 14.1682C20.4356 14.4788 20.4816 14.7785 20.4816 15.0563C20.4816 15.8876 20.055 16.4257 19.6963 16.7297C19.5569 16.8492 19.4452 16.9976 19.3689 17.1645C19.2926 17.3315 19.2535 17.5131 19.2544 17.6966C19.2544 17.8322 19.2763 17.9657 19.3178 18.0926C19.3703 18.2522 19.3966 18.4229 19.3966 18.6001C19.3966 18.8822 19.3288 19.1863 19.1953 19.4969C19.0181 19.9082 18.7053 20.2166 18.4713 20.4026C18.2241 20.5994 17.8085 21.0041 17.8085 21.4963C17.8085 21.5707 17.8172 21.6429 17.8369 21.7129C17.8653 21.8179 17.8806 21.9426 17.8806 22.0738C17.8806 22.671 17.5831 23.4541 16.7475 23.8522C15.995 24.2132 11.83 24.2044 10.4628 24.2001C6.86439 24.1935 1.73908 21.7129 1.68658 21.6866C1.66908 21.6779 1.65158 21.6713 1.63189 21.6647C1.39783 21.5991 1.23376 21.3826 1.23376 21.1397L1.30814 12.4488C1.31251 12.1994 1.48751 11.9829 1.73251 11.9238L2.0147 11.8582C3.40814 11.5344 4.64845 10.7207 5.60658 9.50662C5.8122 9.2463 6.0572 9.02318 6.33501 8.84162C7.83345 7.87037 9.15033 7.33443 10.4235 6.81818C11.6288 6.33037 12.7663 5.8688 13.941 5.08349C14.2035 4.90849 14.9253 4.78162 15.5028 4.97412C15.8747 5.09662 16.1241 5.32849 16.24 5.66099C16.3341 5.92787 16.38 6.17068 16.38 6.40256C16.38 7.22724 15.7653 7.94912 14.385 8.74537C12.9128 9.5963 12.5256 9.6488 12.5103 9.65099C12.3331 9.65755 12.1975 9.80193 12.1975 9.97912V9.98349C12.1997 10.1629 12.3506 10.3051 12.53 10.3072L25.0141 10.3335C25.4713 10.3335 26.7663 10.6091 26.7663 11.8319Z" fill="url(#paint0_linear_35_4782)"/>
<path d="M0.90564 21.1396L1.56189 21.1352L1.63845 12.453C1.64064 12.3524 1.70845 12.2649 1.80689 12.243L2.08908 12.1774C3.5547 11.8361 4.86064 10.983 5.86251 9.70768C6.04626 9.4758 6.26501 9.27674 6.5122 9.11487C7.98439 8.15893 9.28595 7.63174 10.546 7.11987C11.7666 6.62549 12.9194 6.15737 14.1225 5.35455C14.2713 5.25612 14.8838 5.11174 15.4 5.28455C15.7653 5.40705 15.8791 5.61924 15.9316 5.77018C16.0147 6.00205 16.0541 6.20768 16.0541 6.40237C16.0541 6.86831 15.8463 7.52455 14.2231 8.4608C12.9828 9.17612 12.5497 9.30518 12.4731 9.32268C12.3131 9.33539 12.1633 9.40629 12.0521 9.52198C11.9408 9.63767 11.8758 9.79012 11.8694 9.95049V9.97674C11.8694 10.318 12.1319 10.6046 12.4753 10.6308C12.4928 10.633 12.5125 10.633 12.5322 10.633L25.0163 10.6592C25.0294 10.6592 26.436 10.7096 26.436 11.8296C26.436 13.1399 25.2372 13.4242 24.9419 13.4242L20.6566 13.4155C20.4488 13.4155 20.2541 13.5139 20.1294 13.6802C20.0683 13.7621 20.0274 13.8573 20.0099 13.958C19.9925 14.0587 19.9989 14.1621 20.0288 14.2599C20.1141 14.5399 20.1556 14.8067 20.1556 15.0539C20.1556 15.6205 19.9303 16.0996 19.4863 16.478C19.3107 16.6282 19.1699 16.8148 19.0736 17.0248C18.9773 17.2348 18.9278 17.4632 18.9285 17.6942C18.9285 17.8649 18.9547 18.0311 19.0072 18.193C19.0488 18.3199 19.0706 18.4555 19.0706 18.5999C19.0706 18.8383 19.0116 19.0964 18.8956 19.3677C18.7469 19.7177 18.4735 19.9824 18.27 20.1442C17.9769 20.3783 17.4847 20.8639 17.4847 21.4939C17.4847 21.5967 17.4978 21.6996 17.5263 21.798C17.546 21.8724 17.5591 21.9708 17.5591 22.0736C17.5591 22.5724 17.3097 23.2221 16.6119 23.5567C16.2991 23.7055 14.98 23.8827 10.4694 23.8739C6.94533 23.8652 1.88126 21.4174 1.83095 21.3933C1.79595 21.3758 1.75876 21.3627 1.72158 21.3517C1.62751 21.3255 1.56189 21.238 1.56189 21.1417L0.90564 21.1396ZM0.90564 21.1396C0.90564 21.5311 1.16595 21.8746 1.5422 21.9817C1.5422 21.9817 6.74627 24.5214 10.4628 24.528C12.9894 24.5324 16.1591 24.4974 16.8897 24.1474C17.8785 23.6749 18.2088 22.7539 18.2088 22.0714C18.2088 21.9052 18.1891 21.7521 18.1541 21.623C18.1431 21.5792 18.1366 21.5355 18.1366 21.4917C18.1366 21.1767 18.421 20.8574 18.6747 20.6561C18.9635 20.4264 19.2981 20.083 19.495 19.6236C19.6613 19.2342 19.7225 18.8908 19.7225 18.5977C19.7225 18.3614 19.6831 18.158 19.6285 17.9874C19.5978 17.8911 19.5825 17.7927 19.5825 17.6921C19.5825 17.4208 19.6985 17.1561 19.9106 16.9746C20.3328 16.6158 20.8097 15.9989 20.8097 15.0517C20.8097 14.7564 20.7638 14.4305 20.6544 14.0696L24.9397 14.0783C25.6331 14.0783 27.0922 13.5052 27.0922 11.8274C27.0922 10.4405 25.7053 10.0008 25.0163 10.0008L12.5322 9.97455C12.5847 9.97237 12.9894 9.92862 14.5513 9.02737C16.0147 8.18299 16.7103 7.37143 16.7103 6.40018C16.7103 6.13112 16.6556 5.84674 16.5506 5.54924C16.1022 4.28924 14.3085 4.44237 13.7594 4.80768C11.3794 6.3958 9.10001 6.65174 6.15564 8.56362C5.84814 8.76364 5.57547 9.01266 5.34845 9.3008C4.4822 10.4011 3.30533 11.2192 1.94033 11.5364L1.65814 11.6021C1.46729 11.6477 1.29715 11.7558 1.1747 11.9092C1.05226 12.0625 0.984508 12.2524 0.982202 12.4486L0.90564 21.1308V21.1396Z" fill="#EDA600"/>
<path d="M16.2509 13.5252L20.8797 13.4246L20.5078 13.9606C20.5078 14.0896 20.3394 14.1881 20.1469 14.1727L16.2444 14.0043C15.8572 13.9737 15.8616 13.5449 16.2509 13.5252Z" fill="#EDA600"/>
<path d="M10.7778 9.99004L12.3025 9.37535L12.8428 9.16973L12.6525 9.89598L12.4468 10.6025L10.8106 10.5829C10.5087 10.585 10.5393 10.1125 10.7778 9.99004Z" fill="#EDA600"/>
<path d="M16.1635 17.2677L19.0225 17.0992C19.1516 17.0883 19.0772 17.6505 19.0772 17.6505C19.0772 17.7796 18.9613 17.878 18.83 17.8627L16.1547 17.6942C15.89 17.6658 15.8966 17.2896 16.1635 17.2677Z" fill="#EDA600"/>
<path d="M16.2137 20.9059L17.7537 20.7374C17.8237 20.7265 17.7821 21.2887 17.7821 21.2887C17.7821 21.4177 17.7209 21.5162 17.6487 21.5009L16.2093 21.3324C16.0671 21.3018 16.0715 20.9256 16.2137 20.9059Z" fill="#EDA600"/>
<defs>
<linearGradient id="paint0_linear_35_4782" x1="26.7592" y1="14.5661" x2="1.2529" y2="14.5126" gradientUnits="userSpaceOnUse">
<stop offset="0.128" stop-color="#FFB300"/>
<stop offset="0.647" stop-color="#FFCA28"/>
</linearGradient>
</defs>
</svg>
