<svg width="40" height="41" viewBox="0 0 40 41" fill="none" xmlns="http://www.w3.org/2000/svg">
<rect y="0.540039" width="40" height="40" rx="20" fill="#3375D9" fill-opacity="0.25"/>
<path d="M22.5 30.04V27.74L23.8 27.99C25.25 28.29 26.6 27.24 26.7 25.79L27 22.54L28.45 21.94C28.95 21.74 29.15 21.14 28.85 20.64L27 17.54C26.7 13.74 24.55 10.04 19 10.04C13.3 10.04 10.5 14.24 10.5 18.54C10.5 20.39 11.15 21.99 12.15 23.34C13.05 24.59 13.5 26.09 13.5 27.59V29.99H22.5V30.04Z" fill="#FFB74D"/>
<path d="M22.5 30.04V27.74L19 27.04V30.04H22.5Z" fill="#FF9800"/>
<path d="M24 19.29C24 19.489 24.079 19.6797 24.2197 19.8204C24.3603 19.961 24.5511 20.04 24.75 20.04C24.9489 20.04 25.1397 19.961 25.2803 19.8204C25.421 19.6797 25.5 19.489 25.5 19.29C25.5 19.0911 25.421 18.9004 25.2803 18.7597C25.1397 18.6191 24.9489 18.54 24.75 18.54C24.5511 18.54 24.3603 18.6191 24.2197 18.7597C24.079 18.9004 24 19.0911 24 19.29Z" fill="#784719"/>
<path d="M18.7 10.04C14.15 10.04 10.5 13.69 10.5 18.24C10.5 23.79 13.5 23.94 13.5 27.54L14.8 27.09C15.85 26.74 16.75 25.94 17.15 24.89L18.55 21.49L21.5 20.04V17.04C21.5 17.04 25 15.14 25 11.89C23.5 10.64 20.85 10.04 18.7 10.04Z" fill="#FF5722"/>
<path d="M18.5 9.59009C18.2 9.59009 18 9.79009 18 10.0901V17.0401C18 17.3401 18.2 17.5401 18.5 17.5401C18.8 17.5401 19 17.3401 19 17.0401V10.0901C19 9.79009 18.8 9.59009 18.5 9.59009ZM26.45 24.4901C22.5 24.4901 21.3 22.0401 21.25 21.9401C21.15 21.6901 20.85 21.5901 20.6 21.6901C20.35 21.7901 20.25 22.0901 20.35 22.3401C20.4 22.4901 21.85 25.4901 26.45 25.4901C26.75 25.4901 26.95 25.2901 26.95 24.9901C26.95 24.6901 26.7 24.4901 26.45 24.4901Z" fill="#546E7A"/>
<path d="M25.5 25.0399C25.5 25.1713 25.5258 25.3013 25.5761 25.4227C25.6263 25.544 25.7 25.6543 25.7928 25.7472C25.8857 25.84 25.9959 25.9137 26.1173 25.964C26.2386 26.0142 26.3687 26.0401 26.5 26.0401C26.6313 26.0401 26.7614 26.0142 26.8827 25.964C27.0041 25.9137 27.1143 25.84 27.2072 25.7472C27.3 25.6543 27.3737 25.544 27.4239 25.4227C27.4742 25.3013 27.5 25.1713 27.5 25.0399C27.5 24.9086 27.4742 24.7786 27.4239 24.6572C27.3737 24.5359 27.3 24.4256 27.2072 24.3327C27.1143 24.2399 27.0041 24.1662 26.8827 24.1159C26.7614 24.0657 26.6313 24.0398 26.5 24.0398C26.3687 24.0398 26.2386 24.0657 26.1173 24.1159C25.9959 24.1662 25.8857 24.2399 25.7928 24.3327C25.7 24.4256 25.6263 24.5359 25.5761 24.6572C25.5258 24.7786 25.5 24.9086 25.5 25.0399Z" fill="#37474F"/>
<path d="M15 20.04C15 20.4997 15.0905 20.9548 15.2664 21.3794C15.4423 21.8041 15.7001 22.1899 16.0251 22.5149C16.3501 22.8399 16.736 23.0977 17.1606 23.2736C17.5852 23.4495 18.0404 23.54 18.5 23.54C18.9596 23.54 19.4148 23.4495 19.8394 23.2736C20.264 23.0977 20.6499 22.8399 20.9749 22.5149C21.2999 22.1899 21.5577 21.8041 21.7336 21.3794C21.9095 20.9548 22 20.4997 22 20.04C22 19.5804 21.9095 19.1253 21.7336 18.7006C21.5577 18.276 21.2999 17.8902 20.9749 17.5652C20.6499 17.2402 20.264 16.9824 19.8394 16.8065C19.4148 16.6306 18.9596 16.54 18.5 16.54C18.0404 16.54 17.5852 16.6306 17.1606 16.8065C16.736 16.9824 16.3501 17.2402 16.0251 17.5652C15.7001 17.8902 15.4423 18.276 15.2664 18.7006C15.0905 19.1253 15 19.5804 15 20.04Z" fill="#37474F"/>
<path d="M16.5 20.04C16.5 20.5705 16.7107 21.0792 17.0858 21.4543C17.4609 21.8293 17.9696 22.04 18.5 22.04C19.0304 22.04 19.5391 21.8293 19.9142 21.4543C20.2893 21.0792 20.5 20.5705 20.5 20.04C20.5 19.5096 20.2893 19.0009 19.9142 18.6258C19.5391 18.2508 19.0304 18.04 18.5 18.04C17.9696 18.04 17.4609 18.2508 17.0858 18.6258C16.7107 19.0009 16.5 19.5096 16.5 20.04Z" fill="#546E7A"/>
</svg>
