<svg width="40" height="41" viewBox="0 0 40 41" fill="none" xmlns="http://www.w3.org/2000/svg">
<rect y="0.540039" width="40" height="40" rx="20" fill="#3375D9" fill-opacity="0.25"/>
<path d="M30.125 22.04H9.875V25.79H30.125V22.04Z" fill="#FEBC00"/>
<path d="M10.625 22.04H9.875V25.79H30.125V25.04H13.625C12.8294 25.04 12.0663 24.724 11.5037 24.1614C10.9411 23.5987 10.625 22.8357 10.625 22.04Z" fill="#EDAA03"/>
<path d="M20.7665 25.5939C20.2624 25.5651 19.7737 25.4096 19.3457 25.1417C18.9177 24.8737 18.5643 24.5021 18.3181 24.0613L14.375 28.0052C14.3269 28.0533 14.2927 28.1136 14.2762 28.1796C14.2598 28.2456 14.2616 28.3149 14.2814 28.38C14.3013 28.4451 14.3385 28.5035 14.3891 28.5491C14.4397 28.5946 14.5017 28.6255 14.5685 28.6385L15.6388 28.8467L15.8559 29.9278C15.8692 29.9943 15.9004 30.056 15.9461 30.1062C15.9917 30.1565 16.0501 30.1934 16.1151 30.213C16.1801 30.2326 16.2492 30.2343 16.315 30.2177C16.3808 30.2012 16.4409 30.1671 16.4889 30.119L20.8726 25.7349L20.75 25.6112L20.7665 25.5939Z" fill="#CC2600"/>
<path d="M25.3085 27.8176L21.446 23.9551C21.184 24.3925 20.8149 24.756 20.3735 25.0112C19.932 25.2664 19.4328 25.4048 18.923 25.4135L18.9342 25.4243L18.8109 25.5481L23.1946 29.9315C23.2426 29.9794 23.3027 30.0134 23.3684 30.0299C23.4342 30.0464 23.5032 30.0447 23.5681 30.0251C23.633 30.0055 23.6914 29.9686 23.737 29.9184C23.7827 29.8683 23.8138 29.8067 23.8272 29.7402L24.0444 28.6591L25.115 28.4525C25.1818 28.4395 25.2438 28.4085 25.2944 28.363C25.3449 28.3175 25.3822 28.259 25.4021 28.1939C25.4219 28.1288 25.4237 28.0595 25.4072 27.9935C25.3908 27.9275 25.3566 27.8672 25.3085 27.8191V27.8176Z" fill="#CC2600"/>
<path d="M20.0473 26.5379C20.0315 26.5379 20.0161 26.5401 20 26.5401C19.9423 26.5401 19.8875 26.5349 19.829 26.5315L19.8118 26.5487L19.9351 26.6725L20.0585 26.5487L20.0473 26.5379Z" fill="#CC2600"/>
<path d="M13.625 13.04H26.375V19.79C26.375 19.989 26.296 20.1797 26.1553 20.3204C26.0147 20.461 25.8239 20.54 25.625 20.54H14.375C14.1761 20.54 13.9853 20.461 13.8447 20.3204C13.704 20.1797 13.625 19.989 13.625 19.79V13.04Z" fill="#0455BF"/>
<path d="M14.375 13.04H13.625V19.79C13.625 19.989 13.704 20.1797 13.8447 20.3204C13.9853 20.461 14.1761 20.54 14.375 20.54H25.625C25.8239 20.54 26.0147 20.461 26.1553 20.3204C26.296 20.1797 26.375 19.989 26.375 19.79H21.125C19.3348 19.79 17.6179 19.0789 16.352 17.813C15.0862 16.5471 14.375 14.8303 14.375 13.04Z" fill="#004787"/>
<path d="M28.625 12.665H27.875V17.165H28.625V12.665Z" fill="#0455BF"/>
<path d="M28.625 12.665H28.25V17.165H28.625V12.665Z" fill="#004787"/>
<path d="M29.0938 21.29H27.4062C27.251 21.29 27.125 21.1224 27.125 20.915V16.79C27.125 16.5827 27.251 16.415 27.4062 16.415H29.0938C29.249 16.415 29.375 16.5827 29.375 16.79V20.915C29.375 21.1224 29.249 21.29 29.0938 21.29Z" fill="#F74E0C"/>
<path d="M28.1562 20.54C28.001 20.54 27.875 20.3724 27.875 20.165V16.415H27.4062C27.251 16.415 27.125 16.5827 27.125 16.79V20.915C27.125 21.1224 27.251 21.29 27.4062 21.29H29.0938C29.249 21.29 29.375 21.1224 29.375 20.915V20.54H28.1562Z" fill="#CC2600"/>
<path d="M9.875 25.79C9.23375 25.79 8.75 24.9842 8.75 23.915C8.75 22.8459 9.23375 22.04 9.875 22.04C10.5163 22.04 11 22.8459 11 23.915C11 24.9842 10.5163 25.79 9.875 25.79Z" fill="#F74E0C"/>
<path d="M9.5 23.54C9.4783 23.0092 9.63065 22.4857 9.93388 22.0494C9.9125 22.0479 9.89525 22.04 9.875 22.04C9.23375 22.04 8.75 22.8459 8.75 23.915C8.75 24.9842 9.23375 25.79 9.875 25.79C10.0121 25.7837 10.1458 25.7456 10.2657 25.679C10.3856 25.6123 10.4884 25.5187 10.5661 25.4057C9.95525 25.3569 9.5 24.5754 9.5 23.54Z" fill="#CC2600"/>
<path d="M30.125 25.79C29.4837 25.79 29 24.9842 29 23.915C29 22.8459 29.4837 22.04 30.125 22.04C30.7663 22.04 31.25 22.8459 31.25 23.915C31.25 24.9842 30.7663 25.79 30.125 25.79Z" fill="#F74E0C"/>
<path d="M20 26.915C19.4067 26.915 18.8266 26.7391 18.3333 26.4094C17.8399 26.0798 17.4554 25.6113 17.2284 25.0631C17.0013 24.5149 16.9419 23.9117 17.0576 23.3298C17.1734 22.7478 17.4591 22.2133 17.8787 21.7937C18.2982 21.3742 18.8328 21.0884 19.4147 20.9727C19.9967 20.8569 20.5999 20.9163 21.1481 21.1434C21.6962 21.3705 22.1648 21.755 22.4944 22.2483C22.8241 22.7417 23 23.3217 23 23.915C22.9991 24.7104 22.6828 25.473 22.1203 26.0354C21.5579 26.5978 20.7954 26.9141 20 26.915Z" fill="#F74E0C"/>
<path d="M20 25.415C19.7033 25.415 19.4133 25.3271 19.1666 25.1622C18.92 24.9974 18.7277 24.7632 18.6142 24.4891C18.5006 24.215 18.4709 23.9134 18.5288 23.6224C18.5867 23.3314 18.7296 23.0642 18.9393 22.8544C19.1491 22.6446 19.4164 22.5017 19.7074 22.4439C19.9983 22.386 20.2999 22.4157 20.574 22.5292C20.8481 22.6428 21.0824 22.835 21.2472 23.0817C21.412 23.3284 21.5 23.6184 21.5 23.915C21.5 24.3129 21.342 24.6944 21.0607 24.9757C20.7794 25.257 20.3978 25.415 20 25.415Z" fill="#CC2600"/>
<path d="M29 13.79H11C10.9005 13.79 10.8052 13.7505 10.7348 13.6802C10.6645 13.6099 10.625 13.5145 10.625 13.415V11.915C10.625 11.8156 10.6645 11.7202 10.7348 11.6499C10.8052 11.5795 10.9005 11.54 11 11.54H29C29.0995 11.54 29.1948 11.5795 29.2652 11.6499C29.3355 11.7202 29.375 11.8156 29.375 11.915V13.415C29.375 13.5145 29.3355 13.6099 29.2652 13.6802C29.1948 13.7505 29.0995 13.79 29 13.79Z" fill="#0455BF"/>
<path d="M29.375 13.04H11.375V11.54H11C10.9005 11.54 10.8052 11.5795 10.7348 11.6499C10.6645 11.7202 10.625 11.8156 10.625 11.915V13.415C10.625 13.5145 10.6645 13.6099 10.7348 13.6802C10.8052 13.7505 10.9005 13.79 11 13.79H29C29.0995 13.79 29.1948 13.7505 29.2652 13.6802C29.3355 13.6099 29.375 13.5145 29.375 13.415V13.04Z" fill="#004787"/>
</svg>
