<svg width="40" height="41" viewBox="0 0 40 41" fill="none" xmlns="http://www.w3.org/2000/svg">
<rect y="0.540039" width="40" height="40" rx="20" fill="#3375D9" fill-opacity="0.25"/>
<g clip-path="url(#clip0_32_3500)">
<path d="M9.49999 13.2556H29.7641C30.5937 13.2556 31.2641 13.9259 31.2641 14.7556V29.3244C31.2641 30.1541 30.5937 30.8244 29.7641 30.8244H10.25C9.42031 30.8244 8.74999 30.1541 8.74999 29.3244V14.7556C8.74999 13.9259 8.67031 13.2556 9.49999 13.2556Z" fill="#597B91"/>
<path d="M30.5141 13.2556H23.7594V12.0837C23.7594 11.2541 23.0891 10.5837 22.2594 10.5837H17.7547C16.925 10.5837 16.2547 11.2541 16.2547 12.0837V13.2509H9.5C8.67031 13.2509 8 13.9212 8 14.7509V20.315C8 21.1447 8.67031 21.815 9.5 21.815H30.5141C31.3438 21.815 32.0141 21.1447 32.0141 20.315V14.7556C32.0187 13.9259 31.3438 13.2556 30.5141 13.2556ZM17.7547 12.8384C17.7547 12.4259 18.0922 12.0884 18.5047 12.0884H21.5047C21.9219 12.0884 22.2547 12.4259 22.2547 12.8384V13.2556H17.75V12.8384H17.7547Z" fill="#2B3B47"/>
<path d="M12.5047 26.5635C12.5047 26.6525 12.5234 26.7416 12.5563 26.8213C12.7109 27.1822 13.1844 28.1947 13.6531 28.1947C14.1125 28.1947 14.5625 27.1729 14.7078 26.8166C14.7406 26.7369 14.7547 26.6525 14.7547 26.5682V13.5463C14.7547 13.1807 14.4547 12.8807 14.0891 12.8807H13.1703C12.8047 12.8807 12.5047 13.1807 12.5047 13.5463V26.5635ZM25.2641 13.5463V26.5682C25.2641 26.6572 25.2828 26.7463 25.3156 26.826C25.4703 27.1869 25.9438 28.1994 26.4125 28.1994C26.8719 28.1994 27.3219 27.1775 27.4672 26.8213C27.5 26.7416 27.5141 26.6572 27.5141 26.5729V13.5463C27.5141 13.1807 27.2141 12.8807 26.8484 12.8807H25.9297C25.5594 12.876 25.2641 13.176 25.2641 13.5463Z" fill="#FFD469"/>
<path d="M12.4906 25.5698H14.7688C15.1766 25.5698 15.5047 25.2417 15.5047 24.8339V24.0558C15.5047 23.6479 15.1766 23.3198 14.7688 23.3198H12.4906C12.0828 23.3198 11.7547 23.6479 11.7547 24.0558V24.8339C11.7547 25.2417 12.0828 25.5698 12.4906 25.5698ZM24.5141 24.0558V24.8339C24.5141 25.2417 24.8422 25.5698 25.25 25.5698H27.5281C27.9359 25.5698 28.2641 25.2417 28.2641 24.8339V24.0558C28.2641 23.6479 27.9359 23.3198 27.5281 23.3198H25.25C24.8422 23.3198 24.5141 23.6479 24.5141 24.0558Z" fill="#EDECE6"/>
</g>
<defs>
<clipPath id="clip0_32_3500">
<rect width="24" height="24" fill="white" transform="translate(8 8.54004)"/>
</clipPath>
</defs>
</svg>
