<svg width="40" height="41" viewBox="0 0 40 41" fill="none" xmlns="http://www.w3.org/2000/svg">
<rect y="0.540039" width="40" height="40" rx="20" fill="#3375D9" fill-opacity="0.25"/>
<g clip-path="url(#clip0_32_3412)">
<path d="M18.8543 18.2034C18.776 18.0361 18.7129 17.8615 18.6658 17.6819C18.6317 17.6089 18.581 17.5457 18.5181 17.4979C18.4184 17.4241 18.2732 17.3813 18.3085 17.2079C18.3244 17.1429 18.3605 17.0852 18.4113 17.044C18.6598 16.8254 18.5833 16.3804 18.5288 16.0596C18.5072 15.9724 18.4898 15.884 18.4769 15.7949C18.4458 15.5575 18.4464 15.3166 18.4788 15.0793L18.4952 15.0935C18.8089 15.3562 19.1504 15.5808 19.513 15.7628C19.7053 15.8521 20.3328 16.1358 20.6562 16.1624L20.7529 16.1704C20.7847 16.1122 20.8287 16.0622 20.8816 16.0242C20.9168 15.9988 20.9571 15.9822 20.9995 15.9758C21.0418 15.9693 21.085 15.9731 21.1257 15.987C21.2467 16.034 21.3062 16.1772 21.3249 16.3103C21.3452 16.4707 21.3265 16.6339 21.2705 16.7849C21.2145 16.9359 21.1229 17.0698 21.0043 17.1743C21.1362 17.4152 21.2751 17.6598 21.3272 17.9279C21.3712 18.1306 21.3452 18.3429 21.254 18.5277C21.1976 18.6338 21.5548 18.6887 21.7187 18.6929C21.913 18.6942 22.1309 18.6675 22.2618 18.532L22.5303 18.9451L20.9573 19.7644L20.5295 19.0271C20.5295 19.0271 20.4247 18.845 20.3713 18.7538C20.3204 18.667 20.2732 18.6055 20.2627 18.5893C20.2487 18.5674 20.2275 18.5516 20.203 18.5449C20.1786 18.5382 20.1527 18.5409 20.1301 18.5527C19.9363 18.655 19.6129 18.6918 19.3635 18.6538C19.2108 18.6286 19.0733 18.5427 18.9801 18.4142C18.9309 18.3489 18.8888 18.2782 18.8543 18.2034Z" fill="white"/>
<path d="M19.3711 13.6315C18.9544 13.8907 18.6528 14.3108 18.5318 14.8005C18.5087 14.8923 18.491 14.9854 18.4788 15.0794L18.4952 15.0935C18.8089 15.3562 19.1504 15.5808 19.513 15.7628C19.7053 15.8521 20.3328 16.1358 20.6562 16.1624L20.753 16.1704C20.7847 16.1121 20.8287 16.0622 20.8816 16.0242C20.9168 15.9988 20.9571 15.9822 20.9995 15.9758C21.0418 15.9693 21.085 15.9731 21.1257 15.987C21.2467 16.034 21.3062 16.1772 21.3249 16.3102C21.3452 16.4707 21.3265 16.6339 21.2705 16.7849C21.2145 16.9359 21.1229 17.0698 21.0043 17.1743C21.1362 17.4152 21.2751 17.6598 21.3272 17.9279C21.3712 18.1306 21.3452 18.3429 21.254 18.5277C21.1976 18.6338 21.5548 18.6887 21.7187 18.6929C21.8348 18.6966 21.9507 18.6822 22.0626 18.6501C22.9304 19.0023 23.3732 18.509 23.3537 18.1459C23.3438 17.9571 23.3021 17.7716 23.2307 17.5978C23.1363 17.3513 22.9495 16.8423 22.905 15.9081C22.8795 15.6638 22.8599 15.4282 22.8486 15.2583C22.8486 15.2583 22.8457 15.2132 22.8425 15.1576C22.7861 14.7528 22.614 14.375 22.3488 14.0733C22.0796 13.7664 21.7392 13.5366 21.3603 13.406C20.9814 13.2753 20.5767 13.2482 20.1848 13.3272C20.0664 13.3546 19.9431 13.3903 19.8283 13.4297C19.6908 13.4746 19.557 13.5311 19.4284 13.5986C19.4091 13.6093 19.39 13.6202 19.3711 13.6315Z" fill="#957F6E"/>
<path d="M20.8499 16.3066C20.8722 16.2477 20.9085 16.1958 20.9555 16.1557C20.9748 16.1421 20.9961 16.1319 21.0186 16.1255C21.0206 16.1252 21.0579 16.1244 21.052 16.1236C21.0581 16.1244 21.0974 16.141 21.081 16.1322C21.1149 16.1538 21.1406 16.187 21.1537 16.2261C21.1757 16.2846 21.187 16.3468 21.1871 16.4095C21.1909 16.5395 21.1648 16.6685 21.1111 16.7858C21.0574 16.9032 20.9776 17.0055 20.8783 17.0842C20.8456 17.1054 20.8219 17.1389 20.8122 17.1777C20.8024 17.2165 20.8073 17.2577 20.8258 17.2929C20.8456 17.3276 20.8777 17.3528 20.9152 17.3631C20.9527 17.3733 20.9926 17.3678 21.0262 17.3477C21.1864 17.2284 21.3123 17.0657 21.3901 16.8773C21.4679 16.6888 21.4947 16.4817 21.4675 16.2785C21.44 16.0815 21.3295 15.8761 21.1298 15.8294C20.8975 15.775 20.6918 15.9438 20.597 16.1526C20.5785 16.1878 20.5736 16.229 20.5834 16.2679C20.5931 16.3067 20.6168 16.3402 20.6496 16.3613C20.6832 16.3814 20.723 16.3869 20.7605 16.3767C20.798 16.3665 20.8301 16.3413 20.8499 16.3066Z" fill="#211715"/>
<path d="M18.3075 15.5373C18.3251 15.7539 18.3563 15.969 18.4011 16.1812C18.434 16.3407 18.4446 16.5043 18.4327 16.6669C18.4264 16.7353 18.4059 16.8014 18.3724 16.8607C18.327 16.9355 18.251 16.9827 18.2077 17.0618C18.1018 17.2544 18.174 17.4496 18.3427 17.5636C18.4022 17.595 18.4555 17.6376 18.5 17.6893C18.5314 17.745 18.5541 17.8057 18.5672 17.8688C18.6198 18.0452 18.6904 18.2151 18.7779 18.3757C18.8707 18.5486 19.0159 18.6846 19.1907 18.7624C19.369 18.8238 19.5587 18.8406 19.7444 18.8115C19.8502 18.8017 19.9547 18.7804 20.0563 18.7479C20.1013 18.7328 20.1453 18.7143 20.1878 18.6926C20.1904 18.7001 20.1403 18.6809 20.1478 18.6817C20.1392 18.6697 20.1392 18.6697 20.1478 18.6817L20.1655 18.7066C20.2536 18.8329 20.3272 18.9705 20.4042 19.1043C20.501 19.2725 20.7544 19.1193 20.6571 18.9503C20.5909 18.8353 20.5275 18.7174 20.455 18.6065C20.4185 18.5385 20.3697 18.4785 20.3113 18.4298C20.2203 18.3689 20.1307 18.3917 20.0381 18.4316C19.875 18.4963 19.7007 18.5249 19.5264 18.5157C19.3561 18.5109 19.2186 18.4672 19.1035 18.3296C19.0096 18.2028 18.9375 18.06 18.8903 17.9076C18.833 17.7479 18.8057 17.5862 18.6926 17.4556C18.6372 17.3981 18.5742 17.349 18.5056 17.3099C18.4908 17.3011 18.4765 17.2913 18.4629 17.2806C18.477 17.2926 18.4452 17.259 18.4578 17.2765C18.4451 17.2587 18.4496 17.2597 18.4506 17.2724C18.4487 17.2546 18.4515 17.2366 18.4588 17.2204C18.4772 17.1885 18.5015 17.1607 18.5302 17.1386C18.5624 17.1063 18.591 17.0704 18.6157 17.0316C18.6613 16.958 18.693 16.876 18.709 16.79C18.7917 16.3661 18.6167 15.9574 18.6011 15.5373C18.5938 15.3416 18.3009 15.3406 18.3082 15.5373L18.3075 15.5373Z" fill="#211715"/>
<path d="M22.2492 18.8727C22.5997 18.9617 22.9947 18.9436 23.2735 18.6784C23.3725 18.5847 23.4442 18.4639 23.4803 18.3297C23.5249 18.1558 23.4917 17.9603 23.4482 17.7899C23.4136 17.6549 23.3587 17.5274 23.3133 17.3962C23.2719 17.2767 23.236 17.1554 23.2057 17.0321C23.1634 16.8597 23.13 16.6851 23.1056 16.5089C23.0731 16.2792 23.0655 16.0477 23.0426 15.817C23.0221 15.6105 23.0044 15.4038 22.9916 15.1964C22.9722 14.963 22.9114 14.7353 22.8122 14.5251C22.6282 14.127 22.342 13.7898 21.9854 13.5506C21.6447 13.3213 21.2561 13.1806 20.8523 13.1405C20.4139 13.0949 19.9782 13.194 19.5724 13.3644C19.1754 13.5271 18.8404 13.8208 18.6189 14.2006C18.4063 14.5831 18.2987 15.019 18.3077 15.4609C18.3088 15.5873 18.3183 15.7135 18.3363 15.8386C18.3468 15.8775 18.3716 15.9105 18.4054 15.9304C18.4391 15.9503 18.479 15.9556 18.5165 15.9451C18.5534 15.9335 18.5846 15.9075 18.6036 15.8726C18.6226 15.8377 18.628 15.7965 18.6187 15.7575C18.5143 14.9931 18.7909 14.145 19.4608 13.754C19.65 13.65 19.8507 13.5705 20.0584 13.5171C20.2417 13.4632 20.4312 13.4352 20.6217 13.4337C20.9755 13.4338 21.3242 13.5225 21.6382 13.6924C21.9639 13.8658 22.2397 14.126 22.4375 14.4465C22.5403 14.6142 22.6168 14.7979 22.6642 14.9906C22.6976 15.1677 22.7174 15.3474 22.7235 15.5278C22.7808 16.2079 22.8185 16.8922 23.0524 17.5371C23.1174 17.6932 23.1658 17.8561 23.1969 18.023C23.2044 18.0717 23.2083 18.1209 23.2086 18.1702C23.2086 18.183 23.2078 18.195 23.207 18.2074C23.2054 18.231 23.2136 18.1889 23.2027 18.2297C23.1965 18.2554 23.189 18.2807 23.1802 18.3055C23.1924 18.2742 23.1749 18.3157 23.1732 18.3191C23.1644 18.3357 23.1558 18.3522 23.146 18.3682C23.0822 18.4673 22.9877 18.5406 22.8782 18.5759C22.6986 18.6312 22.5075 18.6321 22.3274 18.5785C22.1443 18.5322 22.0662 18.8264 22.2495 18.8727H22.2492Z" fill="#211715"/>
<path d="M20.8998 17.2912C21.0154 17.502 21.1343 17.7154 21.1834 17.9553C21.2044 18.054 21.2072 18.1559 21.1914 18.2557C21.1833 18.3058 21.1698 18.3549 21.1512 18.4019C21.1251 18.4459 21.1084 18.4953 21.1023 18.5466C21.1035 18.7295 21.3069 18.7871 21.4463 18.8136C21.6216 18.8487 21.8014 18.8528 21.978 18.8258C22.2367 18.7844 22.4406 18.6287 22.5188 18.3628C22.5741 18.1747 22.2915 18.0942 22.2363 18.2817C22.1692 18.509 21.9402 18.5403 21.7409 18.5403C21.6682 18.5401 21.5957 18.5331 21.5242 18.5194C21.4867 18.5126 21.4497 18.5036 21.4132 18.4924C21.4071 18.4905 21.3549 18.468 21.3836 18.4829C21.3766 18.4795 21.3698 18.4757 21.3631 18.4716C21.3491 18.462 21.3511 18.4638 21.3692 18.477C21.3866 18.497 21.3959 18.5233 21.3951 18.5504C21.3753 18.6108 21.3744 18.6215 21.3922 18.5825C21.4095 18.5491 21.4241 18.5144 21.4359 18.4785C21.4553 18.4247 21.4695 18.369 21.4782 18.3122C21.4986 18.1793 21.497 18.0436 21.4733 17.9112C21.4259 17.6331 21.2859 17.3792 21.1532 17.137C21.0597 16.9665 20.8065 17.12 20.9002 17.291L20.8998 17.2912Z" fill="#211715"/>
<path d="M18.3919 15.2015C18.7374 15.4995 19.1204 15.7468 19.5304 15.9364C19.8853 16.0968 20.2668 16.2789 20.6564 16.3151C20.6951 16.3148 20.7322 16.2986 20.7596 16.2701C20.787 16.2416 20.8025 16.2029 20.8028 16.1625C20.802 16.1223 20.7863 16.084 20.759 16.0556C20.7317 16.0271 20.6949 16.0108 20.6564 16.01C20.5785 15.9992 20.5016 15.9824 20.4261 15.9598C20.334 15.9333 20.2431 15.9021 20.1532 15.8689C19.9855 15.8069 19.8172 15.736 19.6657 15.6673C19.2821 15.4915 18.9233 15.2622 18.599 14.9858C18.571 14.9582 18.5339 14.9429 18.4954 14.9429C18.4569 14.9429 18.4199 14.9582 18.3919 14.9858C18.3647 15.0145 18.3494 15.0533 18.3494 15.0937C18.3494 15.134 18.3647 15.1728 18.3919 15.2015Z" fill="#211715"/>
<path d="M24.945 22.9486C24.731 24.9069 24.4019 27.5081 24.2273 29.4462C24.1549 30.1994 24.0925 30.9567 23.9649 31.6899C23.9649 31.6899 18.6782 31.6899 17.2779 31.6905C17.2784 31.3691 17.2798 30.8006 17.2816 30.1358C18.956 30.1148 21.884 30.0557 22.865 30.0307C23.2031 27.2041 23.9396 21.7686 24.0249 20.4487C24.0533 20.0442 24.6493 19.9935 25.0329 19.9265C25.6534 19.8184 25.1756 20.5599 25.0771 21.6497C25.0425 22.0316 24.9972 22.471 24.945 22.9486Z" fill="white"/>
<path d="M16.1395 30.2612H12.995C13.1295 29.6276 13.3108 29.0058 13.5373 28.4014C13.6568 28.0903 13.9487 27.6292 14.3962 27.5305C16.1262 27.1483 18.0529 26.7537 19.4451 26.3017L20.0105 26.0156C20.7442 26.4459 22.0052 26.9921 22.9346 27.1681L23.0593 27.5336C23.0866 28.0103 23.1301 28.4054 22.98 28.8537C22.9038 29.0833 22.7757 29.2903 22.6064 29.4573C22.4371 29.6243 22.2317 29.7463 22.0075 29.813C21.534 29.9757 21.0106 29.9374 20.5075 29.9414C19.0318 29.9528 17.8333 29.955 16.5378 29.9714C16.5378 30.078 16.5374 30.1753 16.5372 30.2615L16.1395 30.2612Z" fill="white"/>
<path d="M20.8561 19.3467C20.8349 19.3546 20.822 19.3594 20.8195 19.3611C20.7568 19.3995 20.7005 19.4482 20.6528 19.5053C20.6306 19.5352 20.5917 19.5951 20.5695 19.6251L19.9662 20.7358C19.8394 20.9696 19.7099 21.211 19.6794 21.4768C19.6336 21.8783 19.819 22.2661 19.9993 22.6266L19.9915 24.7358C19.969 24.8888 19.9655 25.1624 19.9147 25.2749C19.8725 25.3685 19.7339 25.4915 19.7204 25.5692C19.6852 25.7708 19.7678 25.8375 19.864 25.9266C20.5976 26.3873 22.0664 27.0355 23.0675 27.1907C23.0859 26.0508 23.299 25.0194 23.395 23.8812C23.4656 23.0449 23.4493 22.2144 23.31 21.0698C23.2025 20.1872 23.0227 19.7461 22.5611 19.0362C22.5162 18.981 22.458 18.9391 22.3925 18.9147C22.3271 18.8904 22.2566 18.8846 22.1882 18.8977C21.8366 18.9965 21.0382 19.2787 20.8561 19.3467Z" fill="#F4B3B3"/>
<path d="M16.3741 30.2957C17.1626 30.2957 17.9513 30.2795 18.7397 30.2661C19.7324 30.2492 20.725 30.2301 21.7176 30.2089C22.1 30.2009 22.4824 30.1922 22.8648 30.1828C23.0529 30.1781 23.0536 29.873 22.8648 29.8777C22.0654 29.8981 21.266 29.9137 20.4661 29.9292C19.4767 29.9485 18.4872 29.9654 17.4977 29.9801C17.1231 29.9852 16.7485 29.9904 16.3738 29.9904C16.1854 29.9904 16.185 30.2955 16.3738 30.2955L16.3741 30.2957Z" fill="#211715"/>
<path d="M14.2527 9.49982C13.7872 9.4961 13.333 9.64871 12.9574 9.93504C12.6034 10.2131 12.3421 10.6 12.2105 11.041C11.9528 11.9035 12.2019 12.9415 12.8961 13.5051C13.5903 14.0686 14.642 14.1274 15.4004 13.6664C16.1646 13.2018 16.4904 12.2458 16.3649 11.3595C16.2975 10.9011 16.0919 10.4769 15.7779 10.1481C15.4639 9.81939 15.0577 9.60308 14.618 9.53046C14.4971 9.51102 14.375 9.50078 14.2527 9.49982C14.0642 9.49887 14.064 9.80397 14.2527 9.80493C14.6587 9.80175 15.055 9.93471 15.3829 10.1841C15.6811 10.4198 15.9012 10.7468 16.0121 11.1192C16.2353 11.8655 16.0395 12.7613 15.4524 13.2607C14.8799 13.748 13.9587 13.7967 13.313 13.428C12.6366 13.0419 12.3096 12.2064 12.4259 11.4216C12.482 11.0279 12.6539 10.6621 12.9179 10.3744C13.1941 10.0817 13.5537 9.88997 13.9431 9.82775C14.0455 9.81162 14.149 9.80382 14.2526 9.80442C14.4411 9.80397 14.4415 9.49887 14.2527 9.49982Z" fill="#D9D9D9"/>
<path d="M28.0613 32.4336C28.0613 31.6294 28.06 30.8253 28.0573 30.0211C28.0547 29.109 28.0514 28.1968 28.0476 27.2845C28.0438 26.3349 28.0398 25.3852 28.0358 24.4355C28.0321 23.5192 28.0287 22.6028 28.0256 21.6864C28.0231 20.874 28.0214 20.0615 28.0206 19.2491C28.0206 19.1584 28.0206 19.0677 28.0206 18.9769L27.8742 19.1295C28.9515 19.131 30.0289 19.1172 31.1062 19.1111C31.357 19.1097 31.6078 19.1088 31.8586 19.1083C32.047 19.1083 32.0473 18.8032 31.8586 18.8032C30.7769 18.8032 29.6952 18.8167 28.6135 18.8223C28.367 18.8236 28.1206 18.8247 27.8742 18.8244C27.8355 18.825 27.7986 18.8412 27.7712 18.8697C27.7439 18.8982 27.7283 18.9367 27.7277 18.9769C27.7277 19.7714 27.7291 20.5659 27.7318 21.3606C27.7345 22.2678 27.7377 23.175 27.7416 24.0823C27.7454 25.0315 27.7493 25.9808 27.7533 26.9303C27.7571 27.8511 27.7605 28.7719 27.7635 29.6927C27.766 30.5141 27.7676 31.3357 27.7684 32.1572C27.7684 32.2494 27.7684 32.3417 27.7684 32.4338C27.7684 32.6301 28.0613 32.6304 28.0613 32.4338V32.4336Z" fill="#D9D9D9"/>
<path d="M28.7303 32.4336C28.7303 30.7907 28.7257 29.1478 28.7165 27.505C28.7091 25.7671 28.7018 24.0292 28.6947 22.2912C28.6918 21.4214 28.6901 20.5516 28.6896 19.6818L28.5431 19.8343C29.4577 19.8293 30.3723 19.821 31.2869 19.8164C31.4774 19.8155 31.6679 19.8149 31.8584 19.8146C32.0469 19.8146 32.0472 19.5095 31.8584 19.5095C31.0024 19.5095 30.1464 19.5187 29.2905 19.5245C29.0414 19.5262 28.7922 19.5278 28.5431 19.5292C28.5045 19.5298 28.4675 19.5461 28.4402 19.5746C28.4128 19.603 28.3972 19.6415 28.3967 19.6818C28.3967 21.3111 28.4013 22.9405 28.4106 24.5698C28.4182 26.3114 28.4255 28.0532 28.4325 29.795C28.4353 30.6746 28.4369 31.5542 28.4374 32.4338C28.4374 32.6301 28.7303 32.6304 28.7303 32.4338V32.4336Z" fill="#D9D9D9"/>
<path d="M28.5828 31.4066C29.4361 31.3998 30.2893 31.3889 31.1426 31.383C31.3262 31.3817 31.5099 31.3809 31.6937 31.3805C31.8821 31.3805 31.8824 31.0754 31.6937 31.0754C30.8887 31.0754 30.0837 31.0873 29.2787 31.0952C29.0469 31.0975 28.8149 31.0996 28.5828 31.1016C28.3944 31.1031 28.3939 31.4082 28.5828 31.4067V31.4066Z" fill="#D9D9D9"/>
<path d="M28.5603 25.1728C29.4689 25.1684 30.3777 25.1601 31.2863 25.1556C31.477 25.1546 31.6678 25.154 31.8585 25.1537C32.047 25.1537 32.0473 24.8486 31.8585 24.8486C31.0094 24.8486 30.1603 24.8577 29.3113 24.8633C29.061 24.865 28.8106 24.8664 28.5603 24.8677C28.3719 24.8687 28.3715 25.1738 28.5603 25.1728Z" fill="#D9D9D9"/>
<path d="M29.3949 24.3703C29.3942 23.5227 29.4026 22.6752 29.402 21.8277L29.2556 21.9803C29.7006 21.9803 30.1457 21.9768 30.5908 21.9767C30.7792 21.9767 30.7796 21.6716 30.5908 21.6716C30.1457 21.6716 29.7006 21.6751 29.2556 21.6752C29.2169 21.6758 29.18 21.692 29.1526 21.7205C29.1253 21.749 29.1097 21.7875 29.1091 21.8277C29.1097 22.6752 29.1014 23.5227 29.102 24.3703C29.102 24.5666 29.3949 24.5669 29.3949 24.3703Z" fill="#D9D9D9"/>
<path d="M29.7191 30.708C29.9504 29.9621 30.189 29.2188 30.4205 28.4729C30.4786 28.2856 30.1959 28.2054 30.1381 28.3918C29.9068 29.1377 29.6682 29.881 29.4367 30.6269C29.3786 30.8142 29.6613 30.8944 29.7191 30.708Z" fill="#D9D9D9"/>
<path d="M29.8529 22.2538C29.8529 22.9789 29.8434 23.704 29.8433 24.4291C29.8433 24.6254 30.1362 24.6257 30.1362 24.4291C30.1362 23.704 30.1457 22.9789 30.1458 22.2538C30.1458 22.0575 29.8529 22.0572 29.8529 22.2538Z" fill="#D9D9D9"/>
<path d="M31.0695 30.6772C31.0689 29.8297 31.0772 28.9822 31.0767 28.1347C31.0767 27.9383 30.7838 27.938 30.7838 28.1347C30.7843 28.9822 30.776 29.8297 30.7766 30.6772C30.7766 30.8735 31.0695 30.8739 31.0695 30.6772Z" fill="#D9D9D9"/>
<path d="M30.8819 24.3821C30.8819 23.4075 30.8685 22.4328 30.8683 21.4582L30.7219 21.6108H31.8564C32.0449 21.6108 32.0452 21.3057 31.8564 21.3057H30.7219C30.6832 21.3062 30.6463 21.3225 30.6189 21.351C30.5916 21.3795 30.576 21.4179 30.5754 21.4582C30.5754 22.4328 30.5889 23.4075 30.589 24.3821C30.589 24.5784 30.8819 24.5788 30.8819 24.3821Z" fill="#D9D9D9"/>
<path d="M23.0115 30.0304C23.0921 29.356 23.1757 28.682 23.2622 28.0084C23.3607 27.2304 23.4597 26.4525 23.5593 25.6746C23.6566 24.9108 23.7527 24.1468 23.8477 23.3827C23.9259 22.7484 24.0031 22.1139 24.0729 21.4786C24.0981 21.2498 24.1224 21.0205 24.1436 20.791C24.1515 20.7053 24.159 20.6194 24.1654 20.5335C24.1663 20.4964 24.17 20.4594 24.1765 20.423C24.1893 20.3731 24.2185 20.3294 24.259 20.2997C24.3662 20.2126 24.5275 20.1737 24.6715 20.1431C24.7552 20.1253 24.8397 20.1113 24.9241 20.0976C24.9622 20.0912 25.0004 20.0854 25.0385 20.079C25.0547 20.0762 25.0709 20.073 25.0873 20.0708C25.0646 20.0739 25.1099 20.0692 25.1178 20.0688C25.13 20.0682 25.1422 20.0688 25.1544 20.0688C25.1618 20.0688 25.1694 20.0697 25.1768 20.0703C25.1764 20.0703 25.1479 20.0645 25.1636 20.0687C25.1725 20.0711 25.1822 20.0741 25.1912 20.0758C25.2074 20.079 25.1755 20.0685 25.1768 20.0687C25.1829 20.0697 25.189 20.0782 25.1951 20.079C25.2012 20.0799 25.1722 20.057 25.1902 20.0757C25.2121 20.0984 25.1765 20.0532 25.1889 20.0738C25.2003 20.0929 25.1928 20.0865 25.1881 20.0683C25.1908 20.0784 25.1933 20.0894 25.1966 20.0992C25.2077 20.1329 25.1966 20.0769 25.1976 20.1036C25.1981 20.1147 25.1989 20.1257 25.199 20.1368C25.199 20.1658 25.1975 20.1948 25.1946 20.2237C25.1946 20.2257 25.192 20.2482 25.194 20.2308C25.1963 20.2117 25.1925 20.2416 25.1919 20.2459C25.1895 20.2608 25.1872 20.2758 25.1847 20.2904C25.1781 20.3283 25.1706 20.3659 25.1628 20.4035C25.0773 20.8094 24.9736 21.2073 24.9331 21.6224C24.8985 21.9784 24.8645 22.3343 24.8265 22.6896C24.7349 23.5469 24.634 24.4031 24.5344 25.2594C24.4282 26.1722 24.3221 27.0849 24.2247 27.9986C24.1228 28.9543 24.0516 29.9139 23.937 30.868C23.9057 31.1294 23.8685 31.3899 23.8237 31.6492C23.8145 31.6882 23.8199 31.7294 23.839 31.7643C23.858 31.7992 23.8891 31.8252 23.926 31.8369C23.9634 31.8473 24.0033 31.842 24.037 31.822C24.0707 31.8021 24.0956 31.7692 24.1062 31.7303C24.2831 30.7063 24.3476 29.6645 24.4519 28.6307C24.5455 27.7034 24.6513 26.7775 24.7584 25.8519C24.8629 24.9493 24.9699 24.0474 25.0696 23.1444C25.1568 22.3568 25.1971 21.5578 25.3765 20.7857C25.4134 20.6268 25.4549 20.4675 25.4771 20.3053C25.4945 20.1793 25.5076 20.0387 25.4436 19.9232C25.4108 19.8704 25.365 19.8277 25.311 19.7996C25.2569 19.7714 25.1966 19.7589 25.1364 19.7633C24.9725 19.7733 24.8098 19.7981 24.65 19.8376C24.3251 19.9005 23.9205 20.031 23.8797 20.4314C23.861 20.6161 23.85 20.8018 23.8316 20.9866C23.7743 21.5623 23.7058 22.1371 23.6363 22.7111C23.5455 23.464 23.452 24.2166 23.3556 24.9689C23.2539 25.7731 23.1515 26.5772 23.0484 27.3813C22.9557 28.1104 22.8642 28.8397 22.7739 29.5692C22.7551 29.7229 22.7364 29.8767 22.718 30.0305C22.7182 30.0709 22.7337 30.1096 22.7611 30.1382C22.7885 30.1667 22.8257 30.1829 22.8645 30.1831C22.903 30.1821 22.9397 30.1657 22.967 30.1373C22.9942 30.1089 23.01 30.0707 23.0109 30.0305L23.0115 30.0304Z" fill="#211715"/>
<path d="M19.4062 26.1542C18.322 26.5053 17.208 26.7548 16.0984 27.0011C15.7974 27.068 15.496 27.1342 15.1943 27.1997C14.9052 27.2628 14.6115 27.3154 14.3251 27.391C13.8674 27.5118 13.5541 27.9475 13.3876 28.3833C13.1671 28.9813 12.9887 29.5953 12.8537 30.2203C12.8101 30.411 13.0925 30.4926 13.1362 30.3014C13.2551 29.7551 13.4056 29.2168 13.587 28.6894C13.7212 28.3121 13.9198 27.8572 14.3299 27.7078C14.4611 27.6672 14.5946 27.6353 14.7297 27.6125C14.8741 27.5807 15.0186 27.5491 15.1629 27.5176C15.455 27.4541 15.747 27.39 16.039 27.3256C16.6138 27.1985 17.1881 27.0687 17.7598 26.9278C18.3385 26.7852 18.9156 26.6323 19.4837 26.4484C19.6631 26.3903 19.5865 26.0956 19.4058 26.1541L19.4062 26.1542Z" fill="#211715"/>
<path d="M15.6184 30.1377C16.8327 30.1161 18.0467 30.1092 19.2609 30.1019C19.586 30.1 19.9111 30.0979 20.2363 30.0956C20.5614 30.0932 20.8872 30.1019 21.2121 30.0911C21.7841 30.0717 22.3822 29.9468 22.7825 29.4868C22.9959 29.239 23.1386 28.9339 23.1942 28.606C23.2566 28.25 23.2268 27.8918 23.2059 27.5333C23.1947 27.3382 22.9017 27.3369 22.913 27.5333C22.9462 28.1054 22.9966 28.7105 22.6391 29.1932C22.3075 29.6408 21.7712 29.7628 21.2546 29.7843C20.9405 29.7975 20.6254 29.7876 20.3112 29.7898C19.9983 29.7921 19.6854 29.7943 19.3725 29.7962C18.7826 29.7998 18.1928 29.8036 17.6029 29.8077C16.9415 29.813 16.2801 29.8213 15.6188 29.8326C15.4305 29.8359 15.4299 30.141 15.6188 30.1377H15.6184Z" fill="#211715"/>
<path d="M19.8508 24.6953C19.8295 24.8478 19.8312 25.0067 19.7977 25.1571C19.7878 25.2055 19.7649 25.2499 19.7316 25.2852C19.6724 25.3482 19.624 25.4213 19.5884 25.5013C19.563 25.5791 19.5584 25.6625 19.5748 25.7428C19.5913 25.8231 19.6283 25.8973 19.6819 25.9574C19.7778 26.0527 19.8881 26.1307 20.0083 26.1886C20.5904 26.5162 21.1982 26.7916 21.8252 27.0115C22.1743 27.14 22.5321 27.2414 22.8956 27.315C22.933 27.3246 22.9726 27.3189 23.0061 27.2991C23.0396 27.2793 23.0646 27.2468 23.0758 27.2084C23.0858 27.1694 23.0806 27.1278 23.0615 27.0928C23.0423 27.0577 23.0107 27.0318 22.9735 27.0207C22.35 26.9012 21.7438 26.6763 21.1599 26.4232C20.8787 26.3013 20.6017 26.1678 20.3311 26.0222C20.2184 25.9615 20.1066 25.8985 19.9971 25.8315C19.9069 25.7765 19.8514 25.7279 19.8605 25.6212C19.8627 25.5946 19.8635 25.5997 19.8839 25.5703C19.907 25.5371 19.9346 25.5068 19.9593 25.475C20.0129 25.4116 20.0528 25.3369 20.0761 25.256C20.1148 25.103 20.1137 24.9168 20.1333 24.7766C20.1423 24.7377 20.1368 24.6966 20.1177 24.6617C20.0987 24.6269 20.0677 24.6008 20.0309 24.589C19.9935 24.5785 19.9536 24.5838 19.9199 24.6038C19.8862 24.6237 19.8613 24.6567 19.8508 24.6955V24.6953Z" fill="#211715"/>
<path d="M14.1109 23.6471C14.117 23.6369 14.1231 23.6273 14.1292 23.6184C14.2757 23.4107 14.3686 23.2407 14.5502 23.0654C14.7227 22.8946 14.9523 22.8003 15.1903 22.8028C15.3878 22.8171 15.5799 22.8764 15.753 22.9765C16.0003 23.1217 16.3443 23.3303 16.7228 23.5339L16.9695 23.5948C16.9554 23.8921 16.9434 24.2386 16.9445 24.5509C16.6748 24.6044 16.3634 24.6667 16.3634 24.6667C16.0583 24.7245 15.8791 24.6932 15.601 24.5161C15.4545 24.4229 15.3142 24.3312 15.1552 24.4462C15.0563 24.5175 15.0337 24.5744 14.9383 24.6799C14.8824 24.7418 14.8268 24.7588 14.7217 24.7165C14.6739 24.6974 14.6555 24.6044 14.6681 24.5278C14.6802 24.4528 14.6965 24.3785 14.7169 24.3054L14.5949 24.3604C14.5534 24.3918 14.504 24.4099 14.4528 24.4123C14.4016 24.4147 14.3508 24.4013 14.3068 24.3739C14.2224 24.2997 14.2479 24.1274 14.3469 23.9925L14.2503 24.0017C14.2103 24.0043 14.1706 23.9935 14.1369 23.971C14.1033 23.9485 14.0773 23.9154 14.0629 23.8765C14.0506 23.7965 14.0678 23.7146 14.1109 23.6471Z" fill="white"/>
<path d="M14.612 24.142C14.551 24.3358 14.4187 24.699 14.6341 24.8404C14.6844 24.8725 14.7418 24.8902 14.8007 24.8918C14.8597 24.8934 14.9179 24.8788 14.9697 24.8495C15.0643 24.7907 15.1179 24.6825 15.1968 24.606C15.2747 24.5305 15.3393 24.5373 15.4287 24.5879C15.5342 24.6473 15.632 24.7157 15.7431 24.7644C15.9587 24.8589 16.1751 24.8556 16.4021 24.8141C16.4394 24.803 16.471 24.7772 16.4901 24.7421C16.5093 24.707 16.5144 24.6654 16.5044 24.6264C16.4933 24.5879 16.4684 24.5553 16.4349 24.5355C16.4013 24.5156 16.3617 24.5101 16.3243 24.5199C16.1671 24.5565 16.003 24.544 15.8526 24.4839C15.6655 24.4017 15.4994 24.2243 15.2826 24.2419C15.1715 24.2549 15.0681 24.3073 14.9897 24.3902C14.9609 24.4195 14.934 24.4506 14.9091 24.4835C14.885 24.5221 14.8554 24.5568 14.8214 24.5863C14.8229 24.5855 14.8452 24.5848 14.8214 24.5871C14.8194 24.5878 14.8172 24.588 14.8151 24.5877C14.813 24.5875 14.811 24.5868 14.8092 24.5857C14.7817 24.5736 14.7785 24.5757 14.7995 24.592C14.8325 24.5782 14.8 24.6288 14.8111 24.5872C14.8157 24.5697 14.8135 24.5458 14.8166 24.5268C14.8352 24.4238 14.8613 24.3223 14.8946 24.2233C14.9537 24.0364 14.6709 23.9563 14.6121 24.1422L14.612 24.142Z" fill="#211715"/>
<path d="M16.7965 23.4025C16.5429 23.2656 16.2933 23.1208 16.0448 22.9738C15.8164 22.8388 15.5933 22.7076 15.3291 22.6665C15.0619 22.6224 14.7889 22.6901 14.5694 22.8549C14.347 23.0213 14.1988 23.2561 14.042 23.4848C13.9572 23.6084 13.8787 23.76 13.9215 23.9174C13.9442 23.9887 13.9886 24.0504 14.0478 24.0931C14.1071 24.1359 14.1781 24.1575 14.2501 24.1547C14.2887 24.1538 14.3254 24.1374 14.3527 24.109C14.38 24.0806 14.3957 24.0423 14.3966 24.0021C14.3962 23.9618 14.3807 23.9232 14.3533 23.8946C14.3259 23.8661 14.2889 23.8499 14.2501 23.8496C14.2385 23.8503 14.2152 23.8538 14.2048 23.8341C14.1982 23.8213 14.2113 23.779 14.2187 23.7604C14.2668 23.6673 14.3241 23.5796 14.3896 23.4988C14.5074 23.3244 14.6388 23.1542 14.8212 23.0502C14.9961 22.9525 15.201 22.931 15.3912 22.9902C15.5907 23.0438 15.7612 23.1571 15.9387 23.2619C16.1734 23.4005 16.4093 23.5367 16.6489 23.666C16.816 23.7561 16.9643 23.493 16.7966 23.4025H16.7965Z" fill="#211715"/>
<path d="M14.6699 23.339C14.5541 23.4627 14.446 23.5939 14.3462 23.7318C14.2588 23.8519 14.1547 23.9808 14.1221 24.1312C14.086 24.2987 14.1351 24.4752 14.2991 24.5408C14.3657 24.5669 14.4379 24.5739 14.508 24.5612C14.5782 24.5484 14.6437 24.5163 14.6979 24.4682C14.7117 24.4541 14.7227 24.4373 14.7302 24.4187C14.7377 24.4002 14.7416 24.3803 14.7417 24.3601C14.7418 24.34 14.738 24.32 14.7306 24.3014C14.7233 24.2828 14.7125 24.2659 14.6988 24.2516C14.6851 24.2374 14.6689 24.2261 14.651 24.2184C14.6331 24.2108 14.614 24.2069 14.5946 24.2069C14.5753 24.207 14.5562 24.2111 14.5384 24.2189C14.5205 24.2267 14.5044 24.2382 14.4908 24.2525C14.4708 24.2729 14.5169 24.235 14.4932 24.2504C14.4684 24.2665 14.5225 24.2434 14.4919 24.2512C14.4815 24.2538 14.4712 24.2568 14.4607 24.2594C14.4271 24.2676 14.4903 24.2599 14.4551 24.2594C14.4438 24.2594 14.4323 24.2594 14.421 24.2594C14.3913 24.2603 14.4461 24.2681 14.4161 24.2594C14.4079 24.2564 14.3995 24.254 14.391 24.2523C14.378 24.2503 14.4186 24.2674 14.391 24.2505C14.3821 24.2443 14.3858 24.2471 14.4024 24.259C14.3937 24.249 14.3932 24.2488 14.401 24.2585C14.4083 24.2685 14.4084 24.2679 14.4015 24.2565C14.4083 24.2754 14.4098 24.2794 14.4063 24.2685C14.4052 24.2598 14.4016 24.2504 14.3997 24.2417C14.408 24.2795 14.4015 24.2463 14.4017 24.2353C14.402 24.2205 14.4078 24.2005 14.4017 24.2254C14.4049 24.2123 14.4073 24.1992 14.411 24.1862C14.4116 24.184 14.4265 24.1424 14.4154 24.1694C14.4211 24.1558 14.4275 24.1426 14.4346 24.1297C14.4643 24.0782 14.4968 24.0285 14.5318 23.9807C14.5481 23.9573 14.5644 23.934 14.5807 23.9108C14.5897 23.8981 14.5988 23.8856 14.6079 23.8732C14.5943 23.8917 14.6195 23.8578 14.6221 23.8542C14.7018 23.7496 14.7866 23.6495 14.8764 23.5543C14.8902 23.5401 14.9012 23.5233 14.9087 23.5048C14.9162 23.4862 14.9201 23.4663 14.9202 23.4461C14.9202 23.426 14.9165 23.406 14.9091 23.3874C14.9018 23.3688 14.8909 23.3519 14.8773 23.3377C14.8636 23.3234 14.8474 23.3121 14.8295 23.3045C14.8116 23.2968 14.7925 23.2929 14.7731 23.293C14.7538 23.2931 14.7347 23.2971 14.7168 23.3049C14.699 23.3128 14.6829 23.3242 14.6693 23.3385L14.6699 23.339Z" fill="#211715"/>
<path d="M14.7035 24.4532C14.7361 24.3975 14.7706 24.3431 14.8079 24.2906C14.8116 24.2854 14.8153 24.2803 14.819 24.2751C14.8206 24.273 14.8394 24.2474 14.8243 24.2676C14.8093 24.2878 14.8267 24.2646 14.83 24.2604C14.8347 24.254 14.8395 24.2477 14.8444 24.2417C14.8637 24.2169 14.8835 24.1926 14.9039 24.1688C14.9859 24.0738 15.0751 23.9859 15.1708 23.9059C15.1844 23.8917 15.1951 23.8748 15.2024 23.8563C15.2098 23.8377 15.2135 23.8179 15.2135 23.7978C15.2133 23.7574 15.198 23.7186 15.1708 23.6898C15.1432 23.6612 15.1059 23.6452 15.067 23.6453C15.0286 23.6473 14.992 23.663 14.9633 23.6898C14.76 23.8607 14.5865 24.0667 14.4502 24.2989C14.4404 24.3162 14.4339 24.3354 14.4312 24.3553C14.4284 24.3752 14.4295 24.3955 14.4343 24.415C14.4392 24.4345 14.4477 24.4528 14.4593 24.4688C14.471 24.4849 14.4856 24.4984 14.5022 24.5085C14.5189 24.5187 14.5374 24.5253 14.5565 24.528C14.5757 24.5307 14.5951 24.5294 14.6138 24.5242C14.6325 24.5191 14.65 24.5101 14.6653 24.4978C14.6806 24.4856 14.6935 24.4703 14.7031 24.4528L14.7035 24.4532Z" fill="#211715"/>
<path d="M23.2149 27.5332C23.1942 26.3904 23.4057 25.2689 23.5186 24.1368C23.6101 23.1365 23.592 22.1285 23.4645 21.1325C23.4096 20.6685 23.3266 20.2155 23.1452 19.7853C23.0603 19.5886 22.9616 19.3986 22.85 19.2169C22.7934 19.1075 22.7259 19.0047 22.6486 18.91C22.5679 18.825 22.4641 18.7678 22.3512 18.7462C22.1852 18.716 22.0207 18.7878 21.8642 18.8382C21.6907 18.8942 21.5179 18.9526 21.3455 19.0123C21.2032 19.0615 21.0609 19.1116 20.9189 19.1626C20.8066 19.1964 20.7022 19.2539 20.6122 19.3315C20.5351 19.4055 20.4705 19.4925 20.4209 19.5888L20.2077 19.9816C20.0674 20.2397 19.9256 20.4965 19.7878 20.7561C19.6592 20.9984 19.5462 21.2526 19.5287 21.5327C19.5115 21.8099 19.5943 22.0794 19.6985 22.3301C19.7513 22.4573 19.8121 22.5807 19.8735 22.7036C19.9605 22.8779 20.2134 22.7238 20.1264 22.5496C20.0031 22.326 19.9084 22.0865 19.8449 21.8373C19.7968 21.5993 19.8269 21.3514 19.9303 21.1334C20.0394 20.8878 20.1788 20.6554 20.3065 20.4201L20.5123 20.0408C20.5759 19.9236 20.6337 19.7986 20.7065 19.6876C20.7208 19.6659 20.7359 19.6447 20.7506 19.6232C20.7567 19.6145 20.7624 19.6052 20.769 19.5968C20.7666 19.5997 20.7585 19.6099 20.7699 19.5968C20.7882 19.5757 20.8644 19.4878 20.8935 19.4928C20.8823 19.4909 20.8433 19.5128 20.8799 19.4995C20.895 19.4941 20.91 19.4883 20.9251 19.4828C21.0423 19.4397 21.1602 19.3982 21.278 19.357C21.5844 19.2498 21.8916 19.14 22.2037 19.0519C22.2332 19.0428 22.2643 19.0404 22.2948 19.0448C22.3253 19.0491 22.3545 19.0602 22.3806 19.0773C22.4668 19.1281 22.5139 19.2346 22.5657 19.3188C22.6747 19.4931 22.7727 19.6747 22.859 19.8623C23.0172 20.2371 23.119 20.635 23.161 21.042C23.2897 21.9822 23.3194 22.9343 23.2494 23.8812C23.1583 24.9631 22.9484 26.0327 22.923 27.1207C22.9199 27.2581 22.9196 27.3956 22.9222 27.5331C22.9257 27.7292 23.2186 27.7302 23.2151 27.5331L23.2149 27.5332Z" fill="#211715"/>
<path d="M19.9379 22.3007C19.8578 22.5629 19.7605 22.8191 19.6466 23.0674C18.7136 23.1527 17.8324 23.2282 16.9508 23.3026C16.9308 23.3042 16.9122 23.3136 16.8986 23.3289C16.885 23.3442 16.8775 23.3643 16.8776 23.3852C16.8887 23.7779 16.8857 24.3936 16.9411 24.8562C16.9436 24.8755 16.9527 24.8931 16.9667 24.9059C16.9807 24.9187 16.9987 24.9257 17.0174 24.9257C18.189 24.9342 19.095 24.8917 20.2 24.7076C20.5271 24.6629 20.8343 24.5189 21.0832 24.2935C21.207 24.155 21.3055 23.9942 21.3741 23.819C21.7589 22.9668 21.8768 22.6316 22.0689 21.7206C22.1238 21.3671 22.172 21.0119 22.08 20.6686C22.0207 20.5241 21.928 20.3972 21.8101 20.2993C21.6922 20.2013 21.5528 20.1354 21.4045 20.1074C21.017 20.0413 20.7114 20.2358 20.5075 20.5438C20.3726 20.7551 20.2761 20.9903 20.2228 21.2379C20.1166 21.64 20.0394 21.971 19.9379 22.3007Z" fill="#F4B3B3"/>
<path d="M19.7967 22.2601C19.7199 22.5095 19.6275 22.7534 19.5202 22.9903L19.6466 22.9148C19.0188 22.9721 18.3908 23.0276 17.7627 23.0811C17.6059 23.0946 17.449 23.108 17.2922 23.1213L17.0786 23.1395C17.0004 23.1458 16.9085 23.1408 16.8391 23.1846C16.7092 23.2665 16.732 23.4224 16.7347 23.5568C16.7372 23.688 16.7392 23.8192 16.7422 23.9503C16.7483 24.2328 16.7576 24.5161 16.7876 24.7971C16.7863 24.8703 16.8085 24.9419 16.8505 25.0005C16.878 25.029 16.9112 25.0508 16.9478 25.0644C16.9843 25.0781 17.0233 25.0832 17.0619 25.0794C17.2167 25.0803 17.3715 25.0803 17.5264 25.0794C18.1015 25.0748 18.6765 25.0507 19.2489 24.9907C19.5469 24.9596 19.844 24.9194 20.1398 24.8718C20.2606 24.8569 20.3801 24.8328 20.4975 24.7997C20.6225 24.7594 20.7436 24.7069 20.8591 24.6427C21.0979 24.5148 21.2934 24.3138 21.4194 24.0668C21.5456 23.8216 21.6525 23.5622 21.7569 23.3062C21.9365 22.857 22.077 22.3918 22.1766 21.9164C22.2558 21.5967 22.2877 21.2663 22.2714 20.9365C22.2656 20.7801 22.2262 20.6269 22.1561 20.4884C22.093 20.3754 22.0109 20.2753 21.9136 20.1928C21.7168 20.0229 21.4659 19.9364 21.2107 19.9505C20.9555 19.9645 20.7148 20.0781 20.5363 20.2686C20.1385 20.6889 20.0543 21.3146 19.91 21.8598C19.8744 21.9941 19.8368 22.1278 19.7964 22.2603C19.739 22.4478 20.0216 22.528 20.0788 22.3414C20.1598 22.0769 20.227 21.8083 20.2957 21.5405C20.3661 21.2661 20.4255 20.9883 20.5623 20.7396C20.666 20.5509 20.8125 20.3728 21.0126 20.294C21.1142 20.2553 21.2229 20.2409 21.3306 20.252C21.4382 20.2631 21.5421 20.2995 21.6344 20.3582C21.7262 20.4155 21.8054 20.4921 21.8671 20.5831C21.9369 20.6925 21.9758 20.8201 21.9796 20.9514C21.993 21.258 21.9621 21.5649 21.8881 21.862C21.795 22.3103 21.6635 22.7491 21.4952 23.173C21.3932 23.4219 21.2889 23.674 21.1662 23.9127C21.0541 24.1316 20.8754 24.3056 20.6582 24.4073C20.4367 24.5207 20.2054 24.5555 19.9641 24.5929C19.6915 24.6353 19.4179 24.6697 19.1433 24.6962C18.5915 24.75 18.0375 24.7709 17.4836 24.7744C17.4117 24.7749 17.3398 24.7752 17.268 24.7751C17.2289 24.7751 17.1898 24.7751 17.1507 24.7751C17.1112 24.7698 17.0713 24.7696 17.0317 24.7744C16.9829 24.7885 17.078 24.8661 17.0827 24.8218C17.0826 24.8055 17.0809 24.7894 17.0776 24.7735C17.0747 24.7446 17.072 24.7158 17.0695 24.6869C17.0634 24.6183 17.0588 24.5497 17.0548 24.481C17.0389 24.2125 17.0342 23.9433 17.0294 23.6744C17.0283 23.6132 17.0273 23.552 17.0259 23.4908C17.0271 23.4661 17.0265 23.4414 17.0242 23.4168C17.0188 23.3872 17.039 23.3626 17.001 23.42C16.9665 23.4722 16.9932 23.4524 17.0356 23.4488L17.4768 23.4113C17.773 23.3859 18.0693 23.3605 18.3656 23.335C18.6679 23.3086 18.9703 23.2819 19.2726 23.2548L19.496 23.2346C19.5746 23.2274 19.6899 23.2384 19.7497 23.1761C19.795 23.1122 19.8295 23.0407 19.8519 22.9647C19.883 22.8907 19.9129 22.8162 19.9417 22.7412C19.9918 22.6098 20.0369 22.4766 20.0786 22.3421C20.1371 22.1539 19.8545 22.0737 19.7967 22.2601Z" fill="#211715"/>
<path d="M18.7749 18.0429C18.8855 18.0361 18.9937 18.0062 19.093 17.9548C19.1282 17.9351 19.1612 17.9116 19.1915 17.8845C19.2145 17.8635 19.235 17.8397 19.2525 17.8135C19.2624 17.7959 19.2688 17.7765 19.2713 17.7563C19.2739 17.7361 19.2725 17.7156 19.2673 17.696C19.2569 17.6577 19.2329 17.6251 19.2002 17.6047C19.1833 17.5945 19.1646 17.5879 19.1452 17.5853C19.1259 17.5826 19.1062 17.584 19.0873 17.5894L19.0524 17.6047C19.0307 17.618 19.0126 17.6369 18.9998 17.6595L18.9987 17.6609L19.0216 17.6301C19.0087 17.6468 18.9939 17.6617 18.9775 17.6746L19.0071 17.6508C18.977 17.6743 18.9442 17.6938 18.9095 17.7087L18.9444 17.6933C18.8904 17.716 18.8337 17.7313 18.7759 17.7389L18.8148 17.7334C18.8016 17.7351 18.7885 17.7366 18.7752 17.7377C18.7365 17.7386 18.6996 17.7544 18.6715 17.7821C18.644 17.8108 18.6286 17.8496 18.6286 17.89C18.6286 17.9305 18.644 17.9693 18.6715 17.9979C18.6851 18.0121 18.7012 18.0234 18.719 18.031C18.7369 18.0387 18.756 18.0425 18.7752 18.0424L18.7749 18.0429Z" fill="#211715"/>
<path d="M18.9099 16.5367C18.8969 16.6348 18.9447 16.8482 19.1095 16.8413C19.3237 16.8061 19.298 16.5429 19.2084 16.4313C19.1351 16.34 18.9554 16.3255 18.9099 16.5367Z" fill="#211715"/>
<path d="M13.0575 25.3073C13.4256 25.3073 16.2397 25.3114 16.4283 25.3114C16.4283 25.2071 16.4258 25.1251 16.4258 25.0254C16.4263 24.9963 16.417 24.9679 16.3995 24.9452C16.3785 24.9229 16.3509 24.9086 16.3211 24.9048C15.5244 24.7784 13.7819 24.623 13.0496 24.583C13.0496 24.6306 13.0569 25.2651 13.0575 25.3073Z" fill="#D9D9D9"/>
<path d="M13.0575 25.4599C13.4724 25.4599 13.8875 25.4604 14.3029 25.4614L15.9758 25.4635C16.1266 25.4635 16.2774 25.4637 16.4283 25.464C16.4669 25.4634 16.5039 25.4472 16.5312 25.4187C16.5585 25.3902 16.5742 25.3518 16.5747 25.3115C16.5743 25.143 16.6147 24.9042 16.4566 24.7976C16.3608 24.7332 16.2108 24.7348 16.1005 24.7196C15.8617 24.6866 15.6223 24.6586 15.3828 24.6324C14.8417 24.573 14.3 24.5222 13.7577 24.4798C13.5218 24.4607 13.2858 24.4434 13.0498 24.4304C13.0111 24.4309 12.9741 24.4471 12.9467 24.4756C12.9194 24.5041 12.9038 24.5427 12.9034 24.583C12.9039 24.8245 12.9081 25.0661 12.9113 25.3076C12.9138 25.5038 13.2067 25.5043 13.2042 25.3076C13.201 25.0661 13.1968 24.8245 13.1963 24.583L13.0498 24.7355C13.9867 24.7871 14.9249 24.8763 15.8562 24.9928C15.9693 25.0069 16.0759 25.0209 16.1729 25.0352C16.1976 25.0388 16.2223 25.0425 16.247 25.0463C16.2563 25.0483 16.2658 25.0498 16.2753 25.0507C16.2848 25.0521 16.2941 25.0541 16.3033 25.0567C16.2982 25.0547 16.2936 25.0514 16.2899 25.0471C16.2862 25.0429 16.2835 25.0378 16.2821 25.0322C16.2719 25.0298 16.2797 25.0513 16.2797 25.0692C16.2797 25.0971 16.2803 25.1251 16.2806 25.153C16.2813 25.2059 16.2819 25.2587 16.282 25.3119L16.4285 25.1594C16.056 25.1594 15.6836 25.1589 15.3111 25.158L13.6026 25.1558L13.0577 25.1552C12.869 25.1547 12.8687 25.4598 13.0575 25.4599Z" fill="#211715"/>
<path d="M11.605 23.3371C11.4232 20.9726 11.0933 17.9032 10.872 15.6228C10.6816 15.637 10.4113 15.6884 10.1976 15.7126C10.4208 18.0046 10.7712 21.0723 10.95 23.4261C11.1394 23.4098 11.5956 23.3381 11.605 23.3371Z" fill="#D9D9D9"/>
<path d="M11.7515 23.3371C11.6743 22.3351 11.5822 21.3344 11.4861 20.3342C11.3862 19.2958 11.2811 18.258 11.1769 17.2202C11.1234 16.6878 11.0705 16.1553 11.0182 15.6228C11.0177 15.5825 11.0021 15.544 10.9747 15.5155C10.9474 15.487 10.9104 15.4708 10.8718 15.4702C10.646 15.4883 10.4226 15.5338 10.1974 15.56C10.1251 15.5684 10.0422 15.6235 10.0509 15.7125C10.1469 16.6965 10.2508 17.6797 10.3528 18.6631C10.4609 19.7055 10.568 20.7479 10.664 21.7912C10.7143 22.3358 10.7616 22.8807 10.8031 23.4261C10.8035 23.4664 10.8191 23.5049 10.8465 23.5334C10.8739 23.5619 10.9108 23.5781 10.9495 23.5786C11.0886 23.5659 11.227 23.5454 11.3653 23.5255C11.4251 23.5171 11.4848 23.5083 11.5446 23.4991C11.5666 23.4958 11.5887 23.4927 11.6107 23.4891C11.6277 23.4865 11.6763 23.4802 11.6046 23.4896C11.643 23.4884 11.6796 23.4719 11.7068 23.4436C11.734 23.4152 11.7499 23.3771 11.751 23.3371C11.7508 23.2967 11.7353 23.258 11.7079 23.2295C11.6805 23.2009 11.6434 23.1848 11.6046 23.1845C11.3837 23.2137 11.1708 23.2537 10.9495 23.2735L11.096 23.4261C11.02 22.4266 10.9251 21.4286 10.826 20.4315C10.7223 19.3925 10.6129 18.3542 10.5056 17.3157C10.4506 16.7815 10.3968 16.2471 10.344 15.7125L10.1976 15.8651C10.4227 15.8389 10.6459 15.7934 10.872 15.7753L10.7255 15.6228C10.8208 16.6039 10.9208 17.5846 11.0191 18.5658C11.1234 19.609 11.2266 20.6524 11.3203 21.6967C11.3696 22.2433 11.4157 22.7902 11.4586 23.3373C11.4595 23.3775 11.4752 23.4157 11.5025 23.4441C11.5298 23.4725 11.5665 23.4889 11.605 23.4899C11.6438 23.4896 11.6809 23.4734 11.7083 23.4448C11.7357 23.4162 11.7512 23.3775 11.7515 23.3371Z" fill="#211715"/>
<path d="M10.3239 20.9805C10.1844 21.8709 10.0243 22.758 9.86958 23.6457C9.82824 23.8825 9.78701 24.1194 9.74589 24.3562C9.72705 24.4647 9.70826 24.5733 9.6895 24.6818C9.66381 24.7867 9.64803 24.894 9.6424 25.0022C9.64383 25.0678 9.65836 25.1324 9.68505 25.1919C9.71175 25.2514 9.75002 25.3045 9.79745 25.3477C9.90029 25.4329 10.0303 25.4744 10.1613 25.4639C10.4207 25.4639 10.6801 25.4638 10.9394 25.4635C11.394 25.4632 11.8486 25.4628 12.3031 25.4624C12.4916 25.4624 12.4919 25.1573 12.3031 25.1573C11.9329 25.1573 11.5625 25.1576 11.192 25.1582C10.9419 25.1584 10.6917 25.1586 10.4414 25.1587C10.3236 25.1587 10.2007 25.1692 10.0834 25.1587C10.0481 25.1562 10.0146 25.1415 9.98819 25.117C9.96176 25.0925 9.94386 25.0596 9.93731 25.0234C9.92407 24.9435 9.95806 24.8433 9.97191 24.7632C9.9894 24.6615 10.007 24.5598 10.0247 24.4581C10.0644 24.2295 10.1041 24.001 10.144 23.7725C10.2273 23.2949 10.3102 22.8173 10.3927 22.3396C10.4659 21.9137 10.5395 21.4883 10.6063 21.0615C10.6154 21.0225 10.6099 20.9814 10.5909 20.9465C10.5719 20.9116 10.5408 20.8856 10.504 20.8739C10.4666 20.8634 10.4267 20.8688 10.393 20.8887C10.3593 20.9086 10.3344 20.9416 10.3238 20.9804L10.3239 20.9805Z" fill="#211715"/>
<path d="M16.564 31.8948C16.564 31.35 16.5726 28.2357 16.5768 26.4006C16.8523 26.3992 17.0856 26.3978 17.2641 26.3965C17.2592 28.2506 17.2511 31.3625 17.2511 31.8947L16.564 31.8948Z" fill="white"/>
<path d="M17.3975 31.8951C17.3975 31.3537 17.3997 30.8123 17.4011 30.2709C17.4033 29.4191 17.4056 28.5674 17.4081 27.7156C17.4093 27.2976 17.4104 26.8796 17.4114 26.4616C17.4119 26.2652 17.119 26.265 17.1185 26.4616C17.1165 27.2572 17.1143 28.0528 17.112 28.8484C17.1099 29.6289 17.1078 30.4094 17.1059 31.1899C17.1054 31.4249 17.105 31.66 17.1047 31.8951C17.1047 32.0914 17.3975 32.0917 17.3975 31.8951Z" fill="#211715"/>
<path d="M16.7104 31.8951C16.7104 31.3537 16.7126 30.8123 16.714 30.2709C16.7162 29.4191 16.7186 28.5674 16.721 27.7156C16.7222 27.2976 16.7233 26.8796 16.7244 26.4616C16.7249 26.2652 16.432 26.265 16.4315 26.4616C16.4294 27.2572 16.4273 28.0528 16.425 28.8484C16.4228 29.6289 16.4208 30.4094 16.4189 31.1899C16.4183 31.4249 16.4179 31.66 16.4176 31.8951C16.4176 32.0914 16.7105 32.0917 16.7105 31.8951H16.7104Z" fill="#211715"/>
<path d="M8.40143 26.4262C9.92543 26.4228 16.5664 26.4063 17.538 26.3944C17.538 26.0664 17.5327 25.8215 17.5327 25.542H17.4799C16.762 25.5424 9.26475 25.5483 8.14813 25.5483C8.14813 25.7416 8.14746 26.0501 8.14642 26.4273L8.40143 26.4267" fill="white"/>
<path d="M8.42303 31.8948C8.42303 31.3526 8.43158 28.2642 8.43585 26.426L9.12294 26.4243C9.11867 28.2625 9.11013 31.3525 9.11013 31.8948H8.42303Z" fill="white"/>
<path d="M8.40146 26.5787C8.86737 26.5777 9.33316 26.5766 9.79883 26.5754C10.4945 26.5737 11.1899 26.5718 11.8852 26.5699C12.6496 26.5677 13.414 26.5653 14.1785 26.5628C14.8514 26.5606 15.5242 26.558 16.1971 26.5551C16.6168 26.5532 17.0366 26.5517 17.4563 26.5476L17.5378 26.5466C17.5765 26.5461 17.6134 26.5298 17.6407 26.5013C17.6681 26.4728 17.6837 26.4344 17.6843 26.3941C17.6843 26.11 17.6791 25.8258 17.6789 25.5417C17.6784 25.5014 17.6628 25.4629 17.6355 25.4345C17.6081 25.406 17.5712 25.3897 17.5325 25.3892C17.1571 25.3892 16.7816 25.3894 16.4061 25.3899L14.3484 25.3914L11.9066 25.3931L9.67319 25.3945C9.19577 25.3948 8.71834 25.395 8.24091 25.3952H8.14816C8.10948 25.3958 8.07255 25.412 8.0452 25.4405C8.01785 25.469 8.00225 25.5075 8.00171 25.5478C8.00171 25.8407 8.00114 26.1337 8 26.4267C8.00054 26.467 8.01614 26.5055 8.04349 26.534C8.07084 26.5624 8.10778 26.5787 8.14645 26.5793L8.40146 26.5787C8.58989 26.5783 8.59025 26.2732 8.40146 26.2736L8.14645 26.2743L8.2929 26.4269C8.29367 26.1339 8.29424 25.8409 8.29461 25.5479L8.14816 25.7005C8.58055 25.7005 9.01299 25.7003 9.44546 25.6999L11.6134 25.6985L14.0616 25.6968L16.1974 25.6953L17.4278 25.6944H17.5327L17.3863 25.5418C17.3863 25.826 17.3914 26.1101 17.3916 26.3942L17.5381 26.2417C17.159 26.2464 16.7799 26.2474 16.4008 26.2492C15.7499 26.2523 15.0991 26.2549 14.4484 26.2569C13.6866 26.2596 12.9247 26.2619 12.1628 26.264C11.4504 26.2662 10.738 26.2681 10.0256 26.2699C9.52457 26.2712 9.02354 26.2724 8.52252 26.2735H8.40146C8.21302 26.274 8.21266 26.5791 8.40146 26.5787V26.5787Z" fill="#211715"/>
<path d="M8.56988 31.8952C8.56988 31.3618 8.57189 30.8285 8.57323 30.2951C8.57539 29.4426 8.57763 28.59 8.57995 27.7374C8.58109 27.3004 8.5822 26.8633 8.5833 26.4262C8.58379 26.2298 8.29089 26.2296 8.2904 26.4262C8.28837 27.2451 8.28623 28.0641 8.28399 28.883C8.282 29.6554 8.27997 30.4279 8.27789 31.2003C8.2774 31.4319 8.27702 31.6635 8.27673 31.8952C8.27673 32.0915 8.56963 32.0918 8.56963 31.8952H8.56988Z" fill="#211715"/>
<path d="M9.25701 31.8951C9.25701 31.3537 9.25915 30.8123 9.26061 30.2709C9.26281 29.4191 9.26513 28.5674 9.26757 27.7156C9.26875 27.2976 9.26989 26.8796 9.27099 26.4616C9.27147 26.2652 8.97857 26.265 8.97809 26.4616C8.97601 27.2572 8.97383 28.0528 8.97156 28.8484C8.96936 29.6289 8.96733 30.4094 8.96545 31.1899C8.96488 31.4249 8.96446 31.66 8.96417 31.8951C8.96417 32.0914 9.25701 32.0917 9.25701 31.8951Z" fill="#211715"/>
<path d="M14.2376 11.904C14.541 11.9089 14.8446 11.9127 15.1482 11.9131C15.1674 11.9131 15.1865 11.9092 15.2042 11.9015C15.222 11.8939 15.2381 11.8826 15.2517 11.8685C15.2653 11.8543 15.2761 11.8375 15.2835 11.819C15.2909 11.8005 15.2946 11.7806 15.2946 11.7606C15.2946 11.7405 15.2909 11.7207 15.2835 11.7022C15.2761 11.6837 15.2653 11.6669 15.2517 11.6527C15.2381 11.6385 15.222 11.6273 15.2042 11.6196C15.1865 11.612 15.1674 11.608 15.1482 11.608C14.8446 11.6076 14.541 11.6038 14.2376 11.5989C14.1987 11.5989 14.1615 11.6149 14.134 11.6436C14.1066 11.6722 14.0911 11.711 14.0911 11.7514C14.0911 11.7919 14.1066 11.8307 14.134 11.8593C14.1615 11.8879 14.1987 11.904 14.2376 11.904Z" fill="#D9D9D9"/>
<path d="M14.0876 10.3561C14.0876 10.8212 14.091 11.2864 14.0911 11.7515C14.0911 11.9479 14.384 11.9482 14.384 11.7515C14.384 11.2864 14.3805 10.8212 14.3805 10.3561C14.3805 10.1598 14.0876 10.1595 14.0876 10.3561Z" fill="#D9D9D9"/>
</g>
<defs>
<clipPath id="clip0_32_3412">
<rect width="24" height="25" fill="white" transform="translate(8 8.54004)"/>
</clipPath>
</defs>
</svg>
