<svg width="40" height="41" viewBox="0 0 40 41" fill="none" xmlns="http://www.w3.org/2000/svg">
<rect y="0.540039" width="40" height="40" rx="20" fill="#3375D9" fill-opacity="0.25"/>
<path d="M29.1125 21.065L28.6625 14.2775L25.55 16.19C24.0125 15.9275 23.6 15.9275 22.4 15.365C21.6875 15.0275 20.7875 15.2525 20.3375 15.515C19.6625 14.8025 15.275 15.8525 14.7875 16.0775C13.475 15.665 11.525 14.165 11.525 14.165L10.85 21.815L11.75 22.04C11.825 22.3025 12.05 22.94 12.05 22.94C11.225 23.99 12.2 25.2275 13.1375 24.815C12.725 25.865 13.8125 26.84 14.675 26.165C14.5625 27.14 15.575 27.8525 16.325 27.1775C15.9875 28.34 17.3 29.2025 18.0875 28.265C18.65 28.64 19.175 28.94 19.625 29.09C20.4125 29.4275 21.275 28.6775 21.125 27.74C22.025 28.79 23.375 27.7775 23.075 26.615C24.0875 27.4025 25.325 26.09 24.6875 24.9275C25.8125 25.565 26.7875 23.84 25.7 22.715L29.1125 21.065Z" fill="#FFDD67"/>
<path d="M13.2125 22.1526C13.775 22.4151 14.15 23.2776 13.55 24.0276L13.2875 24.3276C12.9875 24.7026 12.6875 24.8151 12.3875 24.8151C12.6125 24.9276 12.875 24.9276 13.1375 24.8151C13.175 24.7026 13.25 24.5526 13.3625 24.4401L13.625 24.1401C13.775 23.9526 13.9625 23.8026 14.1125 23.7276C14.4125 22.9401 13.8875 22.1901 13.2125 22.1526Z" fill="#EBA352"/>
<path d="M17.4875 25.8651C18.0875 26.0151 18.5375 26.8026 18.0875 27.6651L17.8625 28.0026C17.6375 28.4151 17.3375 28.6026 17.0375 28.6401C17.45 28.7526 17.9 28.6026 18.2 28.0401L18.425 27.7026C18.9875 26.6526 18.275 25.7901 17.4875 25.8651Z" fill="#EBA352"/>
<path d="M14.8625 25.565L15.4625 24.6275C15.425 24.1025 14.975 23.6525 14.525 23.615C15.0875 23.8775 15.4625 24.74 14.8625 25.49L14.6 25.79C14.3 26.165 14 26.2775 13.6625 26.2775C13.9625 26.4275 14.3 26.39 14.6375 26.165C14.675 25.9775 14.75 25.7525 14.8625 25.565Z" fill="#EBA352"/>
<path d="M16.475 23.8776C17.075 24.0651 17.4875 24.8901 16.9625 25.7151L16.25 26.8401C15.9875 27.2526 15.6875 27.4026 15.3875 27.4026C15.7625 27.5151 16.25 27.4026 16.5875 26.8776L17.3 25.7526C17.9 24.7776 17.225 23.8401 16.475 23.8776Z" fill="#EBA352"/>
<path d="M21.4625 24.8151C21.5 24.8151 21.95 24.7401 22.1 24.7401C21.5375 24.1776 20.6375 24.6276 20.1125 24.3276C20.4875 24.9651 21.275 24.8151 21.35 24.8151L22.25 25.9776C23 26.9151 22.4 28.0026 21.6125 28.1151C22.4375 28.3776 23.2625 27.5151 23 26.5776C22.9625 26.5401 21.4625 24.8151 21.4625 24.8151Z" fill="#EBA352"/>
<path d="M22.3625 22.64C22.3625 22.64 22.925 22.5275 23.4125 22.5275C22.85 22.0775 21.9875 22.49 21.425 22.115C21.65 22.6025 22.1375 22.6025 22.2875 22.64L24.0125 24.6275C24.8 25.5275 24.2375 26.615 23.45 26.8025C24.35 27.065 25.2125 25.9025 24.65 24.89C24.275 24.74 22.3625 22.64 22.3625 22.64Z" fill="#EBA352"/>
<path d="M21.1625 26.9525C20.6 26.5025 19.8125 26.84 19.475 26.615C19.6625 27.14 20.375 27.0275 20.4125 27.0275C21.05 28.0025 20.375 29.015 19.5875 29.09C20.375 29.4275 21.2375 28.6775 21.0875 27.74C21.05 27.7025 20.525 27.0275 20.525 27.0275C20.6 26.99 21.0125 26.9525 21.1625 26.9525Z" fill="#EBA352"/>
<path d="M28.7 20.4276C28.7 20.4276 28.0625 21.7401 25.5875 22.4526C25.25 22.0401 24.5375 21.2151 23.7125 20.5026C24.2375 20.3901 24.5 19.9776 24.9125 19.9026C24.7625 19.7526 24.2375 19.8276 23.825 19.9776C23.075 20.2401 21.35 19.0401 21.35 19.0401L19.925 19.2276C18.9125 20.2026 16.7375 20.7276 16.625 19.2276C16.55 18.1776 18.8375 17.4651 19.55 16.7901C20.45 15.9276 21.2375 14.8401 22.7 15.5901C23.9 16.1901 24.3875 16.1526 26.0375 16.4526C26.6 16.5651 26.975 16.8276 27.3875 17.3901C27.05 16.6026 26.5625 16.2651 25.9625 16.1526L28.5875 14.9151L28.625 14.2776L25.5125 16.0401C24.0875 15.8151 23.5625 15.8151 22.4 15.2526C21.65 14.8776 21.05 14.9901 20.5625 15.2901C19.6625 14.7651 19.1375 14.8776 18.8 14.9526C17.75 15.2901 16.0625 15.3276 14.5625 15.9276C14.825 16.0026 15.0875 16.0776 15.275 16.0776C16.7375 15.6276 18.275 15.6651 18.9875 15.4026C19.2125 15.3276 19.6625 15.3276 20.15 15.5901C19.85 15.8526 19.5875 16.1526 19.2875 16.4526C18.575 17.1276 16.4 18.1026 16.55 19.3401C16.625 19.9401 17.45 21.5151 20.1875 19.7526L21.35 19.6026C21.35 19.6026 23.4875 20.6151 25.475 22.9401C26.2625 23.8401 25.775 24.8151 24.9875 25.0401C26 25.2276 26.8625 23.8026 25.8875 22.8276L28.25 21.5526L28.7 20.4276Z" fill="#EBA352"/>
<path d="M28.025 14.6526L29.2625 21.0651L28.25 21.5151C27.725 20.1276 26.9375 16.7901 27.125 15.1776L28.025 14.6526Z" fill="#2762BF"/>
<path d="M12.1625 22.79C11.975 22.34 11.8625 21.74 11.8625 21.74L10.925 21.1025L10.85 21.815L11.675 22.04C11.7875 22.415 11.9 22.715 12.05 22.94L12.1625 22.79Z" fill="#EBA352"/>
<path d="M10.2875 21.7024L12.3125 14.6899L13.25 15.3274C13.4 16.3774 11.675 21.1774 11.0375 21.8899L10.2875 21.7024Z" fill="#2762BF"/>
<path d="M27.9875 14.615C27.6875 14.8025 28.775 21.29 29.225 21.1025C30.65 20.465 31.2875 20.2775 31.2875 20.2775V12.5525C31.25 12.5525 30.3875 13.19 27.9875 14.615Z" fill="#2762BF"/>
<path d="M8.75 11.915V21.4775C8.75 21.4775 9.425 21.59 10.2875 21.7775C10.775 21.89 12.5375 14.84 12.425 14.7275C11.15 13.865 8.75 11.915 8.75 11.915Z" fill="#2762BF"/>
</svg>
