<svg width="40" height="41" viewBox="0 0 40 41" fill="none" xmlns="http://www.w3.org/2000/svg">
<rect y="0.540039" width="40" height="40" rx="20" fill="#3375D9" fill-opacity="0.25"/>
<g clip-path="url(#clip0_32_3349)">
<path d="M30.1307 28.5244L21.5544 32.5635C21.0257 32.8232 20.4744 32.7979 19.9682 32.4932L9.1419 26.7666C8.83253 26.5596 8.74065 26.2568 8.7594 26.0459C8.77815 25.835 8.82503 25.6064 9.36878 25.4424L10.1713 25.1338L21.0313 31.2998L28.7488 28.0146L30.1307 28.5244Z" fill="#01579B"/>
<path d="M21.4512 31.917C21.2368 32.0218 21.0015 32.0718 20.7647 32.063C20.528 32.0542 20.2967 31.9867 20.09 31.8662L9.52062 26.3193C9.37062 26.2334 9.32562 26.0361 9.41562 25.8838C9.64812 25.4834 10.0756 24.2178 9.37062 23.167L21.3069 29.1533L21.4512 31.917Z" fill="#F5F5F5"/>
<path d="M29.6731 28.0673L21.4512 31.9169C21.1794 32.04 20.6375 32.2587 20.0131 31.8212C20.5062 31.8583 20.8531 31.6454 21.0312 31.2997C21.2056 30.9638 21.1531 30.413 20.9412 30.1025C20.8119 29.915 20.465 29.6161 20.3131 29.4482L29.2062 25.8251C29.9937 25.4872 30.7325 25.9931 30.8506 26.6083C30.9819 27.3036 30.1306 27.872 29.6731 28.0673Z" fill="#94C6D6"/>
<path d="M30.0837 25.5244L21.5956 29.4697C21.0612 29.6904 20.4631 29.6611 19.9512 29.3916L9.10624 23.6533C9.00124 23.5986 8.84562 23.4482 8.78374 23.2432C8.68249 22.9014 8.80999 22.4717 9.19437 22.335L20.9469 28.5752L28.9944 24.9873L30.0837 25.5244Z" fill="#01579B"/>
<path d="M30.7231 26.0967L29.7988 25.7471L27.8938 25.8624L21.5975 28.7901C21.0631 29.0108 20.465 28.9815 19.9531 28.712L9.10626 22.9756C8.82688 22.8272 8.88688 22.3956 9.19438 22.335L17.0113 18.6924C17.2344 18.6495 17.4631 18.6749 17.6713 18.7667L28.8256 24.3057C28.8256 24.3057 30.5975 25.5694 30.7231 26.0967Z" fill="#0091EA"/>
<path d="M27.7868 25.919C27.7868 25.919 28.9606 25.4405 29.8831 25.4835C30.8056 25.5265 31.1262 26.2003 31.1262 26.2003C30.9518 25.3741 30.1325 24.9522 30.1325 24.9522L17.945 18.5597C17.8606 18.5226 17.5493 18.4464 17.0712 18.6515C16.685 18.8175 15.4231 19.4327 15.4231 19.4327L27.7868 25.919Z" fill="#616161"/>
<path d="M31.1787 26.3565C31.0906 25.9912 30.8731 25.6006 30.4719 25.4112C29.9431 25.1631 29.1894 25.2276 28.7075 25.4893L27.7869 25.9151V26.5909L28.9512 26.0518C30.0837 25.5264 30.5862 26.3135 30.6294 26.4991C30.8094 27.2549 30.4606 27.6924 29.4312 28.1846L27.7587 28.9698V29.6495L29.6825 28.7569C30.5337 28.4014 31.505 27.7334 31.1787 26.3565Z" fill="#424242"/>
<path d="M14.1894 26.1787L10.9512 21.5166L11.4594 21.2803L15.1025 26.4951L14.1894 26.1787Z" fill="#01579B"/>
<path d="M18.3425 28.3271L17.765 27.8506L27.7869 25.7197V26.0615L26.3825 26.6162L18.3425 28.3271Z" fill="#01579B"/>
<path d="M10.775 17.5596L23.4331 15.3564L28.9625 21.6982C29.2418 22.0049 29.09 22.5127 28.6925 22.5967L15.6237 25.3896L10.775 17.5596Z" fill="#9CCC65"/>
<path d="M28.6925 22.0498L15.7137 24.7881L15.6725 25.4326L28.6925 22.6514C29.06 22.5713 29.2137 22.1338 29.0131 21.8252C28.9419 21.9346 28.8331 22.0205 28.6925 22.0498Z" fill="#689F38"/>
<path d="M29.3918 25.0049C29.5287 25.2314 29.405 25.5303 29.1537 25.583L17.2062 28.1064C16.4881 28.2607 15.7831 27.7705 15.7193 27.0088C15.665 26.3643 16.0831 25.7803 16.6925 25.6475L28.1825 22.96L29.3918 25.0049Z" fill="#689F38"/>
<path d="M18.4231 24.1846L13.6644 17.0908L10.9494 17.8389C10.3212 18.4893 10.5556 19.5576 10.5556 19.5576C10.5556 19.5576 14.7125 26.5068 15.3687 27.3955C16.025 28.2842 16.9831 28.1455 16.9831 28.1455L18.6012 27.8057L18.4325 24.6611L18.4231 24.1846Z" fill="#616161"/>
<path d="M18.4231 24.2314L16.1375 24.7236C15.5131 24.8701 15.4006 25.4814 15.4006 25.4814L9.88248 17.2451C9.88248 17.2451 9.09686 18.2354 9.61811 19.0771L15.3687 27.3955C15.9969 28.3271 16.9831 28.1533 16.9831 28.1533L18.6012 27.8135L18.4344 24.7314L18.4231 24.2314Z" fill="#424242"/>
<path d="M28.6719 24.751C28.73 24.8838 28.655 25.0381 28.5181 25.0674L17.0937 27.5088C16.3756 27.6631 15.8675 27.167 15.8937 26.4912C15.9275 25.6377 16.3869 25.2764 16.9944 25.1455L28.475 22.7021C28.475 22.7021 28.085 23.1592 28.3831 24.0146C28.4844 24.3096 28.5931 24.5713 28.6719 24.751Z" fill="#B9E4EA"/>
<path d="M16.4769 24.8877L11.5812 17.6729" stroke="#424242" stroke-width="12.9438" stroke-miterlimit="10"/>
<path d="M16.8612 21.8115L10.565 18.5068L10.31 19.0303L17.585 22.8916L16.8612 21.8115Z" fill="#424242"/>
<path d="M28.3981 21.0459L27.9369 20.5186L20.8438 23.9092L16.8613 21.8564L17.54 22.8682L20.1781 24.2725L22.1431 23.958L28.3981 21.0459Z" fill="#689F38"/>
<path d="M30.1288 19.7412L21.5544 23.7803C21.0257 24.04 20.4744 24.0146 19.9682 23.71L9.1419 17.9834C8.83253 17.7764 8.74065 17.4736 8.7594 17.2627C8.77815 17.0518 8.82503 16.8232 9.36878 16.6592L9.8769 16.4639L20.9994 22.1494L30.0313 18.2568L30.1288 19.7412Z" fill="#C62828"/>
<path d="M21.4494 23.1338C21.235 23.2386 20.9996 23.2886 20.7629 23.2798C20.5262 23.271 20.2949 23.2035 20.0882 23.083L9.51879 17.5361C9.36879 17.4502 9.32379 17.2529 9.41379 17.1006C9.64629 16.7002 10.0738 15.4346 9.36879 14.3838L21.0388 20.5674L21.4494 23.1338Z" fill="#F5F5F5"/>
<path d="M29.6713 19.2843L21.4494 23.134C21.1775 23.257 20.6357 23.4758 20.0113 23.0383C20.5044 23.0754 20.8513 22.8625 21.0294 22.5168C21.2038 22.1808 21.1513 21.63 20.9394 21.3195C20.81 21.132 20.4632 20.8332 20.3113 20.6652L29.2044 17.0422C29.9919 16.7043 30.7307 17.2101 30.8488 17.8254C30.98 18.5207 30.1288 19.089 29.6713 19.2843Z" fill="#94C6D6"/>
<path d="M30.0838 16.7412L21.5956 20.6865C21.0613 20.9072 20.4632 20.8779 19.9513 20.6084L9.1044 14.8701C8.9919 14.8115 8.82315 14.6611 8.76878 14.4482C8.68815 14.1318 8.79315 13.7158 9.19253 13.5518L19.1319 11.3584L30.0838 16.7412Z" fill="#C62828"/>
<path d="M30.7213 17.3135L29.7969 16.9639L27.8919 17.0792L21.5956 20.0069C21.0613 20.2276 20.4632 20.1983 19.9513 19.9288L9.1044 14.1905C8.82503 14.042 8.9244 13.6495 9.19253 13.5499L17.0113 9.90923C17.2344 9.86627 17.4632 9.89166 17.6713 9.98345L28.8256 15.5225C28.8256 15.5225 30.5956 16.7842 30.7213 17.3135Z" fill="#F44336"/>
<path d="M27.7869 17.1339C27.7869 17.1339 28.7638 16.7765 29.6863 16.8194C30.6088 16.8624 31.1282 17.4151 31.1282 17.4151C30.9388 16.5323 30.1344 16.1671 30.1344 16.1671L17.9469 9.77451C17.8625 9.7374 17.5513 9.66123 17.0732 9.86631C16.6869 10.0323 15.425 10.6476 15.425 10.6476L27.7869 17.1339Z" fill="#616161"/>
<path d="M28.9025 16.7158L16.4319 10.1631L16.8444 9.96973L29.5269 16.5908L28.9025 16.7158Z" fill="#424242"/>
<path d="M31.1769 17.5733C31.0888 17.208 30.9406 16.8545 30.5225 16.6709C29.9881 16.4366 29.5006 16.3877 28.7056 16.7061L27.785 17.1319V17.8076L28.9494 17.2686C29.54 16.9795 30.41 17.042 30.6275 17.7159C30.8656 18.4541 30.4588 18.9092 29.4294 19.4014L27.7569 20.1866V20.8662L29.6806 19.9737C30.5338 19.6182 31.505 18.9502 31.1769 17.5733Z" fill="#424242"/>
</g>
<defs>
<clipPath id="clip0_32_3349">
<rect width="24" height="25" fill="white" transform="translate(8 8.54004)"/>
</clipPath>
</defs>
</svg>
