<svg width="40" height="41" viewBox="0 0 40 41" fill="none" xmlns="http://www.w3.org/2000/svg">
<g clip-path="url(#clip0_253_728)">
<path d="M11.5151 22.3601C11.5128 21.7074 11.4953 21.0757 11.4924 20.4712C11.4516 21.1344 11.4595 21.7635 11.5151 22.3601ZM21.2301 30.8873L21.2253 30.8878C21.2269 30.8875 21.228 30.8878 21.2301 30.8873Z" fill="#002738"/>
<path d="M19.9751 0.561035C8.97438 0.561035 0.0596924 9.47557 0.0596924 20.481C0.0596924 27.8339 4.04303 34.256 9.96941 37.7071C10.5681 36.0217 11.543 34.6483 12.758 33.5906C13.7213 32.7439 14.8588 32.076 16.1323 31.619C13.8169 29.603 13.7491 29.0541 14.5443 29.1298C13.8082 28.5578 13.1836 27.8553 12.7016 27.0574C2.48954 26.2908 10.9233 6.2402 19.9889 11.0057C23.8189 8.99167 27.4976 11.3828 29.7303 14.8842C32.812 19.6703 33.1922 26.5351 27.4744 27.0487C26.9521 27.9166 26.2805 28.6393 25.5092 29.2177C25.9036 29.3504 25.7355 29.9984 24.3956 31.6287H24.3854C25.6552 32.0876 26.7893 32.7565 27.7495 33.6035C28.8131 34.5331 29.6914 35.7056 30.2935 37.1176C30.2988 37.1302 30.3037 37.1433 30.3092 37.156C30.3491 37.2505 30.3891 37.3448 30.4266 37.4416C36.1091 33.9328 39.895 27.6494 39.895 20.481C39.8952 9.47557 30.9803 0.561035 19.9751 0.561035Z" fill="#002738"/>
<path d="M30.2936 37.1179C29.6913 35.706 28.813 34.5336 27.7496 33.6039C28.8381 34.5641 29.7041 35.7515 30.2936 37.1179ZM12.7581 33.5911C11.5431 34.6487 10.5682 36.0221 9.96948 37.7077L9.96981 37.7078C10.5545 36.0859 11.5097 34.6884 12.7581 33.5911ZM21.2111 30.8894C21.2158 30.8894 21.2206 30.889 21.2252 30.8879L21.2301 30.8874C21.564 30.8176 24.7053 28.9473 25.5091 29.218C26.2804 28.6396 26.952 27.917 27.4743 27.049C27.2804 27.0664 27.0804 27.0774 26.8723 27.0798C28.2278 25.1131 28.9124 22.6961 28.5081 19.5254L20.0807 19.5667H19.9795V19.5662L11.5797 19.5254C11.5403 19.8396 11.5112 20.155 11.4923 20.4711C11.4953 21.0756 11.5126 21.7072 11.515 22.36C11.6867 24.2032 12.2961 25.7457 13.2156 27.0797C13.0441 27.0777 12.8727 27.0703 12.7017 27.0575C13.1836 27.8554 13.8082 28.5579 14.5444 29.1299C15.7775 29.2472 19.0863 30.8672 19.3042 30.8476C20.0762 30.9445 20.4299 30.9122 21.2111 30.8894ZM30.4245 37.4431L30.4267 37.4418C30.3894 37.345 30.3492 37.2507 30.3093 37.1562C30.3497 37.2507 30.3869 37.347 30.4245 37.4431Z" fill="#FCE9EA"/>
<path d="M30.2936 37.1175C29.7041 35.7511 28.838 34.5637 27.7496 33.6035C26.7894 32.7565 25.6553 32.0876 24.3855 31.6287L16.1382 31.6242C16.1364 31.6224 16.1345 31.6208 16.1325 31.6191C14.859 32.0761 13.7215 32.744 12.7582 33.5907C11.5097 34.6882 10.5547 36.0857 9.96997 37.7075C12.91 39.4195 16.3276 40.4009 19.9752 40.4009C23.8082 40.4009 27.3871 39.3179 30.4245 37.4429C30.3877 37.3466 30.3493 37.251 30.3093 37.156L30.2936 37.1175Z" fill="#004861"/>
<path d="M24.3855 31.6287H24.3957C25.7357 29.9983 25.9037 29.3504 25.5093 29.2176C24.7055 28.9469 21.564 30.8171 21.2302 30.887C21.2281 30.8875 21.227 30.8872 21.2254 30.8875C21.2207 30.8885 21.216 30.889 21.2113 30.889C20.4302 30.912 20.0763 30.9441 19.3044 30.8475C19.0865 30.8671 15.7777 29.2471 14.5445 29.1298C13.7496 29.054 13.8172 29.6031 16.1326 31.6189C16.1344 31.6207 16.1363 31.6223 16.1382 31.624L24.3855 31.6287Z" fill="#C9CACA"/>
<path d="M29.7303 14.8841C27.4976 11.3827 23.8189 8.9916 19.9889 11.0056C23.7937 9.00538 27.4812 11.3908 29.7303 14.8841Z" fill="#FF5B47"/>
<path d="M11.5151 22.36C11.4597 21.7633 11.4516 21.1341 11.4924 20.4711C11.5114 20.1628 11.5386 19.8489 11.5798 19.5253L19.9796 19.5662V11.0059H19.9889C10.9233 6.24036 2.48971 26.2908 12.7016 27.0576C12.8679 27.0701 13.0393 27.0777 13.2155 27.0798C12.2962 25.7456 11.6866 24.2033 11.5151 22.36Z" fill="#FF5B47"/>
<path d="M19.9797 19.5661V19.5666H20.0809L28.5083 19.5253C28.9126 22.696 28.228 25.113 26.8724 27.0797C27.0735 27.0772 27.2743 27.0669 27.4745 27.0489C33.1923 26.5354 32.8121 19.6705 29.7304 14.8844C27.4813 11.3912 23.7938 9.00572 19.989 11.006H19.9797V19.5661Z" fill="#EF3520"/>
</g>
<defs>
<clipPath id="clip0_253_728">
<rect width="40" height="40" fill="white" transform="translate(0 0.540039)"/>
</clipPath>
</defs>
</svg>
